<?xml version="1.0" standalone="no"?>
<!DOCTYPE svg PUBLIC "-//W3C//DTD SVG 20010904//EN"
 "http://www.w3.org/TR/2001/REC-SVG-20010904/DTD/svg10.dtd">
<svg version="1.0" xmlns="http://www.w3.org/2000/svg"
 width="719.200000pt" height="312.000000pt" viewBox="0 0 719.200000 312.000000"
 preserveAspectRatio="xMidYMid meet">
<metadata>
Created by potrace 1.13, written by Peter Selinger 2001-2015
</metadata>
<g transform="translate(0.000000,312.000000) scale(0.080000,-0.080000)"
fill="#000000" stroke="none">
<path d="M0 1950 l0 -1950 3582 0 c2514 0 3579 3 3571 11 -5 5 -52 13 -104 17
-64 4 -83 8 -59 12 48 7 63 38 55 114 -4 39 -12 64 -23 72 -9 7 -17 18 -17 26
0 7 -22 24 -50 38 -42 21 -63 25 -134 24 -70 0 -81 1 -66 12 17 12 16 15 -6
39 -35 39 -56 44 -249 66 -147 18 -188 19 -255 10 -106 -15 -149 -10 -226 27
-116 56 -128 59 -235 57 -112 -2 -124 2 -147 57 -18 43 -47 64 -102 74 -22 4
-63 19 -90 35 -56 30 -9 29 -450 14 -317 -11 -423 -10 -488 2 -46 8 -76 9 -93
3 -48 -19 -53 -13 -30 35 20 41 23 44 52 39 43 -8 117 32 149 80 37 54 55 92
55 115 0 11 7 24 15 28 10 6 17 31 21 71 3 34 3 62 0 62 -3 0 -13 -24 -21 -54
-9 -30 -23 -60 -32 -68 -9 -7 -27 -30 -40 -51 -16 -25 -33 -40 -54 -44 -16 -3
-36 -14 -43 -25 -13 -18 -14 -18 -29 6 -9 13 -33 30 -53 38 -33 11 -35 15 -30
43 11 52 18 148 17 215 -1 47 1 61 9 50 5 -8 10 -10 10 -4 0 6 -7 17 -15 24
-8 7 -15 17 -15 22 0 15 -27 38 -58 49 -25 8 -28 14 -25 42 2 18 9 48 15 68 7
26 7 42 -1 58 -10 17 -9 21 3 21 8 0 17 6 19 13 3 7 6 4 6 -6 1 -10 5 -16 10
-12 5 3 13 0 17 -7 5 -7 10 -4 16 12 7 19 13 22 41 17 l32 -6 -32 15 c-34 14
-47 29 -16 17 11 -4 14 -3 9 5 -4 7 -2 12 3 12 6 0 11 -5 11 -12 0 -6 10 0 22
13 17 19 20 20 14 5 -6 -17 -3 -18 30 -13 20 3 34 4 31 1 -3 -4 3 -15 14 -27
10 -11 19 -26 19 -31 0 -6 -4 -5 -9 3 -12 18 -32 5 -24 -15 5 -13 1 -15 -18
-10 -13 3 -18 3 -11 0 14 -7 17 -34 3 -34 -5 0 -11 6 -14 13 -2 6 -8 9 -12 4
-5 -4 -1 -13 9 -20 16 -12 16 -14 -8 -27 -14 -7 -26 -17 -26 -22 0 -10 131 -4
167 7 17 6 22 3 25 -17 3 -20 8 -23 49 -22 35 0 46 -3 42 -13 -3 -7 -1 -13 4
-13 15 0 12 33 -4 52 -8 9 -21 14 -29 11 -9 -3 -14 1 -14 12 0 12 5 15 16 11
9 -4 22 -2 29 4 15 13 144 20 151 8 3 -5 0 -7 -7 -6 -6 2 -13 -1 -15 -7 -5
-14 10 -36 27 -39 35 -7 80 -42 75 -59 -3 -14 -1 -16 9 -7 19 16 42 2 54 -32
9 -25 8 -29 -4 -24 -10 3 -15 -1 -15 -13 0 -26 10 -32 27 -16 23 24 33 17 33
-22 0 -28 3 -34 10 -23 7 11 10 11 10 2 0 -7 5 -10 10 -7 14 9 42 -14 33 -28
-3 -5 -2 -8 3 -5 5 3 15 0 22 -8 10 -11 10 -14 -2 -14 -11 0 -10 -7 4 -36 10
-20 16 -43 14 -52 -5 -13 -2 -13 10 2 12 14 13 22 5 27 -7 4 -9 14 -6 23 4 9
2 16 -4 16 -6 0 -6 7 1 20 9 17 7 22 -15 30 -14 5 -25 12 -25 16 0 3 7 3 16 0
14 -5 15 -4 4 9 -11 13 -10 18 6 30 17 12 20 11 25 -3 5 -13 7 -12 11 6 6 21
7 21 58 6 41 -12 55 -13 64 -4 8 9 6 11 -11 5 -13 -3 -23 -2 -23 4 0 5 -9 13
-20 16 -22 7 -27 23 -7 22 43 -1 56 4 54 23 -1 11 -7 22 -15 25 -7 2 -10 0 -7
-5 3 -6 -1 -10 -9 -10 -18 0 -22 25 -6 35 6 4 18 1 26 -6 12 -10 13 -9 9 3 -4
11 2 13 31 10 26 -3 35 -1 30 7 -11 16 19 13 34 -4 6 -8 8 -20 4 -26 -4 -8 -3
-9 4 -5 7 4 12 1 12 -8 0 -9 7 -16 15 -16 9 0 12 -6 9 -15 -6 -15 9 -20 50
-17 12 2 16 -3 13 -12 -4 -10 -1 -13 8 -9 8 3 13 9 10 13 -3 4 2 13 10 20 12
10 15 10 15 0 0 -6 6 -10 13 -7 16 6 67 -20 69 -36 0 -6 2 -18 2 -26 1 -8 7
-16 14 -19 7 -2 12 0 11 5 -4 24 3 23 25 -2 25 -29 26 -65 0 -44 -7 6 -17 8
-23 5 -5 -3 -11 -1 -13 6 -3 7 -7 3 -10 -8 -4 -17 -1 -20 18 -16 13 2 35 -5
53 -18 23 -16 29 -17 25 -6 -3 9 -10 16 -16 16 -5 0 -6 5 -2 11 5 8 10 6 16
-6 7 -12 17 -15 34 -11 15 4 24 2 24 -5 0 -6 7 -9 15 -5 23 9 37 -26 18 -46
-15 -16 -15 -18 0 -18 8 0 18 6 21 13 2 6 4 2 2 -10 -3 -30 -15 -41 -26 -23
-8 13 -10 12 -10 -2 0 -28 46 -24 53 4 4 12 2 28 -4 34 -7 9 -7 20 2 35 l11
22 19 -24 c11 -15 14 -28 8 -35 -5 -6 -6 -14 -2 -18 4 -4 1 -11 -6 -15 -8 -5
-9 -11 -3 -15 5 -3 15 7 22 23 10 25 16 29 46 26 30 -2 34 1 34 22 0 34 -29
41 -52 12 -10 -13 -18 -19 -17 -14 3 24 -2 36 -13 29 -7 -4 -8 -3 -4 4 4 7 18
12 31 12 13 0 29 8 34 19 8 14 6 20 -12 28 -12 6 -35 11 -52 12 -16 1 -34 6
-39 11 -6 6 -25 10 -43 10 -23 0 -33 5 -33 15 0 8 -4 15 -10 15 -5 0 -6 -8 -3
-18 6 -15 5 -15 -10 -3 -13 10 -15 17 -6 27 8 10 6 22 -10 46 -11 18 -21 27
-22 21 -3 -27 -4 -31 -9 -36 -3 -3 -14 7 -24 21 -17 21 -17 25 -3 19 9 -3 19
-2 22 3 4 6 0 10 -7 10 -8 1 -6 6 6 15 10 7 15 18 11 24 -3 6 0 11 7 12 7 0 4
5 -7 10 -17 8 -16 9 7 6 15 -2 33 0 40 5 9 7 7 8 -7 3 -19 -6 -19 -5 -3 11 15
15 21 16 44 5 35 -15 54 0 37 29 -11 16 -9 19 10 23 14 3 9 5 -14 6 -39 1 -48
21 -17 40 21 13 24 2 6 -18 -7 -8 -8 -12 -3 -9 16 9 55 -10 55 -26 0 -19 42
-44 48 -28 4 13 32 4 32 -10 0 -5 7 -16 15 -25 14 -14 18 -14 36 3 15 13 17
19 7 26 -10 6 -10 10 1 17 15 10 -3 26 -19 16 -6 -4 -7 6 -4 25 6 26 4 29 -11
24 -11 -5 -21 -1 -27 9 -4 9 -15 14 -23 11 -29 -11 -15 14 14 26 36 15 84 -4
89 -35 3 -17 1 -17 -7 -5 -6 8 -11 10 -11 4 0 -6 10 -19 22 -30 19 -15 20 -16
9 -1 -9 12 -10 17 -2 17 6 0 14 -7 17 -15 3 -8 17 -14 30 -13 33 3 30 15 -6
23 -39 8 -49 25 -15 25 14 0 28 6 31 14 7 18 44 17 44 -2 0 -7 -4 -11 -9 -8
-14 9 -21 -21 -8 -31 17 -13 31 -10 51 10 23 23 39 22 31 -3 -4 -13 -2 -20 7
-21 7 0 4 -5 -7 -10 -18 -8 -18 -8 5 -6 23 2 25 -1 23 -37 -3 -43 -18 -59 -45
-50 -12 4 -18 0 -18 -11 0 -11 -5 -15 -14 -12 -8 3 -17 -1 -20 -9 -7 -19 -18
-18 -44 6 -12 12 -22 17 -22 13 0 -4 11 -17 25 -29 l25 -21 -35 1 c-19 0 -35
6 -36 11 -1 13 -17 -26 -18 -42 -1 -7 7 -13 17 -14 11 -1 8 -4 -8 -8 -14 -4
-25 -12 -25 -19 0 -6 -8 -17 -18 -25 -17 -12 -17 -14 -3 -26 16 -13 21 -6 17
21 0 5 3 8 8 8 5 0 18 3 28 6 15 5 16 4 3 -6 -12 -9 -11 -10 8 -5 21 6 33 -10
11 -17 -6 -2 -8 -14 -4 -31 4 -15 10 -26 12 -23 3 3 16 1 29 -4 15 -6 24 -6
24 0 0 6 -7 10 -15 10 -20 0 -19 7 5 32 15 16 23 19 31 11 6 -6 18 -9 27 -6
11 5 13 2 8 -8 -4 -8 -1 -6 7 4 15 18 12 52 -5 63 -5 3 -20 -2 -33 -10 -16
-11 -25 -12 -25 -5 0 8 -4 8 -14 -1 -11 -9 -19 -9 -33 0 -16 10 -16 11 0 6 13
-4 17 1 17 24 0 32 36 53 51 29 4 -7 11 -10 15 -6 4 4 13 2 21 -4 10 -9 13 -8
13 0 0 7 5 9 12 5 19 -12 78 -16 78 -5 0 5 -10 7 -22 4 -23 -4 -22 -4 1 10 18
11 20 16 10 20 -11 5 -10 9 5 21 18 14 21 14 38 -1 11 -10 17 -25 14 -36 -6
-25 16 -48 35 -36 8 5 19 9 24 9 6 0 3 -5 -5 -10 -11 -7 -11 -10 -2 -10 19 0
8 -58 -15 -76 -17 -13 -17 -15 0 -25 9 -5 17 -14 17 -19 0 -5 -8 -7 -17 -4
-15 5 -16 4 -3 -5 21 -15 40 -14 40 3 0 8 5 18 11 21 7 5 8 -5 4 -29 -6 -28
-4 -37 9 -42 24 -9 19 -20 -14 -34 -17 -7 -33 -17 -37 -23 -3 -5 -2 -7 3 -4
16 10 57 -29 60 -57 1 -15 -2 -26 -9 -26 -9 0 -9 -2 -1 -8 11 -7 18 -32 15
-59 0 -7 -12 -20 -26 -29 -24 -16 -27 -16 -40 2 -8 10 -12 25 -10 32 3 8 -1
20 -8 27 -8 8 -12 26 -9 46 l5 32 13 -24 c7 -13 13 -18 14 -11 0 7 5 10 10 7
6 -3 10 3 10 14 0 15 -4 19 -17 14 -11 -4 -14 -3 -9 5 4 7 0 15 -9 19 -10 3
-20 1 -24 -5 -4 -7 -12 -8 -21 -2 -10 6 -17 2 -25 -13 -9 -18 -18 -21 -50 -19
-21 2 -45 10 -52 18 -12 12 -16 12 -29 0 -8 -8 -23 -17 -33 -21 -14 -4 -17
-12 -13 -28 5 -19 3 -20 -10 -9 -11 9 -18 10 -23 2 -3 -5 0 -10 7 -11 7 0 24
-2 38 -4 14 -2 19 -1 13 1 -19 8 -16 21 7 27 22 6 37 -8 18 -17 -7 -3 1 -2 17
1 17 4 38 7 48 7 10 0 15 6 12 14 -3 9 4 8 25 -4 19 -12 28 -25 27 -38 -1 -15
3 -21 16 -20 9 1 17 -2 17 -7 0 -5 -6 -9 -14 -9 -8 0 -17 -4 -20 -9 -3 -4 6
-6 19 -3 27 5 59 -14 49 -29 -3 -5 0 -9 5 -9 6 0 10 -3 10 -7 -5 -30 2 -35 23
-17 12 10 18 13 14 7 -4 -7 -2 -13 3 -13 6 0 11 5 11 12 0 9 3 9 13 -1 10 -10
8 -15 -7 -27 -18 -13 -18 -14 -2 -14 11 0 15 -4 10 -12 -5 -8 -1 -7 10 2 16
12 20 12 30 0 6 -9 22 -14 35 -12 20 3 23 0 18 -17 -3 -14 0 -21 8 -21 8 0 12
-8 10 -20 -3 -17 -1 -19 16 -10 21 12 25 1 7 -19 -10 -11 -10 -13 0 -7 6 4 12
3 12 -2 0 -6 17 -13 38 -17 23 -5 32 -10 22 -14 -17 -7 -26 -41 -10 -41 5 0
10 4 10 9 0 5 8 12 17 15 16 6 16 6 0 -12 -39 -43 1 -45 42 -2 27 29 61 33 61
7 0 -5 11 2 25 17 35 38 32 60 -5 36 -10 -6 -11 -10 -2 -10 6 0 12 -4 12 -10
0 -15 -17 -12 -24 5 -3 8 2 21 10 29 12 12 19 13 34 4 10 -7 17 -15 15 -19 -3
-3 11 -15 30 -25 19 -10 35 -22 35 -27 0 -4 5 -5 12 -1 7 4 8 3 4 -4 -12 -20
4 -34 20 -17 9 8 25 14 37 14 22 -2 22 -2 0 -6 -25 -5 -30 -19 -10 -26 6 -2
-1 -4 -16 -4 -16 0 -33 -5 -39 -11 -8 -8 -4 -9 12 -5 20 5 22 3 17 -13 -7 -18
-7 -18 7 0 8 10 20 15 26 11 7 -4 4 -13 -11 -26 -23 -20 -18 -23 29 -19 14 1
22 -4 22 -14 0 -9 -8 -16 -20 -16 -12 0 -20 -7 -20 -16 0 -13 6 -12 37 7 20
13 33 18 30 12 -4 -7 -2 -15 4 -19 6 -3 15 0 20 7 7 11 11 10 23 -6 8 -11 12
-23 10 -27 -2 -4 0 -9 6 -13 5 -3 10 2 11 12 1 13 3 11 9 -7 8 -25 8 -25 15
-3 4 14 12 20 22 16 12 -5 12 -7 1 -14 -11 -7 -10 -11 2 -19 11 -7 11 -10 2
-10 -7 0 -10 -5 -6 -11 5 -8 10 -6 16 5 13 24 31 21 18 -3 -14 -26 -13 -31 5
-25 8 4 13 10 10 14 -2 4 6 8 20 8 14 0 23 -4 20 -8 -2 -3 2 -7 10 -7 8 0 16
5 18 11 3 7 33 11 76 10 52 0 71 3 71 13 0 7 5 13 10 13 17 0 11 -25 -10 -43
-20 -17 -29 -43 -11 -32 5 3 12 1 16 -5 4 -6 11 -7 17 -4 7 5 8 2 4 -5 -5 -7
-15 -10 -23 -7 -8 3 -11 1 -8 -4 3 -6 13 -10 21 -10 8 0 12 -4 9 -10 -3 -5 -1
-10 5 -10 6 0 8 -5 4 -12 -4 -6 -3 -8 3 -5 6 4 9 19 7 34 l-4 28 13 -29 c10
-21 15 -24 20 -13 6 17 67 50 67 37 0 -5 -6 -11 -13 -13 -9 -4 -9 -6 1 -6 17
-1 15 -21 -2 -21 -7 0 -19 -7 -26 -16 -8 -8 -23 -20 -34 -26 -19 -10 -20 -10
-7 5 8 11 9 17 2 17 -16 0 -26 -49 -12 -63 9 -9 14 -8 21 3 14 23 12 6 -3 -24
-8 -14 -18 -22 -22 -18 -5 4 -5 1 -1 -6 4 -6 20 -12 36 -12 15 0 30 -7 34 -15
3 -9 12 -12 23 -9 12 4 10 -1 -7 -15 l-25 -21 27 9 c16 6 30 7 33 1 3 -5 12
-7 20 -3 8 3 15 1 15 -4 0 -18 -12 -22 -37 -12 -27 10 -25 0 10 -38 l20 -23
674 0 673 0 0 1950 0 1950 -4495 0 -4495 0 0 -1950z m1820 942 c0 -4 12 -15
28 -25 l27 -18 -29 6 c-27 6 -28 5 -15 -11 12 -15 12 -17 -1 -12 -8 3 -15 15
-15 27 0 12 -7 26 -15 31 -13 8 -12 10 3 10 9 0 17 -3 17 -8z m663 -112 c-6
-21 2 -24 46 -20 21 2 23 -1 17 -25 -4 -15 -3 -24 2 -21 5 3 9 -1 9 -9 0 -23
-13 -18 -42 17 -17 20 -29 27 -34 20 -4 -8 -11 -8 -21 -1 -11 8 -12 12 -2 16
6 2 12 13 12 24 0 10 4 19 9 19 5 0 7 -9 4 -20z m173 -92 c-18 -12 -26 -9 -26
8 0 13 -3 14 -15 4 -8 -7 -12 -17 -8 -24 3 -6 1 -6 -7 1 -11 11 -10 16 6 31
18 17 21 18 40 3 15 -11 18 -18 10 -23z m-166 -9 c-6 -10 -13 -19 -16 -19 -3
0 -2 5 1 10 3 6 -1 10 -9 10 -9 0 -16 -8 -16 -17 0 -14 -2 -15 -12 -4 -9 10
-10 15 -2 18 6 2 20 10 30 17 24 18 37 10 24 -15z m24 -66 c-7 -2 -9 -13 -6
-25 3 -15 1 -19 -7 -14 -6 4 -9 12 -6 17 4 5 -3 9 -14 9 -35 0 -23 15 12 16
17 1 27 -1 21 -3z m-24 -88 c0 -8 5 -15 11 -15 5 0 7 5 4 10 -3 6 -1 10 4 10
14 0 14 -17 1 -25 -12 -7 -53 19 -43 28 11 12 23 8 23 -8z m1800 -306 c0 -5
-5 -9 -12 -9 -6 0 -21 -8 -32 -17 -17 -16 -17 -14 3 15 20 29 41 35 41 11z
m207 -6 c-9 -2 -15 -8 -12 -13 3 -5 12 -7 20 -3 9 3 15 -1 15 -10 0 -8 6 -18
13 -20 6 -3 2 -6 -10 -6 -12 -1 -25 4 -28 10 -4 6 -13 8 -21 5 -17 -6 -17 -1
-4 25 6 10 18 18 28 18 16 -1 15 -2 -1 -6z m-469 -43 c13 0 20 -4 17 -10 -3
-5 0 -7 8 -4 8 3 17 -1 20 -9 4 -10 -1 -13 -19 -9 -13 2 -24 0 -24 -7 0 -6 -7
-8 -17 -4 -12 5 -15 2 -10 -9 6 -16 -20 -35 -31 -23 -3 3 0 5 6 5 7 0 12 5 12
10 0 6 -7 10 -15 10 -8 0 -15 7 -15 15 0 8 -4 15 -10 15 -5 0 -10 -4 -10 -10
0 -5 -4 -10 -10 -10 -5 0 -7 7 -3 16 3 9 0 20 -7 24 -7 4 9 6 36 4 27 -2 59
-3 72 -4z m231 -13 c-7 -7 -20 -14 -28 -14 -9 -1 -21 -2 -26 -3 -20 -4 -35 0
-35 11 0 7 11 9 30 6 16 -4 32 -2 35 3 3 6 13 10 21 10 12 0 12 -3 3 -13z
m-199 -38 c0 -5 5 -7 10 -4 6 3 17 -1 26 -9 8 -9 12 -16 7 -16 -5 0 -14 5 -21
12 -9 9 -12 9 -12 -1 0 -9 -4 -8 -15 3 -17 17 -19 26 -5 26 6 0 10 -5 10 -11z
m-1137 -77 c23 -20 22 -29 -5 -38 -12 -3 -28 -13 -36 -21 -8 -8 -17 -11 -21
-8 -3 4 2 13 12 20 12 8 14 15 8 20 -6 3 -11 12 -11 18 0 7 5 4 11 -5 11 -19
39 -25 39 -9 0 16 -41 40 -58 34 -10 -4 -13 -2 -8 6 9 14 43 6 69 -17z m1487
-3 c-12 -8 -8 -9 14 -6 17 3 36 3 43 0 20 -8 5 -23 -23 -23 -13 0 -24 -5 -24
-11 0 -19 -25 -3 -26 17 -1 25 5 34 19 34 7 0 6 -4 -3 -11z m-1295 -19 c20 -3
19 -11 -3 -17 -26 -6 -28 -18 -6 -31 13 -7 14 -11 3 -17 -7 -5 -14 -4 -17 3
-2 7 -7 10 -12 7 -4 -3 -14 3 -21 12 -8 10 -9 14 -2 10 17 -10 28 13 12 24
-11 7 -11 9 -1 9 7 0 10 5 6 11 -4 8 -1 8 12 1 11 -6 24 -11 29 -12z m-139
-16 c-3 -8 0 -11 10 -7 7 3 14 0 14 -7 0 -6 5 -8 10 -5 6 3 10 1 10 -5 0 -6
-10 -15 -22 -20 -18 -7 -19 -9 -5 -9 21 -1 22 -9 0 -33 -22 -25 -25 -48 -6
-48 10 0 12 6 8 19 -4 14 0 21 17 26 13 4 31 14 41 23 16 14 19 14 35 -2 16
-16 16 -17 -2 -10 -16 6 -18 4 -13 -10 4 -9 3 -15 -2 -12 -5 3 -8 -6 -8 -19 0
-30 5 -31 24 -7 8 9 12 11 8 5 -3 -7 -1 -13 6 -13 6 0 9 8 6 20 -3 11 -1 20 3
20 5 0 7 8 5 18 -1 9 2 22 7 29 6 7 3 15 -9 22 -16 9 -16 10 5 8 14 -1 22 -8
22 -19 0 -14 5 -17 24 -12 20 5 26 -1 44 -36 15 -32 18 -49 12 -72 -7 -23 -6
-27 3 -20 15 11 54 26 45 16 -8 -7 16 -35 29 -34 11 0 11 24 0 31 -5 4 -5 9 1
13 6 3 17 -1 26 -9 8 -9 17 -11 21 -6 6 12 35 3 35 -10 0 -4 -8 -6 -17 -3 -15
5 -15 4 -3 -5 10 -7 19 -6 30 4 13 11 19 12 28 3 9 -9 12 -7 12 10 0 12 -4 22
-10 22 -5 0 -10 5 -10 11 0 8 4 8 15 -1 8 -6 19 -9 26 -5 8 5 7 0 -1 -16 -10
-20 -10 -22 1 -11 18 17 34 15 19 -3 -19 -23 0 -18 29 8 17 14 21 16 11 3 -13
-16 -12 -20 5 -32 10 -8 23 -14 28 -14 5 0 3 -8 -4 -17 -13 -15 -12 -16 9 -10
16 4 22 2 19 -6 -6 -16 45 -65 61 -59 6 2 12 -1 12 -6 0 -15 -43 -23 -53 -9
-6 9 -7 8 -4 -3 2 -8 14 -15 26 -14 15 0 21 -5 21 -20 1 -20 2 -20 14 -3 14
17 32 24 21 8 -3 -5 -1 -12 4 -15 5 -4 13 -1 18 6 12 21 14 48 2 48 -5 0 -8 4
-4 9 9 15 78 0 98 -20 10 -11 23 -19 30 -19 6 0 1 -7 -11 -16 -28 -20 -29 -37
-1 -29 19 6 20 5 8 -8 -8 -8 -17 -13 -21 -10 -5 2 -8 -6 -8 -19 0 -13 4 -18 8
-13 4 6 20 19 36 29 26 17 28 17 23 1 -4 -9 -7 -22 -7 -28 0 -8 -4 -7 -9 2
-11 16 -31 6 -31 -16 0 -9 6 -13 15 -9 10 3 15 -1 15 -11 0 -13 3 -14 12 -5
14 14 42 16 34 3 -12 -18 27 -21 47 -4 11 10 17 12 13 6 -4 -8 -2 -11 6 -8 17
7 41 45 29 45 -5 0 -11 -6 -14 -12 -3 -9 -7 -6 -12 6 -8 18 8 38 39 49 7 3 4
12 -8 23 -18 19 -18 18 -11 -3 7 -24 -1 -29 -24 -14 -10 6 -11 16 -4 36 l8 26
30 -28 c17 -15 33 -26 38 -25 4 1 7 -9 7 -23 0 -14 -5 -25 -11 -25 -5 0 -7 5
-3 12 4 7 3 8 -5 4 -9 -6 -9 -11 -1 -21 8 -10 7 -14 -2 -18 -7 -3 -3 -4 9 -4
12 1 20 3 18 5 -2 2 1 10 8 17 9 10 14 9 25 -4 7 -9 11 -11 8 -5 -3 7 5 15 18
18 20 5 24 11 21 36 -2 17 0 30 5 30 6 0 10 -6 10 -14 0 -7 9 -35 21 -61 20
-45 33 -145 19 -145 -4 0 -15 9 -25 20 -28 31 -36 24 -18 -15 9 -19 25 -37 35
-41 12 -3 18 -16 19 -37 0 -18 2 -48 4 -67 5 -46 -26 -145 -64 -207 -17 -28
-31 -60 -31 -72 0 -11 -2 -21 -4 -21 -2 0 -12 -3 -20 -6 -12 -5 -15 -2 -10 12
6 18 6 18 -8 0 -14 -18 -15 -18 -22 5 l-7 24 -10 -25 c-6 -14 -8 -33 -5 -42 2
-10 2 -18 -1 -18 -16 0 -58 73 -50 87 3 5 -3 10 -15 10 -17 2 -19 -2 -14 -24
8 -30 -12 -62 -25 -41 -14 22 -10 47 11 68 16 16 17 20 5 20 -17 0 -20 26 -4
35 18 12 31 57 19 69 -7 7 -10 3 -10 -13 0 -12 -6 -29 -14 -37 -17 -16 -30
-19 -21 -4 3 5 3 15 -1 22 -4 7 -13 -2 -23 -23 -19 -39 -44 -45 -49 -11 -3 21
-1 23 18 17 15 -5 20 -4 16 4 -4 6 -14 11 -22 11 -23 0 -16 26 10 38 19 9 25
8 30 -4 3 -8 11 -14 18 -14 9 0 8 3 -2 10 -14 9 -6 15 15 10 5 -1 6 2 2 7 -5
4 -14 8 -20 9 -7 0 -20 2 -31 2 -13 2 -16 7 -11 19 5 15 4 16 -6 6 -18 -18
-28 -16 -24 5 2 9 4 21 4 25 1 5 5 6 10 3 5 -4 7 3 4 14 -3 11 -10 20 -15 20
-6 0 -8 11 -6 24 3 14 1 31 -3 38 -7 10 -9 9 -9 -4 0 -12 -5 -16 -17 -12 -12
4 -14 3 -6 -3 15 -11 35 -63 24 -63 -5 0 -14 7 -21 15 -16 20 -29 10 -23 -18
4 -19 3 -20 -7 -4 -15 24 -34 22 -20 -2 13 -25 13 -44 0 -36 -6 4 -8 10 -5 15
3 4 -9 13 -27 19 -39 14 -38 14 -38 -4 0 -8 -4 -15 -10 -15 -5 0 -10 -12 -10
-27 0 -24 -1 -25 -17 -11 -24 20 -64 29 -78 18 -9 -7 -10 2 -5 34 5 34 4 43
-7 39 -7 -3 -13 -9 -13 -14 0 -4 -7 -6 -15 -3 -8 4 -15 1 -15 -7 0 -7 -3 -9
-7 -6 -8 9 26 47 42 47 6 0 20 7 31 16 18 14 18 15 -6 8 -14 -3 -29 -7 -34 -8
-6 0 -20 -12 -33 -26 l-23 -25 11 30 c13 37 43 66 61 60 19 -8 68 38 58 54
-10 18 -31 5 -23 -14 4 -11 1 -13 -11 -9 -18 7 -20 15 -8 30 4 5 0 1 -10 -8
-9 -10 -21 -18 -27 -18 -6 0 -11 -6 -11 -14 0 -8 -5 -18 -12 -22 -8 -5 -9 -2
-5 10 4 10 3 15 -3 11 -6 -3 -10 -14 -10 -23 0 -10 -8 -18 -19 -19 -14 -1 -17
3 -14 18 4 15 1 19 -17 16 -13 -2 -31 -13 -41 -25 -23 -29 -30 -28 -16 3 7 14
20 28 30 31 9 3 17 10 17 15 0 5 -10 3 -23 -6 -37 -24 -52 8 -19 41 16 17 16
17 -5 12 -13 -3 -23 -2 -23 4 0 5 -4 6 -10 3 -19 -12 -10 12 15 39 22 23 25
24 34 9 7 -14 9 -13 8 9 -2 22 -6 25 -31 21 -26 -4 -28 -3 -17 11 7 9 18 13
24 9 6 -4 8 2 5 15 -4 15 -2 19 8 15 10 -4 12 0 8 12 -5 13 -3 16 7 13 8 -3
13 -14 11 -26 -2 -16 1 -19 18 -15 15 4 19 11 15 24 -4 11 -2 19 4 19 6 0 11
-5 11 -12 0 -9 3 -9 12 0 8 8 15 9 25 1 9 -8 13 -8 13 0 0 6 -5 11 -11 11 -6
0 -8 9 -4 20 7 23 -10 28 -19 5 -3 -8 -11 -15 -17 -15 -8 0 -8 4 1 15 10 12
10 15 -1 16 -8 1 -24 3 -37 4 -15 2 -21 -2 -18 -11 3 -7 -2 -15 -11 -18 -11
-4 -14 -2 -9 9 4 10 -1 15 -14 15 -11 0 -20 5 -20 12 0 6 -3 9 -6 6 -3 -4 -1
-16 6 -27 8 -15 8 -21 0 -21 -6 0 -9 -4 -5 -10 3 -5 13 -6 22 -3 13 5 13 3 -3
-13 -10 -11 -22 -16 -25 -11 -4 5 -12 6 -18 2 -9 -5 -9 -10 0 -21 9 -11 8 -14
-5 -14 -9 0 -16 -6 -16 -14 0 -10 -9 -13 -32 -9 -18 3 -35 7 -37 9 -10 9 -9
34 1 34 6 0 7 11 4 26 -7 25 -6 25 10 9 14 -13 19 -14 25 -3 12 17 11 38 0 38
-5 0 -11 -6 -13 -13 -2 -9 -9 -7 -22 7 -16 16 -16 18 -3 13 9 -3 17 -2 17 4 0
6 5 7 10 4 6 -3 14 -4 20 0 11 7 2 35 -12 35 -5 0 -6 -4 -3 -10 8 -13 -8 -13
-22 1 -8 8 -17 8 -32 0 -17 -10 -20 -9 -15 4 4 8 10 15 15 15 5 0 9 5 9 11 0
6 -5 7 -12 2 -7 -4 -17 -8 -23 -8 -22 -2 -45 -18 -39 -27 4 -6 -3 -5 -15 1
-25 14 -28 23 -3 14 9 -3 14 -3 10 2 -4 4 1 20 11 34 15 21 16 28 6 38 -7 6
-14 10 -16 8 -2 -2 -5 12 -5 31 -1 19 3 34 9 34 6 0 8 2 5 5 -3 3 -32 8 -66
11 -54 5 -62 3 -72 -15 -15 -29 -25 -26 -40 9 -16 38 -31 39 -24 1 3 -16 1
-31 -4 -35 -14 -9 -43 4 -36 16 4 6 10 5 15 -3 6 -9 9 1 7 29 -1 23 -6 42 -10
42 -5 0 -4 9 2 20 14 26 3 45 -16 29 -8 -7 -14 -7 -14 -1 0 17 29 22 43 8 11
-11 16 -11 33 1 12 10 15 17 7 20 -9 3 -9 10 -1 28 11 24 43 24 34 -1z m-175
7 c-7 -5 -10 -14 -7 -20 4 -6 12 -8 18 -5 7 4 8 2 4 -4 -4 -7 -4 -12 1 -12 4
0 14 -4 22 -9 12 -8 11 -12 -4 -27 -17 -17 -17 -17 -11 4 5 16 3 22 -7 22 -8
0 -18 7 -21 17 -6 14 -11 12 -36 -12 -17 -16 -30 -25 -30 -21 0 12 63 76 75
76 5 0 4 -4 -4 -9z m13 -94 c4 -19 3 -26 -4 -22 -5 3 -10 1 -10 -4 0 -14 -27
-14 -35 -1 -3 5 0 7 8 4 10 -3 16 5 21 27 7 37 10 36 20 -4z m-233 -5 c-9 -3
-8 -8 4 -22 15 -16 14 -18 -9 -22 -15 -3 -27 0 -30 8 -3 8 0 13 7 11 7 -1 12
8 11 20 -1 15 3 20 14 15 11 -4 12 -7 3 -10z m478 -71 c12 -8 11 -12 -3 -27
-17 -16 -17 -18 6 -30 l23 -13 -22 2 c-21 1 -27 9 -24 30 0 4 -7 7 -16 8 -15
0 -15 2 2 9 11 5 14 9 8 9 -7 1 -13 6 -13 11 0 12 20 13 39 1z m-47 -193 c-16
-16 -15 -31 1 -22 7 5 6 0 -3 -11 -13 -16 -15 -16 -18 -2 -2 10 -9 17 -15 17
-7 1 -1 7 13 15 31 18 38 19 22 3z m1192 -4 c9 -3 13 -10 10 -15 -3 -5 2 -9
10 -9 9 0 14 -8 13 -20 -2 -25 -1 -25 -32 5 -34 35 -35 52 -1 39z m1741 -10
c9 -9 24 -14 36 -11 15 4 18 2 10 -7 -6 -7 -7 -17 -3 -21 9 -10 -15 3 -50 27
-18 13 -26 15 -23 6 4 -9 -2 -14 -15 -14 -24 0 -24 0 -4 20 20 20 29 20 49 0z
m-1205 -36 c0 -6 -7 -8 -15 -5 -8 4 -17 1 -21 -5 -4 -7 -10 -6 -16 3 -7 11
-11 11 -15 2 -7 -19 -23 -16 -16 3 3 9 13 14 24 11 11 -3 21 -1 24 4 7 10 35
0 35 -13z m1348 -13 c0 -14 -5 -28 -11 -32 -6 -4 -8 0 -4 10 4 11 1 17 -8 17
-8 0 -15 -6 -15 -12 0 -9 -3 -9 -9 1 -7 10 -4 19 7 28 26 19 40 15 40 -12z
m1617 16 c7 -12 -29 -33 -39 -24 -3 3 -6 12 -6 20 0 15 36 18 45 4z m-4614
-73 c-11 -10 -12 -10 -7 0 4 7 1 12 -8 12 -18 0 -30 -17 -17 -25 14 -8 3 -36
-26 -64 l-25 -23 4 23 c2 17 8 23 23 21 17 -2 18 -1 5 8 -11 9 -12 13 -2 17 6
2 12 9 12 15 0 6 -9 3 -20 -7 -17 -15 -23 -16 -33 -5 -9 10 -9 11 1 6 7 -4 15
-1 18 8 3 8 14 18 25 21 11 4 17 11 14 16 -4 5 -1 9 5 9 6 0 8 6 4 13 -4 6 4
2 17 -10 19 -19 21 -25 10 -35z m3189 25 c0 -10 -7 -26 -14 -36 -12 -16 -14
-16 -20 -2 -3 9 -2 13 4 10 6 -3 10 5 10 19 0 14 5 26 10 26 6 0 10 -8 10 -17z
m-1420 -18 c0 -8 -5 -24 -12 -34 -9 -16 -16 -17 -35 -8 -18 8 -20 13 -12 24 6
7 18 13 25 13 8 0 14 5 14 10 0 6 5 10 10 10 6 0 10 -7 10 -15z m-1728 -126
c10 -7 9 -9 -4 -9 -9 0 -18 -3 -21 -7 -2 -5 -2 -3 -1 4 2 6 -3 14 -11 17 -9 3
-15 -4 -17 -21 -2 -15 -10 -29 -18 -31 -13 -5 -13 -3 -1 11 9 11 10 17 2 17
-19 0 -12 29 9 40 14 7 20 7 20 0 0 -5 4 -10 9 -10 4 0 7 24 5 53 l-3 52 9
-54 c4 -29 14 -58 22 -62z m81 97 c3 -8 -3 -22 -13 -31 -18 -17 -19 -17 -15 4
4 21 13 41 20 41 1 0 5 -6 8 -14z m-233 -17 c0 -5 -3 -8 -8 -5 -4 2 -16 -2
-27 -10 -17 -13 -18 -16 -5 -24 10 -7 11 -10 3 -10 -7 0 -13 -4 -13 -10 0 -5
8 -7 18 -4 14 5 15 4 2 -5 -24 -17 -28 -13 -28 24 0 23 5 35 14 35 8 0 14 5
14 10 0 6 7 10 15 10 8 0 15 -5 15 -11z m3536 -7 c6 -4 7 -17 3 -32 -6 -21 -7
-22 -9 -5 -1 11 -2 24 -1 28 1 5 -9 6 -21 2 -18 -5 -20 -4 -8 4 18 13 22 13
36 3z m-6150 -47 c4 -8 10 -13 14 -10 5 3 11 2 13 -2 3 -5 -7 -9 -22 -9 -20
-1 -27 3 -27 17 0 23 14 25 22 4z m2498 -11 c9 -3 16 -12 16 -20 0 -8 5 -14
10 -14 6 0 10 -4 10 -10 0 -5 -7 -7 -15 -4 -8 4 -15 12 -15 20 0 8 -9 14 -21
14 -11 0 -17 5 -14 10 7 12 8 12 29 4z m2354 -7 c6 0 12 -7 12 -14 0 -17 -36
-8 -59 15 -13 13 -12 14 9 7 14 -5 31 -8 38 -8z m-184 -43 c4 -9 4 -19 1 -22
-3 -3 -5 1 -5 9 0 10 -2 11 -8 2 -5 -8 -12 -9 -22 -2 -13 8 -13 10 0 19 21 14
27 12 34 -6z m-1735 -60 c-5 -6 -7 -19 -3 -28 4 -11 1 -16 -10 -16 -9 0 -13 6
-10 14 3 7 -2 16 -11 20 -10 3 -13 11 -9 18 4 8 3 10 -2 5 -5 -5 -10 -13 -10
-18 -1 -5 -2 -13 -3 -19 -2 -16 -21 -12 -28 6 -7 19 33 58 53 50 7 -3 14 0 14
6 0 7 6 3 14 -8 9 -12 11 -23 5 -30z m-349 -5 c0 -11 -24 -16 -49 -10 -23 6
-23 7 -7 24 14 14 20 14 36 4 11 -6 20 -15 20 -18z m2675 11 c-3 -5 1 -10 10
-10 9 0 13 -4 10 -10 -3 -5 -1 -10 4 -10 6 0 11 -7 11 -15 0 -20 -14 -19 -31
1 -17 20 -22 54 -8 54 5 0 7 -4 4 -10z m1495 -50 c0 -11 3 -19 8 -18 4 1 22
-3 40 -9 32 -12 44 -33 18 -33 -8 0 -16 -6 -19 -12 -2 -7 -8 -10 -12 -5 -5 4
0 14 11 21 18 14 18 15 -8 21 -14 4 -35 2 -46 -4 -11 -6 -29 -8 -39 -5 -13 5
-12 2 5 -11 19 -14 26 -15 40 -4 16 12 16 11 2 -4 -15 -16 -18 -16 -53 2 -24
12 -33 21 -25 25 7 3 1 4 -14 2 -32 -4 -34 -1 -13 20 12 12 15 12 15 2 0 -10
2 -10 9 1 5 8 11 9 15 3 3 -5 17 -9 31 -9 20 0 24 3 20 18 -4 11 -2 19 4 19 6
0 11 -9 11 -20z m-400 -65 c0 -8 -5 -15 -12 -15 -6 0 -8 -3 -4 -7 8 -9 35 -15
64 -15 24 0 30 -13 10 -21 -10 -4 -9 -8 2 -16 10 -7 18 -6 27 1 9 7 13 7 13 0
0 -15 -13 -22 -47 -24 -15 -1 -31 -6 -34 -10 -8 -12 -40 2 -33 13 10 16 -8 9
-21 -7 -11 -16 -12 -16 -18 0 -5 11 -3 15 4 10 7 -4 10 -1 7 7 -3 8 -12 13
-22 11 -9 -2 -16 2 -16 8 0 6 5 8 10 5 6 -3 10 -1 10 6 0 8 6 6 18 -4 10 -10
22 -14 25 -10 10 9 9 25 -1 19 -9 -5 -15 42 -6 55 8 14 24 10 24 -6z m-2986
-1 c14 -5 24 -44 12 -44 -15 0 -35 14 -30 21 3 5 0 9 -5 9 -6 0 -11 5 -11 10
0 11 11 13 34 4z m3471 -24 c-3 -5 2 -10 12 -10 15 -1 15 -2 3 -9 -8 -5 -26
-12 -39 -16 -20 -6 -23 -4 -18 9 4 11 1 16 -11 17 -11 0 -12 2 -4 6 7 3 19 -1
27 -7 12 -10 15 -9 15 4 0 9 5 16 11 16 5 0 7 -4 4 -10z m-165 -25 c14 -17 66
-20 75 -5 3 6 14 10 23 9 14 0 13 -2 -3 -9 -19 -8 -19 -9 3 -9 12 -1 22 -6 22
-12 0 -5 4 -8 9 -5 5 4 12 0 14 -6 3 -7 6 -5 6 6 1 11 4 16 8 13 3 -4 12 -2
20 5 9 7 17 8 24 1 12 -12 1 -45 -13 -37 -6 4 -5 10 3 15 7 4 10 11 6 15 -12
12 -28 -11 -21 -30 5 -13 13 -16 30 -12 14 4 24 2 24 -4 0 -5 -8 -10 -19 -10
-10 0 -24 -7 -31 -15 -7 -8 -19 -15 -26 -15 -8 0 -14 -4 -14 -9 0 -16 -38 -19
-58 -5 -17 12 -22 12 -32 -1 -9 -10 -9 -19 1 -36 10 -20 9 -25 -9 -37 -18 -12
-20 -18 -11 -35 10 -18 9 -19 -11 -14 -12 3 -19 3 -16 0 3 -3 -2 -12 -12 -20
-16 -14 -16 -14 1 -9 9 3 17 1 17 -4 0 -5 -16 -9 -36 -8 -30 1 -34 3 -21 13
12 9 7 11 -27 13 -31 1 -43 -2 -43 -13 0 -8 7 -17 14 -19 8 -3 11 -1 8 4 -3 6
1 7 9 4 20 -8 21 -24 2 -24 -8 0 -17 -6 -19 -12 -4 -10 -7 -10 -14 -1 -10 15
-54 6 -52 -11 1 -6 1 -18 0 -26 -1 -13 -2 -13 -11 0 -6 10 -10 11 -10 3 0 -7
-8 -13 -17 -13 -13 0 -14 -3 -5 -12 17 -17 15 -28 -4 -28 -9 0 -12 5 -8 13 5
6 -8 0 -28 -15 -44 -34 -48 -34 -43 -7 3 15 0 19 -11 15 -12 -4 -12 -2 -4 14
9 17 8 20 -9 20 -20 0 -22 24 -4 53 8 12 9 18 12 38 0 6 8 8 17 5 10 -4 14 -1
11 6 -2 7 -11 12 -21 10 -10 -2 -16 4 -16 18 0 23 10 26 28 8 9 -9 12 -7 12
11 0 21 3 23 33 17 17 -4 47 -9 66 -11 18 -1 38 -8 44 -14 15 -15 32 -14 20 2
-6 6 -14 26 -18 42 -10 41 -13 108 -4 93 6 -9 14 -9 35 1 21 9 25 15 15 21
-11 6 -9 10 7 19 25 13 43 15 23 2 -12 -8 -9 -11 12 -16 15 -4 27 -11 27 -17
0 -5 -4 -7 -9 -3 -5 3 -12 1 -15 -4 -3 -5 11 -8 33 -7 26 1 37 5 34 14 -3 6
-8 12 -12 12 -4 0 -13 12 -19 26 -7 14 -8 23 -2 19 5 -3 10 -2 10 4 0 5 -8 15
-17 20 -10 6 -13 11 -7 11 6 0 17 -7 24 -15z m250 -94 c0 -15 -20 -24 -20 -9
-1 9 -5 7 -14 -4 -7 -10 -19 -18 -25 -18 -7 0 -9 -5 -5 -12 5 -7 3 -8 -6 -3
-7 4 -16 2 -21 -6 -4 -7 -11 -10 -15 -7 -8 9 14 31 51 51 34 18 55 21 55 8z
m-466 -43 c-5 -7 -1 -9 9 -5 11 4 14 2 10 -9 -3 -8 -12 -13 -20 -9 -10 3 -13
1 -10 -9 7 -19 -16 -15 -37 6 -23 24 -21 41 3 28 26 -14 31 -13 31 6 0 8 5 12
10 9 6 -4 7 -11 4 -17z m624 5 c-2 -12 -14 -18 -35 -19 -18 -1 -45 -4 -60 -8
l-28 -6 25 14 c14 8 28 12 32 10 5 -3 18 2 30 10 29 21 40 20 36 -1z m-277
-33 c5 0 9 -4 9 -10 0 -5 -7 -10 -15 -10 -8 0 -14 6 -12 13 1 7 -7 11 -18 10
l-20 -2 20 15 c18 13 20 13 23 0 2 -9 8 -16 13 -16z m-552 -31 c6 -18 11 -33
11 -33 0 -1 -12 -1 -27 0 -26 1 -49 34 -24 34 6 0 11 7 11 15 0 26 18 16 29
-16z m701 21 c0 -5 -7 -7 -15 -4 -8 4 -15 1 -15 -4 0 -13 60 -6 74 8 5 5 15
10 21 10 5 0 3 -5 -5 -10 -13 -9 -13 -10 0 -10 12 -1 11 -3 -3 -11 -9 -5 -22
-7 -27 -4 -6 3 -15 3 -21 -1 -8 -4 -7 -9 2 -15 10 -6 11 -9 2 -9 -21 0 -15
-37 7 -43 17 -4 20 -2 15 13 -9 29 11 32 29 5 11 -16 22 -22 34 -19 14 5 14 4
3 -4 -10 -7 -21 -7 -35 0 -20 10 -20 10 -5 -8 8 -10 14 -25 13 -31 -1 -7 -2
-17 -3 -22 0 -5 -9 -7 -20 -4 -10 3 -22 0 -25 -6 -5 -8 -13 -8 -27 0 -11 5
-25 8 -32 5 -7 -2 -4 -5 6 -5 9 -1 17 -8 17 -17 0 -9 5 -14 12 -12 6 2 27 -11
47 -29 20 -18 38 -28 39 -23 2 6 8 8 12 5 5 -3 11 -1 15 5 3 5 -3 10 -14 10
-14 0 -19 5 -14 16 5 13 9 12 28 -6 12 -12 32 -22 43 -23 22 -1 20 -17 -3 -17
-7 0 -15 -7 -19 -15 -3 -8 -1 -15 5 -15 6 0 7 -5 4 -10 -5 -8 -11 -8 -20 0
-10 9 -14 7 -17 -9 -2 -16 -7 -18 -18 -11 -13 9 -13 11 0 20 13 8 13 10 1 10
-8 0 -25 10 -38 22 -25 23 -21 23 -98 -8 -17 -7 -18 -5 -8 7 11 13 9 15 -10
14 -12 -2 -21 -7 -20 -13 2 -6 -7 -16 -18 -23 -17 -9 -20 -8 -16 3 2 7 -2 21
-11 31 -17 20 -9 35 11 19 10 -8 13 -7 13 7 0 15 -6 16 -38 11 -21 -4 -38 -3
-38 1 0 9 15 13 38 10 6 -1 12 3 12 9 0 20 -40 9 -56 -16 -12 -18 -20 -22 -28
-14 -12 12 -15 70 -3 70 4 0 7 5 7 11 0 5 -4 7 -10 4 -18 -11 -11 23 8 37 21
16 22 55 2 68 -10 6 -11 10 -3 10 7 0 18 -9 25 -20 15 -23 28 -26 28 -6 0 21
21 31 31 15 7 -12 9 -12 9 0 0 9 8 11 26 7 30 -8 64 -36 43 -36 -7 0 -10 -3
-6 -6 3 -3 11 -3 16 1 8 4 6 13 -4 28 -20 28 -19 44 3 50 30 8 42 7 42 -3z
m-744 -65 c23 -34 7 -52 -18 -20 -11 14 -23 23 -26 20 -4 -3 0 -10 8 -15 12
-8 13 -13 2 -30 -7 -12 -8 -20 -2 -20 5 0 10 5 10 11 0 6 7 8 16 5 9 -4 23 -1
30 5 10 8 19 6 38 -9 l25 -19 -32 0 c-26 -1 -28 1 -12 7 19 8 19 9 -3 9 -12 1
-25 -6 -28 -14 -4 -8 -10 -15 -16 -15 -5 0 -6 5 -2 11 4 7 -1 7 -16 -1 -27
-14 -38 -5 -23 19 7 11 8 23 1 35 -6 12 -6 22 2 32 17 20 27 18 46 -11z
m-2847 -56 c11 -33 0 -37 -44 -17 -29 13 -31 21 -10 42 21 20 41 11 54 -25z
m2957 -34 c-8 -21 3 -45 21 -45 8 0 11 -4 8 -10 -10 -16 -23 -12 -30 10 -3 11
-13 20 -21 20 -17 0 -18 7 -1 25 16 19 31 19 23 0z m-151 -38 c1 -14 -2 -24
-7 -21 -4 3 -8 12 -8 20 0 8 -4 14 -10 14 -5 0 -10 4 -10 9 0 5 8 8 17 7 11
-2 18 -13 18 -29z m963 18 c-2 -2 -7 -4 -13 -5 -5 -1 -20 -6 -32 -11 -13 -5
-25 -4 -28 1 -4 6 3 10 14 10 11 0 22 4 26 10 3 5 12 7 21 3 8 -3 14 -7 12 -8z
m-612 -30 c-3 -8 -1 -15 4 -15 6 0 10 6 11 13 0 6 5 1 11 -13 18 -41 17 -50
-3 -50 -11 0 -17 5 -14 10 3 6 2 10 -3 10 -6 0 -12 -7 -16 -15 -8 -22 -25 -18
-23 5 1 11 8 20 17 21 10 0 11 2 3 6 -9 3 -10 10 -3 24 13 22 25 26 16 4z m39
-85 c3 -5 -2 -10 -12 -10 -15 0 -16 -2 -3 -10 13 -8 12 -10 -2 -10 -10 0 -18
4 -18 10 0 5 -7 7 -15 4 -15 -6 -21 7 -8 19 10 11 51 8 58 -3z m781 -155 c-11
-8 -16 -15 -10 -15 5 0 10 -11 10 -24 1 -17 -3 -23 -11 -19 -8 2 -12 16 -10
31 2 15 4 30 4 35 1 4 9 7 19 7 15 -1 15 -2 -2 -15z m-57 -32 c-11 -13 -11
-17 -1 -20 19 -7 14 -23 -7 -23 -29 0 -36 18 -15 41 21 23 42 26 23 2z m-406
-95 c3 -10 7 -10 20 0 17 14 41 7 31 -9 -3 -5 -10 -6 -16 -3 -6 4 -14 1 -18
-6 -7 -11 -11 -10 -24 3 -18 18 -20 27 -7 27 5 0 11 -6 14 -12z m740 -79 c19
-33 14 -56 -7 -36 -8 6 -12 15 -9 20 2 4 -3 7 -11 7 -16 0 -22 21 -9 33 11 12
18 8 36 -24z m-245 -187 c4 -26 -10 -29 -28 -6 -8 8 -9 14 -4 13 21 -4 28 2
14 12 -13 9 -13 10 0 6 8 -2 16 -13 18 -25z"/>
<path d="M3970 2145 c0 -18 24 -20 38 -2 8 10 5 13 -14 15 -15 1 -24 -3 -24
-13z"/>
<path d="M2940 1933 c0 -7 -6 -13 -14 -13 -7 0 -16 -9 -19 -19 -3 -13 0 -18 8
-15 7 3 16 0 20 -5 7 -13 25 -5 25 11 0 5 -7 8 -15 5 -8 -4 -17 -2 -20 3 -4 6
2 10 12 10 19 1 64 30 46 30 -7 0 -15 -5 -19 -11 -4 -8 -9 -7 -15 2 -6 10 -9
11 -9 2z"/>
<path d="M3127 1908 c3 -13 6 -30 6 -39 1 -9 7 -15 14 -12 10 4 10 10 1 26 -7
12 -11 28 -10 35 2 6 -2 12 -7 12 -5 0 -7 -10 -4 -22z"/>
<path d="M3155 1840 c-3 -5 -3 -10 1 -10 4 0 -3 -11 -15 -24 -22 -23 -22 -23
-2 -29 12 -3 24 -1 27 4 3 5 2 9 -3 8 -20 -3 -24 2 -12 17 12 15 21 44 14 44
-2 0 -7 -4 -10 -10z"/>
<path d="M3244 1593 c-15 -21 -33 -41 -38 -45 -6 -4 -1 -6 12 -5 12 0 22 7 22
14 0 7 5 13 12 13 6 0 8 3 5 7 -4 3 0 15 10 25 9 10 14 20 11 23 -3 3 -18 -11
-34 -32z"/>
<path d="M3497 1531 c6 -23 -15 -38 -23 -17 -3 9 -10 16 -15 16 -6 0 -5 -9 1
-21 7 -11 9 -23 6 -27 -3 -3 -6 1 -6 8 0 10 -3 11 -10 4 -14 -14 -5 -35 24
-56 22 -16 24 -16 44 2 15 14 22 16 26 7 3 -9 7 -8 15 2 12 19 -4 51 -25 51
-9 0 -14 6 -11 13 3 7 -3 18 -13 25 -15 9 -17 8 -13 -7z m30 -39 c8 -5 4 -15
-12 -34 -17 -19 -26 -23 -34 -15 -6 6 -11 16 -11 22 0 5 5 3 10 -5 8 -13 11
-13 27 3 11 10 13 17 5 17 -7 0 -12 5 -12 10 0 12 10 13 27 2z"/>
<path d="M3587 1458 c-6 -18 13 -42 38 -46 18 -4 18 -2 -3 16 -13 11 -23 23
-22 27 3 13 -8 15 -13 3z"/>
<path d="M4054 1395 c-2 -20 3 -24 20 -23 13 1 23 8 23 15 0 9 -4 10 -14 2
-10 -9 -13 -7 -13 10 0 30 -15 26 -16 -4z"/>
<path d="M6055 1451 c-10 -10 -4 -21 11 -21 14 0 15 -2 3 -17 -12 -16 -12 -17
2 -6 9 7 18 11 20 9 2 -2 4 6 4 18 0 20 -27 31 -40 17z"/>
<path d="M4526 1359 c-21 -36 -14 -49 14 -24 11 10 20 14 21 9 0 -5 4 0 8 11
5 12 4 23 -3 27 -17 12 -21 10 -40 -23z"/>
<path d="M4440 1330 c0 -11 -4 -20 -10 -20 -5 0 -10 -4 -10 -10 0 -5 7 -10 15
-10 19 0 19 -10 0 -24 -14 -10 -14 -13 0 -34 9 -12 22 -22 28 -21 9 0 9 2 0 6
-18 7 -16 20 3 27 10 4 13 2 8 -6 -5 -7 -3 -8 5 -3 8 4 10 17 7 31 -5 17 -2
24 8 24 8 0 18 5 22 11 9 15 -38 1 -49 -15 -5 -6 -7 6 -5 27 3 25 0 37 -9 37
-7 0 -13 -9 -13 -20z"/>
<path d="M5340 1318 c0 -9 4 -28 9 -42 7 -17 6 -26 -2 -30 -9 -5 -9 -7 0 -12
7 -3 9 -12 7 -19 -5 -11 0 -12 25 -5 18 5 31 5 31 0 0 -5 7 -7 15 -4 20 8 19
30 -1 38 -15 6 -15 8 1 26 20 22 12 40 -18 40 -18 0 -19 -2 -7 -11 12 -8 10
-9 -10 -7 -14 2 -30 12 -37 23 -10 17 -12 17 -13 3z"/>
<path d="M5958 1273 c-10 -2 -18 -11 -18 -18 0 -9 -6 -12 -15 -9 -10 4 -15 0
-15 -14 0 -19 0 -19 40 0 39 20 56 36 24 24 -14 -5 -15 -4 -4 9 7 8 11 14 9
14 -2 -1 -12 -3 -21 -6z"/>
<path d="M5453 1225 c0 -10 8 -13 24 -9 19 5 22 3 17 -12 -3 -11 -2 -15 3 -8
4 6 15 14 23 17 12 4 11 6 -3 6 -10 1 -16 5 -13 9 3 5 -7 9 -23 10 -17 0 -28
-5 -28 -13z"/>
<path d="M5097 1183 c-4 -3 -7 -17 -7 -29 0 -14 -8 -25 -20 -29 -11 -3 -20
-11 -20 -16 0 -6 -4 -8 -9 -5 -5 4 -8 -1 -7 -10 3 -18 36 -41 36 -26 0 5 9 12
21 15 12 3 18 10 14 16 -3 6 -1 11 5 11 7 0 8 6 1 18 -6 10 -7 28 -4 40 5 22
2 28 -10 15z"/>
<path d="M6051 1099 c-18 -21 -40 -39 -48 -39 -8 0 -11 -5 -8 -12 4 -7 -1 -4
-9 6 -9 11 -16 18 -17 15 -4 -26 -2 -72 3 -76 5 -2 18 3 29 11 14 9 29 12 43
7 11 -5 26 -6 33 -4 6 2 25 -2 40 -11 21 -10 33 -12 44 -4 11 8 11 9 -3 5 -18
-6 -53 26 -44 41 3 5 -8 12 -25 16 -27 5 -30 8 -19 21 7 8 9 15 4 15 -5 0 0 7
10 15 11 8 16 15 10 15 -5 0 -2 5 6 10 13 9 13 10 0 9 -8 0 -30 -18 -49 -40z"/>
<path d="M5070 1037 c0 -8 10 -22 23 -33 12 -10 16 -12 10 -4 -7 8 -13 18 -13
23 0 4 6 5 13 1 8 -5 8 -2 -2 9 -16 20 -31 22 -31 4z"/>
<path d="M6350 849 c0 -7 -11 -9 -27 -5 -16 3 -22 3 -15 0 6 -3 10 -10 6 -15
-3 -5 0 -9 5 -9 6 0 11 -4 11 -8 0 -4 -12 -8 -27 -7 -14 0 -27 -6 -29 -13 -1
-7 0 -8 3 -2 7 15 43 12 49 -5 9 -22 34 0 34 29 0 12 5 27 12 34 9 9 8 12 -5
12 -9 0 -17 -5 -17 -11z"/>
</g>
</svg>
