<?xml version="1.0" standalone="no"?>
<!DOCTYPE svg PUBLIC "-//W3C//DTD SVG 20010904//EN"
 "http://www.w3.org/TR/2001/REC-SVG-20010904/DTD/svg10.dtd">
<svg version="1.0" xmlns="http://www.w3.org/2000/svg"
 width="500.000000pt" height="389.000000pt" viewBox="0 0 500.000000 389.000000"
 preserveAspectRatio="xMidYMid meet">

<g transform="translate(0.000000,389.000000) scale(0.100000,-0.100000)"
fill="#000000" stroke="none">
<path d="M6 3864 c-12 -47 -4 -794 8 -794 6 0 4 -5 -4 -10 -10 -6 -11 -10 -3
-10 14 0 13 -21 -1 -32 -5 -3 -2 -14 7 -23 19 -18 23 -45 7 -45 -5 0 -7 6 -4
14 3 8 1 17 -5 21 -20 12 -12 -46 11 -78 12 -17 23 -44 24 -59 2 -28 2 -29
-22 -13 l-24 15 0 -49 c0 -53 9 -61 73 -61 27 0 87 -25 87 -36 0 -2 -12 -3
-27 0 -16 2 -32 5 -36 5 -5 1 -5 6 -2 11 4 6 -6 10 -22 10 -15 0 -38 3 -50 6
l-23 6 0 -195 c0 -147 3 -197 13 -200 9 -4 9 -6 0 -6 -10 -1 -13 -58 -13 -251
l0 -250 35 0 c24 0 35 -5 35 -15 0 -10 -10 -15 -34 -15 l-35 0 0 -905 0 -906
142 3 142 3 0 25 c0 18 6 26 23 28 16 3 22 -2 22 -17 0 -11 -8 -25 -18 -30
-12 -7 107 -10 385 -11 374 0 402 1 406 18 4 16 5 16 6 0 1 -16 16 -18 156
-17 154 0 155 0 171 25 9 13 19 22 22 19 3 -3 -3 -14 -13 -25 l-18 -20 1125 0
c1117 0 1126 0 1131 20 3 12 13 20 24 19 16 -1 16 -2 1 -6 -22 -6 -24 -33 -3
-33 9 0 25 9 37 20 27 25 38 25 38 0 0 -20 7 -20 610 -20 l610 0 0 163 0 164
-37 16 c-21 9 -45 18 -53 21 -8 4 3 4 25 1 22 -2 41 -9 43 -15 2 -5 8 -10 13
-10 14 0 11 28 -3 33 -10 4 -10 6 0 6 9 1 12 39 12 154 l0 153 -32 17 c-20 9
-26 16 -16 16 9 1 20 -3 23 -9 19 -31 24 13 25 224 0 180 -3 235 -12 239 -10
4 -10 6 0 6 9 1 12 130 12 610 0 572 -1 610 -17 614 -17 4 -17 5 0 6 15 1 17
12 17 93 l0 92 -42 -39 c-29 -27 -35 -31 -18 -10 14 16 33 36 43 43 16 12 17
56 17 658 l0 644 -185 0 c-162 -1 -186 -3 -196 -18 -10 -16 -10 -16 -5 1 5 15
-3 17 -71 17 -70 0 -80 -3 -107 -27 l-31 -28 24 28 25 27 -587 0 c-402 -1
-585 -5 -581 -12 4 -7 0 -7 -13 1 -14 7 -258 9 -759 8 l-739 -2 -7 -35 -7 -35
3 37 2 38 -305 -1 c-222 0 -309 -3 -320 -12 -12 -9 -13 -9 -7 1 6 9 -28 12
-153 12 l-161 0 0 -24 c0 -54 -66 -59 -77 -6 l-5 28 -363 1 -363 1 -6 -26z
m4845 -15 c-5 -13 -10 -18 -10 -11 -1 8 -6 10 -13 6 -7 -4 -4 2 7 13 25 25 28
23 16 -8z m-3953 1 c-7 -10 -14 -17 -17 -15 -4 4 18 35 25 35 2 0 -1 -9 -8
-20z m3898 0 c8 0 14 -4 14 -9 0 -5 -16 -5 -37 0 -24 5 -40 4 -44 -3 -4 -7 -9
-7 -13 1 -9 14 18 25 39 17 8 -3 15 0 16 7 0 9 2 9 6 0 2 -7 11 -13 19 -13z
m-3806 0 c0 -5 -2 -10 -4 -10 -3 0 -8 5 -11 10 -3 6 -1 10 4 10 6 0 11 -4 11
-10z m34 -5 c-4 -8 -8 -15 -10 -15 -2 0 -4 7 -4 15 0 8 4 15 10 15 5 0 7 -7 4
-15z m3676 7 c0 -4 -16 -7 -36 -8 -22 0 -30 2 -22 7 16 11 58 12 58 1z m185
-2 c-3 -5 -11 -10 -16 -10 -6 0 -7 5 -4 10 3 6 11 10 16 10 6 0 7 -4 4 -10z
m-3720 -10 c3 -6 -1 -7 -9 -4 -18 7 -21 14 -7 14 6 0 13 -4 16 -10z m585 -68
c0 -5 -7 -17 -15 -28 -14 -18 -14 -17 -4 9 12 27 19 34 19 19z m1837 -54 c-2
-13 -4 -3 -4 22 0 25 2 35 4 23 2 -13 2 -33 0 -45z m-3020 0 c-2 -13 -4 -5 -4
17 -1 22 1 32 4 23 2 -10 2 -28 0 -40z m3861 13 c-2 -9 -15 -17 -31 -19 -21
-3 -27 1 -27 17 0 20 24 31 48 23 7 -3 12 -12 10 -21z m-746 -13 c-2 -11 -5
-17 -6 -16 -1 2 -7 11 -15 20 -11 15 -10 17 7 15 13 -1 18 -7 14 -19z m57 0
c-1 -21 -2 -21 -7 -3 l-5 20 -8 -20 c-7 -19 -8 -19 -8 3 -1 13 5 22 14 22 9 0
15 -9 14 -22z m61 19 c0 -2 -10 -12 -22 -23 l-23 -19 19 23 c18 21 26 27 26
19z m-1646 -49 c8 -6 7 -8 -1 -8 -7 0 -13 -8 -14 -17 -1 -10 -5 -2 -9 17 -5
19 -5 39 -2 45 4 5 8 1 10 -10 3 -11 9 -23 16 -27z m85 7 c11 -19 16 -37 12
-39 -6 -4 -41 54 -41 69 0 12 10 2 29 -30z m50 -12 l-1 -48 -8 40 c-7 37 -5
55 6 55 2 0 3 -21 3 -47z m48 -15 c-2 -13 -4 -3 -4 22 0 25 2 35 4 23 2 -13 2
-33 0 -45z m88 22 c21 -22 35 -40 29 -40 -5 0 -28 18 -49 40 -21 22 -35 40
-29 40 5 0 28 -18 49 -40z m32 18 c-3 -8 -6 -5 -6 6 -1 11 2 17 5 13 3 -3 4
-12 1 -19z m50 -45 c-2 -16 -4 -5 -4 22 0 28 2 40 4 28 2 -13 2 -35 0 -50z
m-482 22 c0 -37 -9 -46 -19 -19 -7 18 1 54 12 54 4 0 7 -16 7 -35z m59 -20
c-4 -8 -10 -15 -15 -15 -4 0 -6 7 -3 15 4 8 10 15 15 15 4 0 6 -7 3 -15z
m-1527 -17 c-3 -8 -6 -5 -6 6 -1 11 2 17 5 13 3 -3 4 -12 1 -19z m923 -4 c0
-14 -21 -19 -33 -7 -9 9 13 34 24 27 5 -3 9 -12 9 -20z m-640 -10 c0 -17 -26
-19 -36 -3 -7 12 15 31 28 23 4 -3 8 -12 8 -20z m1770 12 c0 -2 -7 -9 -15 -16
-13 -11 -14 -10 -9 4 5 14 24 23 24 12z m-2063 -48 c-3 -8 -6 -5 -6 6 -1 11 2
17 5 13 3 -3 4 -12 1 -19z m1986 15 c-13 -2 -33 -2 -45 0 -13 2 -3 4 22 4 25
0 35 -2 23 -4z m-1198 -13 c3 -6 -1 -7 -9 -4 -18 7 -21 14 -7 14 6 0 13 -4 16
-10z m1096 -4 c-11 -13 -51 -29 -51 -20 0 3 51 33 59 34 2 0 -2 -6 -8 -14z
m-985 -32 c2 -28 2 -28 -3 -2 -3 20 -8 25 -20 21 -11 -4 -14 -3 -9 6 13 20 31
6 32 -25z m101 30 c-3 -3 -12 -4 -19 -1 -8 3 -5 6 6 6 11 1 17 -2 13 -5z m757
-25 c-3 -5 -16 -8 -29 -7 -23 2 -23 4 -8 20 12 14 19 15 29 7 8 -6 11 -15 8
-20z m-940 13 c3 -5 -1 -9 -9 -9 -8 0 -12 4 -9 9 3 4 7 8 9 8 2 0 6 -4 9 -8z
m726 -17 c0 -2 -10 -9 -22 -15 -22 -11 -22 -10 -4 4 21 17 26 19 26 11z
m-1553 -52 c-3 -10 -5 -2 -5 17 0 19 2 27 5 18 2 -10 2 -26 0 -35z m4033 32
c26 -32 -13 -81 -47 -59 -35 22 -23 74 17 74 10 0 23 -7 30 -15z m-945 -45
c21 -22 37 -40 34 -40 -3 0 -23 18 -44 40 -21 22 -37 40 -34 40 3 0 23 -18 44
-40z m-3489 -1 c10 -17 -13 -36 -27 -22 -12 12 -4 33 11 33 5 0 12 -5 16 -11z
m2535 -9 c-13 -11 -28 -20 -33 -20 -6 0 0 9 13 20 13 10 29 19 34 19 6 0 -1
-9 -14 -19z m2094 -28 c-6 -7 -32 11 -44 30 -12 20 -11 20 17 -3 16 -13 28
-25 27 -27z m-4683 -21 c-4 -10 -1 -12 8 -6 9 5 11 4 6 -3 -4 -7 -21 -12 -38
-12 -27 0 -29 -2 -17 -17 13 -15 12 -15 -8 -4 -13 6 -23 16 -23 22 0 6 5 7 11
4 6 -4 10 -1 9 6 -1 8 1 24 5 36 7 21 8 22 30 5 12 -9 20 -23 17 -31z m2531
22 c-7 -2 -19 -2 -25 0 -7 3 -2 5 12 5 14 0 19 -2 13 -5z m2207 -128 c-23 -66
-38 -106 -35 -90 7 42 69 228 72 218 1 -4 -15 -62 -37 -128z m-4280 115 c0 -5
-5 -10 -11 -10 -5 0 -7 5 -4 10 3 6 8 10 11 10 2 0 4 -4 4 -10z m865 -17 c-3
-16 -9 -41 -15 -58 -8 -25 -8 -21 -3 20 3 28 7 53 10 58 9 15 13 6 8 -20z
m2235 13 c0 -20 -19 -31 -32 -18 -6 6 -7 15 -4 21 10 16 36 13 36 -3z m-1557
-31 c1 -5 -6 -11 -15 -13 -11 -2 -18 3 -18 13 0 17 30 18 33 0z m357 -4 c-19
-10 -55 -21 -80 -25 -40 -5 -38 -4 18 13 34 10 66 21 69 25 3 3 11 6 17 6 6
-1 -5 -9 -24 -19z m-297 2 c-7 -2 -21 -2 -30 0 -10 3 -4 5 12 5 17 0 24 -2 18
-5z m-1606 -60 c-3 -10 -5 -2 -5 17 0 19 2 27 5 18 2 -10 2 -26 0 -35z m801
16 c-6 -16 -12 -28 -14 -26 -5 5 13 57 20 57 3 0 0 -14 -6 -31z m-1263 -3 c10
4 12 0 8 -15 -5 -21 -23 -30 -23 -12 0 5 -2 15 -3 23 -2 7 -2 10 0 6 2 -4 10
-5 18 -2z m1877 -13 c-15 -22 -19 -42 -17 -88 2 -33 -2 -65 -7 -72 -5 -7 -6
-18 -2 -25 4 -7 4 -10 -1 -6 -4 4 -16 -3 -27 -15 -11 -12 -17 -17 -14 -10 4 6
2 14 -2 17 -5 3 -9 -7 -8 -22 1 -20 -3 -26 -16 -24 -12 2 -31 -17 -58 -59 -22
-34 -40 -66 -40 -71 0 -4 -5 -8 -11 -8 -7 0 -4 11 7 28 76 116 114 186 109
203 -5 14 -1 19 11 19 16 0 16 1 -1 20 -15 17 -16 20 -3 25 11 5 14 19 12 58
l-3 52 10 -43 c6 -23 14 -40 20 -37 5 4 9 11 9 17 0 11 39 68 46 68 3 0 -3
-12 -14 -27z m-1313 -19 c12 -11 -12 -31 -38 -32 -34 -1 -46 11 -37 34 5 12
14 14 38 9 18 -4 35 -9 37 -11z m-192 -10 c-3 -3 -12 -4 -19 -1 -8 3 -5 6 6 6
11 1 17 -2 13 -5z m858 -33 c-21 -43 -29 -39 -8 4 9 19 18 33 21 31 2 -2 -4
-18 -13 -35z m752 33 c-3 -3 -12 -4 -19 -1 -8 3 -5 6 6 6 11 1 17 -2 13 -5z
m575 -28 c17 11 -1 -16 -39 -57 -36 -39 -78 -55 -163 -63 -50 -5 -48 -4 17 8
39 8 80 19 91 25 33 17 72 71 73 99 2 24 2 24 6 4 3 -13 9 -19 15 -16z m-2302
-1 c-46 -18 -64 -17 -25 0 17 8 37 14 45 14 8 0 -1 -7 -20 -14z m217 -17 c-3
-7 -5 -2 -5 12 0 14 2 19 5 13 2 -7 2 -19 0 -25z m1626 0 c18 -18 24 -26 13
-17 -12 9 -34 24 -51 32 -20 11 -24 16 -12 17 9 0 32 -15 50 -32z m-1723 12
c0 -5 -8 -10 -17 -10 -15 0 -16 2 -3 10 19 12 20 12 20 0z m-340 -28 c-7 -3
-19 3 -28 13 -16 15 -15 16 12 4 15 -7 23 -15 16 -17z m2666 7 c10 -17 -13
-36 -27 -22 -12 12 -4 33 11 33 5 0 12 -5 16 -11z m-2695 -36 c13 -16 12 -17
-3 -4 -10 7 -18 15 -18 17 0 8 8 3 21 -13z m2794 7 c-3 -5 -18 -10 -33 -10
-33 0 -112 -35 -112 -50 0 -5 -5 -10 -12 -10 -19 0 22 38 66 59 43 22 102 29
91 11z m1642 4 c-3 -3 -12 -4 -19 -1 -8 3 -5 6 6 6 11 1 17 -2 13 -5z m-3266
-41 c-12 -20 -14 -14 -5 12 4 9 9 14 11 11 3 -2 0 -13 -6 -23z m1450 14 c-13
-6 -29 -21 -35 -32 -15 -28 -29 -36 -41 -24 -14 14 48 69 78 69 22 0 22 0 -2
-13z m-1374 -19 c-3 -8 -6 -5 -6 6 -1 11 2 17 5 13 3 -3 4 -12 1 -19z m981 8
c8 -4 26 -12 40 -16 23 -7 21 -8 -13 -6 -35 3 -95 20 -95 28 0 7 56 2 68 -6z
m2122 0 c0 -3 -4 -8 -10 -11 -5 -3 -10 -1 -10 4 0 6 5 11 10 11 6 0 10 -2 10
-4z m-4303 -34 c14 11 15 11 11 -2 -7 -22 -42 -19 -46 5 -3 19 -2 19 8 2 10
-15 14 -16 27 -5z m4127 -13 c-8 -14 -34 -11 -34 4 0 8 3 17 7 20 9 9 34 -13
27 -24z m-3470 -8 c3 -5 -3 -19 -13 -32 -16 -20 -21 -21 -35 -10 -32 27 -10
79 25 60 10 -5 20 -13 23 -18z m166 25 c0 -2 -7 -7 -16 -10 -8 -3 -12 -2 -9 4
6 10 25 14 25 6z m261 -29 c-10 -9 -11 -8 -5 6 3 10 9 15 12 12 3 -3 0 -11 -7
-18z m-1015 -14 c-6 -6 -36 9 -36 18 0 5 9 4 20 -3 10 -7 18 -14 16 -15z m430
16 c9 -16 -12 -33 -31 -25 -14 5 -15 9 -5 21 15 18 26 19 36 4z m1994 -12 c0
-7 -7 -22 -15 -33 -13 -17 -14 -16 -4 14 11 33 19 41 19 19z m1390 9 c0 -2
-13 -20 -30 -41 -16 -21 -30 -35 -30 -31 0 7 52 76 58 76 1 0 2 -2 2 -4z
m-3645 -16 c-3 -5 -39 -9 -78 -8 l-72 2 70 6 c39 4 74 7 78 8 5 1 5 -2 2 -8z
m1042 -12 c-3 -8 -6 -5 -6 6 -1 11 2 17 5 13 3 -3 4 -12 1 -19z m2927 -3 c-4
-9 -15 -20 -25 -26 -11 -5 -19 -19 -19 -29 0 -11 -4 -20 -10 -20 -12 0 -1 28
25 63 22 29 38 36 29 12z m-3054 -20 c-7 -8 -17 -15 -23 -15 -6 0 -2 8 9 19
22 21 33 19 14 -4z m-580 -20 c0 -5 -5 -3 -10 5 -5 8 -10 20 -10 25 0 6 5 3
10 -5 5 -8 10 -19 10 -25z m4057 3 c-3 -7 -5 -2 -5 12 0 14 2 19 5 13 2 -7 2
-19 0 -25z m-1882 3 c-3 -5 -20 -13 -38 -16 -35 -8 -69 -42 -91 -92 -15 -34
-16 -50 -2 -72 6 -10 5 -12 -2 -7 -24 15 -11 -10 18 -36 17 -15 25 -28 19 -30
-7 -2 3 -12 22 -21 19 -9 30 -17 24 -17 -5 0 5 -8 23 -17 19 -9 31 -21 28 -29
-3 -7 6 -15 20 -18 15 -4 22 -11 18 -18 -5 -7 2 -9 20 -6 18 4 26 1 26 -8 0
-8 5 -14 10 -14 6 0 9 -5 8 -12 -2 -6 6 -14 18 -17 16 -5 21 -13 20 -39 -1
-25 3 -32 19 -33 18 0 18 -1 -2 -9 -16 -7 -21 -14 -16 -26 5 -12 3 -15 -6 -9
-7 4 -11 19 -9 34 2 15 -1 32 -6 38 -6 6 -19 21 -28 35 -17 23 -87 41 -73 18
3 -6 -4 -10 -17 -10 -20 -1 -21 -2 -5 -11 9 -5 17 -16 17 -23 0 -8 14 -16 30
-19 23 -5 30 -12 30 -29 -1 -21 -2 -21 -11 -5 -10 18 -29 15 -29 -5 0 -6 3 -9
6 -5 4 3 13 -1 21 -9 9 -8 28 -18 44 -21 16 -3 26 -9 23 -14 -3 -5 0 -9 7 -9
7 0 10 -3 6 -6 -3 -4 -38 10 -77 30 -82 41 -80 41 -80 22 0 -7 -7 -19 -15 -26
-12 -10 -18 -10 -30 0 -17 14 -3 40 21 40 25 0 15 15 -22 35 -36 19 -36 19
-50 0 -8 -11 -12 -26 -9 -33 3 -8 -3 -16 -15 -19 -11 -3 -20 -9 -20 -14 0 -5
-9 -4 -20 3 -25 16 -25 24 -1 74 14 27 16 43 9 51 -6 7 -8 18 -5 25 4 12 77
38 119 43 35 4 32 17 -14 56 -99 84 -114 160 -48 247 34 45 42 49 113 61 5 0
6 -3 2 -8z m-278 -79 c-7 -8 -6 -22 2 -39 13 -28 6 -46 -9 -23 -10 16 -11 93
-2 125 5 16 7 12 12 -15 3 -19 2 -41 -3 -48z m1743 64 c0 -2 -8 -10 -17 -17
-16 -13 -17 -12 -4 4 13 16 21 21 21 13z m-1680 -21 c0 -8 -6 -15 -14 -15 -17
0 -28 14 -19 24 12 12 33 6 33 -9z m-2150 -5 c0 -5 -5 -10 -11 -10 -5 0 -7 5
-4 10 3 6 8 10 11 10 2 0 4 -4 4 -10z m408 -15 c16 -34 15 -56 -1 -30 -6 11
-12 22 -12 25 0 3 -4 11 -8 18 -5 6 -4 12 1 12 5 0 14 -11 20 -25z m49 -37
c-3 -7 -5 -2 -5 12 0 14 2 19 5 13 2 -7 2 -19 0 -25z m20 0 c-3 -7 -5 -2 -5
12 0 14 2 19 5 13 2 -7 2 -19 0 -25z m30 0 c-3 -7 -5 -2 -5 12 0 14 2 19 5 13
2 -7 2 -19 0 -25z m133 12 c0 -12 -7 -20 -16 -20 -13 0 -14 3 -5 13 6 8 8 17
4 20 -3 4 -1 7 5 7 7 0 12 -9 12 -20z m-93 -12 c-3 -8 -6 -5 -6 6 -1 11 2 17
5 13 3 -3 4 -12 1 -19z m1790 -4 c1 -19 -5 -28 -19 -32 -11 -2 -17 -10 -14
-18 3 -8 1 -14 -5 -14 -15 0 -2 50 18 73 9 9 17 17 17 17 1 0 2 -12 3 -26z
m-2341 -50 c0 -53 -2 -63 -12 -50 -6 10 -18 14 -28 10 -9 -3 -16 -1 -16 5 0 6
7 11 15 11 9 0 15 9 15 25 0 19 18 65 26 65 0 0 0 -30 0 -66z m3498 26 c4 -25
3 -31 -4 -20 -5 8 -10 26 -10 39 0 32 6 24 14 -19z m296 31 c0 -5 -9 -7 -20
-4 -11 3 -20 7 -20 9 0 2 9 4 20 4 11 0 20 -4 20 -9z m-3202 -19 c-10 -2 -18
-8 -18 -14 0 -6 -2 -9 -5 -6 -12 12 7 37 23 30 16 -6 15 -7 0 -10z m3639 -4
c-3 -8 -6 -5 -6 6 -1 11 2 17 5 13 3 -3 4 -12 1 -19z m-4425 -20 c-35 -22 -76
-15 -43 8 11 8 27 11 37 7 12 -4 15 -3 10 5 -5 8 -2 10 9 5 14 -5 11 -9 -13
-25z m1388 8 c0 -8 -5 -16 -11 -18 -9 -3 -9 -10 0 -26 7 -12 9 -28 5 -34 -5
-7 -3 -8 6 -3 10 6 12 4 6 -11 -4 -10 -4 -15 0 -11 7 7 38 -30 40 -48 0 -5 2
-19 3 -30 2 -12 5 -15 8 -7 4 10 9 9 24 -4 10 -9 16 -21 13 -26 -6 -10 61 -78
77 -78 5 0 9 -5 9 -12 0 -6 10 -22 22 -35 18 -19 32 -23 92 -24 39 -1 59 -4
44 -6 -29 -4 -39 -23 -13 -23 8 0 15 -6 15 -14 0 -8 9 -17 19 -21 11 -3 22
-12 25 -20 3 -8 11 -15 19 -15 26 0 58 -45 53 -75 -7 -35 9 -65 34 -65 23 0
36 -18 22 -32 -6 -6 -8 -24 -5 -39 5 -25 2 -29 -16 -29 -11 0 -21 -4 -21 -10
0 -5 4 -10 8 -10 5 0 9 -14 10 -32 0 -20 -2 -27 -7 -19 -10 15 -51 6 -51 -11
0 -5 6 -8 14 -5 11 4 13 -1 10 -18 -3 -16 1 -24 13 -27 15 -3 15 -4 -1 -20
-10 -10 -14 -18 -9 -18 4 0 2 -4 -6 -9 -19 -12 -43 -2 -37 15 3 8 1 14 -4 14
-6 0 -10 -5 -10 -11 0 -5 -4 -8 -9 -5 -5 3 -11 -3 -14 -14 -3 -13 -14 -20 -28
-20 l-23 0 21 -20 21 -19 -39 -41 c-21 -22 -43 -40 -48 -40 -17 0 -61 -42 -55
-52 4 -6 0 -14 -7 -19 -11 -7 -9 -10 9 -15 25 -7 30 -34 7 -34 -26 0 -28 -28
-6 -57 38 -47 59 -56 125 -54 67 2 103 26 126 82 7 16 16 29 21 29 9 0 -6 -25
-55 -94 -23 -33 -11 -51 40 -60 29 -6 42 -2 76 23 22 16 51 46 65 65 13 20 30
36 38 36 8 0 15 7 15 15 0 8 9 15 20 15 11 0 20 5 20 10 0 6 -7 10 -16 10 -14
0 -14 2 0 22 9 12 16 29 16 38 1 8 11 28 24 44 19 22 23 37 19 66 -5 38 10 80
29 80 7 0 7 -5 -1 -14 -19 -23 1 -114 28 -131 6 -3 11 -14 11 -23 0 -9 14 -31
32 -49 l32 -33 -36 0 c-31 0 -36 -3 -35 -20 1 -13 5 -16 11 -10 6 6 25 10 43
10 23 0 33 5 33 15 0 23 86 21 92 -2 10 -40 -11 -55 -39 -28 -8 9 -18 14 -21
11 -7 -8 18 -36 32 -36 12 0 40 -39 33 -46 -6 -6 45 -64 56 -64 5 0 4 7 -3 15
-21 25 -6 37 18 15 12 -12 28 -18 35 -14 9 5 9 4 0 -6 -7 -8 -23 -15 -35 -16
-25 -2 -104 39 -129 68 -19 21 -30 23 -26 6 3 -16 -61 -12 -81 5 -17 13 2 27
38 27 l24 0 -22 23 c-21 20 -24 20 -32 6 -6 -11 -18 -15 -35 -12 -13 3 -22 9
-19 14 8 13 -8 10 -28 -5 -10 -7 -18 -20 -18 -29 0 -18 37 -47 60 -47 8 0 20
-10 25 -22 7 -16 20 -24 45 -26 l35 -4 -34 -14 c-18 -8 -49 -14 -67 -14 -19 0
-34 -4 -34 -10 0 -5 8 -10 17 -10 9 0 13 -3 10 -6 -4 -4 -19 -2 -34 4 -15 6
-55 15 -88 19 -148 18 -246 -2 -280 -59 -15 -27 -15 -28 25 -68 23 -23 34 -40
26 -40 -8 0 -18 5 -21 10 -3 6 -12 10 -18 10 -7 0 -6 -4 3 -10 8 -5 12 -10 8
-10 -5 0 1 -9 12 -20 12 -12 40 -23 66 -27 31 -4 42 -9 35 -16 -7 -7 -23 -6
-51 2 -35 10 -45 10 -66 -4 -13 -8 -24 -20 -24 -25 0 -6 -9 -19 -19 -29 -11
-11 -24 -36 -30 -56 -5 -19 -26 -58 -45 -85 -20 -28 -36 -52 -36 -55 0 -3 -9
-16 -20 -28 -19 -20 -20 -22 -3 -29 17 -6 17 -7 -2 -13 -19 -6 -45 -46 -45
-71 0 -12 -29 -26 -46 -23 -26 4 -44 -3 -45 -18 0 -10 -3 -13 -5 -7 -3 6 -17
9 -32 6 -23 -5 -25 -3 -12 9 9 8 33 23 55 34 47 24 123 143 156 245 12 36 35
89 51 119 24 45 28 61 22 97 -7 52 -21 65 -30 30 -6 -25 -7 -25 -30 -8 -22 16
-35 40 -14 27 6 -3 10 -2 10 4 0 5 -6 14 -14 18 -8 4 -16 17 -18 28 -1 11 -9
26 -16 34 -10 11 -11 16 -1 21 6 4 9 12 6 17 -3 5 3 9 13 10 14 1 17 -5 16
-30 -1 -24 4 -32 19 -35 17 -3 18 -1 5 8 -12 10 -11 11 8 7 17 -4 22 -1 22 14
0 10 -4 19 -10 19 -5 0 -10 -5 -10 -11 0 -5 -4 -7 -10 -4 -20 12 -11 33 13 29
12 -2 16 -1 8 2 -11 5 -11 8 0 15 11 7 10 9 -3 9 -9 0 -20 -5 -24 -11 -4 -6
-9 -7 -13 -2 -3 5 -23 19 -43 31 -33 18 -52 21 -144 20 -97 0 -107 1 -130 23
-18 17 -23 19 -19 7 7 -17 -17 -52 -28 -42 -2 3 -4 -10 -3 -28 0 -18 6 -36 11
-40 6 -5 4 -8 -5 -8 -13 0 -13 -1 0 -10 11 -7 11 -10 2 -10 -7 0 -10 -5 -7
-10 3 -5 -1 -10 -9 -10 -9 0 -21 9 -28 19 -11 18 -12 18 -44 -3 -19 -12 -36
-33 -39 -48 -4 -16 -13 -28 -21 -28 -17 0 -18 -12 -2 -28 9 -9 7 -12 -9 -12
-36 0 -36 -28 0 -50 25 -15 28 -20 12 -20 -10 0 -41 23 -67 51 -27 28 -63 57
-81 64 -18 8 -24 14 -15 15 9 0 20 9 23 20 9 29 48 26 65 -5 7 -13 17 -22 22
-19 4 3 6 9 4 13 -3 4 11 23 31 42 30 29 83 101 143 195 10 16 25 24 43 24 17
0 27 5 27 15 0 11 -12 15 -45 15 -43 0 -45 -1 -45 -28 0 -39 -53 -64 -145 -68
-127 -6 -189 -18 -214 -43 -21 -21 -29 -23 -94 -16 -39 3 -80 11 -91 18 -12 6
-23 11 -26 12 -16 1 -50 34 -41 40 6 3 11 2 11 -3 0 -6 6 -12 14 -15 10 -4 14
0 11 14 -3 13 3 21 20 25 13 3 29 3 34 -1 15 -9 14 -52 -1 -59 -7 -2 -2 -4 12
-3 14 1 28 6 32 12 5 6 12 5 20 -3 6 -6 20 -12 30 -12 15 0 16 4 8 26 -7 19
-7 23 2 18 8 -5 9 -2 5 9 -3 9 -1 19 5 23 7 4 8 3 4 -4 -4 -7 -2 -12 3 -12 6
0 11 5 11 10 0 6 10 11 23 11 26 1 -46 18 -82 18 -23 1 -24 0 -6 -13 17 -12
16 -14 -13 -18 -26 -4 -32 -1 -32 14 0 10 5 18 10 18 6 0 10 7 10 15 0 11 12
15 50 15 38 0 50 -4 50 -15 0 -11 12 -15 45 -15 33 0 45 4 45 15 0 10 -11 15
-32 16 -33 1 -33 1 -6 9 15 4 68 30 119 56 71 38 101 61 133 101 23 29 47 52
54 52 18 1 15 -13 -8 -34 -21 -19 -26 -50 -10 -60 6 -3 10 3 10 15 0 35 19 62
39 55 10 -3 24 1 31 10 20 24 70 13 70 -16 0 -19 -33 -39 -53 -33 -21 6 -21 6
-2 -12 26 -26 37 -24 56 10 15 27 21 29 78 32 33 1 61 -2 61 -7 0 -6 8 -5 19
1 11 5 35 10 55 10 42 0 47 6 50 70 1 36 7 54 21 64 18 13 21 13 26 -2 5 -13
8 -11 14 10 4 15 12 25 19 22 17 -6 39 67 30 100 -3 14 -1 48 6 75 15 63 5 82
-58 109 -27 12 -73 39 -103 62 -29 22 -57 40 -62 40 -28 0 -100 121 -112 192
-6 32 -10 36 -33 35 -16 -2 -31 -11 -38 -25 -6 -12 -14 -19 -17 -15 -4 3 -7 1
-7 -5 0 -6 8 -16 18 -21 15 -9 16 -10 0 -11 -27 0 -32 36 -9 62 12 12 21 24
22 27 0 3 2 29 3 58 2 29 8 58 14 66 7 8 9 17 5 20 -3 4 -1 7 5 7 7 0 12 -6
12 -14z m-1280 -10 c0 -2 -20 -16 -45 -30 -25 -13 -43 -21 -40 -15 4 5 23 18
43 29 41 21 42 22 42 16z m3930 0 c0 -2 -7 -7 -16 -10 -8 -3 -12 -2 -9 4 6 10
25 14 25 6z m377 -18 c-3 -8 -6 -5 -6 6 -1 11 2 17 5 13 3 -3 4 -12 1 -19z
m-2241 -34 c-5 -13 -10 -13 -36 2 -35 21 -40 18 -33 -19 4 -19 10 -26 19 -23
8 3 14 -1 14 -10 0 -12 -6 -15 -21 -11 -12 3 -30 0 -40 -6 -22 -14 -25 -29 -4
-21 8 3 23 -1 35 -9 18 -12 18 -15 5 -20 -8 -4 -15 -16 -15 -27 0 -11 -4 -20
-10 -20 -5 0 -10 -5 -10 -12 0 -6 7 -4 18 5 20 18 37 23 28 9 -3 -5 7 -15 22
-22 15 -7 35 -16 44 -21 30 -15 60 -11 56 9 -2 13 -13 17 -44 17 -41 0 -44 6
-35 58 3 18 31 4 55 -28 18 -23 35 -35 52 -35 13 0 24 -4 24 -10 0 -5 -7 -10
-15 -10 -8 0 -15 -4 -15 -9 0 -14 28 -33 40 -26 17 11 32 -5 19 -21 -16 -20
-26 -18 -54 10 -19 19 -30 22 -56 17 -35 -7 -52 -31 -22 -31 14 0 22 -13 32
-47 8 -27 13 -51 13 -56 -1 -4 7 -2 18 5 11 7 20 18 20 25 0 15 16 17 25 3 3
-5 1 -10 -5 -10 -6 0 -8 -4 -5 -10 3 -5 -2 -10 -11 -10 -10 0 -15 -3 -11 -6 3
-4 0 -13 -8 -21 -13 -12 -19 -11 -50 13 -20 15 -34 33 -31 40 6 17 -16 74 -29
75 -5 0 -21 2 -34 5 -27 5 -71 -20 -71 -40 0 -7 -13 -19 -30 -26 -24 -10 -36
-10 -67 3 -21 9 -32 16 -25 16 7 1 22 -4 33 -10 28 -15 49 5 49 45 0 24 -8 38
-30 54 -30 22 -39 55 -20 67 6 3 10 22 10 41 0 38 25 84 45 84 7 0 22 11 32
25 14 20 28 26 66 29 25 1 50 6 54 10 10 10 17 -20 9 -40z m1091 6 c2 -24 -2
-30 -18 -30 -11 0 -37 -18 -59 -40 -22 -22 -44 -40 -49 -40 -12 0 -48 -37 -63
-65 -9 -17 -9 -18 3 -9 8 6 22 8 32 5 17 -6 17 -8 3 -20 -8 -7 -24 -10 -35 -6
-16 5 -26 -3 -47 -34 -15 -23 -29 -41 -33 -41 -3 0 -24 -16 -46 -36 -54 -48
-114 -88 -121 -81 -3 3 12 15 34 26 23 12 45 27 49 34 4 7 29 30 56 51 26 21
47 42 47 47 0 16 72 104 146 177 41 40 74 77 74 82 0 6 6 10 13 10 6 0 13 -14
14 -30z m-961 -31 c-3 -19 2 -33 15 -45 10 -9 19 -24 19 -33 1 -13 3 -13 15 3
11 15 12 23 3 33 -8 11 -7 12 5 7 20 -7 38 -57 27 -74 -7 -11 -11 -11 -24 0
-14 11 -19 10 -36 -5 -18 -16 -22 -16 -57 -2 -21 9 -32 16 -25 16 6 1 12 11
12 22 0 12 7 27 16 33 18 14 30 76 15 76 -6 0 -11 5 -11 11 0 8 5 7 15 -1 10
-8 14 -24 11 -41z m1041 45 c-3 -3 -12 -4 -19 -1 -8 3 -5 6 6 6 11 1 17 -2 13
-5z m442 -39 c0 -5 -4 -3 -9 5 -5 8 -9 22 -9 30 0 16 17 -16 18 -35z m-1279
14 c0 -6 -4 -7 -10 -4 -5 3 -10 11 -10 16 0 6 5 7 10 4 6 -3 10 -11 10 -16z
m-1037 -3 c3 -8 -1 -20 -9 -27 -12 -10 -18 -9 -31 3 -8 9 -12 21 -9 27 10 16
43 14 49 -3z m2242 -6 c3 -5 1 -10 -4 -10 -6 0 -11 5 -11 10 0 6 2 10 4 10 3
0 8 -4 11 -10z m-3890 -10 c3 -6 -1 -7 -9 -4 -18 7 -21 14 -7 14 6 0 13 -4 16
-10z m2942 -42 c-2 -13 -4 -5 -4 17 -1 22 1 32 4 23 2 -10 2 -28 0 -40z m30
30 c-3 -8 -6 -5 -6 6 -1 11 2 17 5 13 3 -3 4 -12 1 -19z m80 -30 c-2 -13 -4
-5 -4 17 -1 22 1 32 4 23 2 -10 2 -28 0 -40z m30 0 c-2 -13 -4 -5 -4 17 -1 22
1 32 4 23 2 -10 2 -28 0 -40z m1157 23 c-2 -3 -12 3 -22 13 -16 17 -16 18 5 5
12 -7 20 -15 17 -18z m-2440 -14 c4 -19 3 -26 -4 -22 -5 3 -10 18 -10 32 0 32
5 28 14 -10z m123 -14 c-3 -10 -5 -2 -5 17 0 19 2 27 5 18 2 -10 2 -26 0 -35z
m871 11 c78 -46 39 -53 -43 -8 -36 20 -65 37 -65 39 0 13 65 -6 108 -31z
m1059 14 c-3 -8 -6 -5 -6 6 -1 11 2 17 5 13 3 -3 4 -12 1 -19z m-1900 -25 c-3
-10 -5 -4 -5 12 0 17 2 24 5 18 2 -7 2 -21 0 -30z m-57 1 c0 -8 -6 -14 -13
-14 -7 0 -13 8 -13 19 0 11 5 17 13 14 7 -3 13 -11 13 -19z m90 4 c0 -18 -2
-20 -9 -8 -6 8 -7 18 -5 22 9 14 14 9 14 -14z m73 15 c-7 -2 -13 -11 -13 -19
0 -8 -4 -14 -8 -14 -4 0 -8 9 -8 20 0 14 7 20 21 19 11 0 14 -3 8 -6z m1054
-25 c-3 -7 -5 -2 -5 12 0 14 2 19 5 13 2 -7 2 -19 0 -25z m81 -4 c-4 -3 -12 5
-18 18 -12 22 -12 22 6 6 10 -10 15 -20 12 -24z m-1187 3 c-10 -9 -11 -8 -5 6
3 10 9 15 12 12 3 -3 0 -11 -7 -18z m989 7 c0 -8 -5 -12 -10 -9 -6 4 -8 11 -5
16 9 14 15 11 15 -7z m150 1 c0 -8 -4 -15 -10 -15 -5 0 -7 7 -4 15 4 8 8 15
10 15 2 0 4 -7 4 -15z m330 5 c0 -5 -4 -10 -10 -10 -5 0 -10 5 -10 10 0 6 5
10 10 10 6 0 10 -4 10 -10z m498 -2 c7 -7 12 -19 11 -27 0 -11 -3 -10 -9 4 -5
11 -9 14 -9 8 -1 -13 -33 -18 -44 -7 -3 3 -3 12 0 20 6 17 35 18 51 2z m-161
-40 c-3 -7 -5 -2 -5 12 0 14 2 19 5 13 2 -7 2 -19 0 -25z m-3821 -9 c3 -6 -5
-3 -20 6 -14 10 -26 19 -26 22 0 7 39 -17 46 -28z m2364 21 c0 -5 -7 -10 -16
-10 -8 0 -12 5 -9 10 3 6 10 10 16 10 5 0 9 -4 9 -10z m-2203 -6 c-3 -3 -12
-4 -19 -1 -8 3 -5 6 6 6 11 1 17 -2 13 -5z m1073 -18 c0 -3 -4 -8 -10 -11 -5
-3 -10 -1 -10 4 0 6 5 11 10 11 6 0 10 -2 10 -4z m3195 -6 c3 -6 -1 -7 -9 -4
-18 7 -21 14 -7 14 6 0 13 -4 16 -10z m-4220 -21 l20 -8 -20 0 c-11 0 -38 7
-60 14 l-40 14 40 -6 c22 -3 49 -9 60 -14z m875 11 c0 -5 -2 -10 -4 -10 -3 0
-8 5 -11 10 -3 6 -1 10 4 10 6 0 11 -4 11 -10z m3644 -12 c-127 -145 -157
-178 -160 -175 -3 2 12 22 32 43 20 21 59 65 87 97 27 31 52 57 55 57 3 0 -3
-10 -14 -22z m-1849 2 c3 -6 -1 -7 -9 -4 -18 7 -21 14 -7 14 6 0 13 -4 16 -10z
m565 5 c0 -2 -10 -9 -22 -15 -22 -11 -22 -10 -4 4 21 17 26 19 26 11z m-2367
-41 l5 -26 -20 20 c-11 11 -17 25 -14 31 10 16 23 5 29 -25z m2734 14 c-3 -8
-6 -5 -6 6 -1 11 2 17 5 13 3 -3 4 -12 1 -19z m-3348 9 c-2 -1 -15 -11 -29
-22 l-25 -20 19 23 c11 12 24 22 29 22 6 0 8 -1 6 -3z m756 -7 c3 -5 1 -10 -4
-10 -6 0 -11 5 -11 10 0 6 2 10 4 10 3 0 8 -4 11 -10z m2669 -9 c3 -5 -1 -14
-8 -20 -16 -13 -32 2 -21 19 8 12 22 13 29 1z m-3584 -10 c0 -5 -9 -19 -20
-32 l-20 -24 17 32 c19 34 23 39 23 24z m2231 -12 c6 -12 7 -19 2 -17 -4 3
-16 8 -26 11 -10 4 -15 11 -12 17 10 16 23 12 36 -11z m30 -2 c-10 -9 -11 -8
-5 6 3 10 9 15 12 12 3 -3 0 -11 -7 -18z m1378 9 c7 -8 8 -17 3 -20 -6 -3 -12
3 -15 14 -6 24 -4 25 12 6z m-3842 -22 c8 -21 -13 -42 -28 -27 -13 13 -5 43
11 43 6 0 13 -7 17 -16z m303 12 c0 -2 -8 -10 -17 -17 -16 -13 -17 -12 -4 4
13 16 21 21 21 13z m680 -36 c-24 -15 -36 -11 -14 4 10 8 21 12 24 10 2 -3 -2
-9 -10 -14z m3230 4 c0 -8 -5 -12 -10 -9 -6 4 -8 11 -5 16 9 14 15 11 15 -7z
m87 10 c-3 -3 -12 -4 -19 -1 -8 3 -5 6 6 6 11 1 17 -2 13 -5z m-437 -39 c0 -5
-5 -3 -10 5 -5 8 -10 20 -10 25 0 6 5 3 10 -5 5 -8 10 -19 10 -25z m-4043 -7
c-3 -7 -5 -2 -5 12 0 14 2 19 5 13 2 -7 2 -19 0 -25z m463 7 c13 -14 21 -25
18 -25 -2 0 -15 11 -28 25 -13 14 -21 25 -18 25 2 0 15 -11 28 -25z m4400 11
c0 -2 -7 -7 -16 -10 -8 -3 -12 -2 -9 4 6 10 25 14 25 6z m-1981 -15 c7 -5 9
-11 4 -14 -6 -4 -19 0 -29 8 -15 11 -16 14 -4 15 8 0 21 -4 29 -9z m1696 -1
c-3 -5 -14 -10 -23 -9 -14 0 -13 2 3 9 27 11 27 11 20 0z m-4295 -10 c-8 -5
-19 -10 -25 -10 -5 0 -3 5 5 10 8 5 20 10 25 10 6 0 3 -5 -5 -10z m1737 4 c-3
-3 -12 -4 -19 -1 -8 3 -5 6 6 6 11 1 17 -2 13 -5z m1974 -46 c16 -30 3 -20
-27 20 -23 30 -24 33 -5 17 13 -11 27 -28 32 -37z m-3971 12 c-6 -4 -23 -5
-38 -2 l-27 6 25 6 c30 8 58 1 40 -10z m165 10 c15 -6 9 -9 -25 -9 -34 0 -40
3 -25 9 11 5 22 9 25 9 3 0 14 -4 25 -9z m3582 -12 c-3 -8 -6 -5 -6 6 -1 11 2
17 5 13 3 -3 4 -12 1 -19z m308 2 c10 -11 16 -20 13 -20 -3 0 -13 9 -23 20
-10 11 -16 20 -13 20 3 0 13 -9 23 -20z m489 -10 c-5 -4 -19 -11 -31 -15 -18
-5 -22 -3 -17 10 4 9 12 14 19 11 8 -3 16 3 20 12 6 13 9 14 12 4 3 -8 1 -17
-3 -22z m-4044 10 c8 -5 11 -10 5 -10 -5 0 -17 5 -25 10 -8 5 -10 10 -5 10 6
0 17 -5 25 -10z m2520 -6 c0 -8 -4 -12 -10 -9 -5 3 -10 10 -10 16 0 5 5 9 10
9 6 0 10 -7 10 -16z m450 6 c0 -5 -5 -10 -12 -10 -6 0 -19 -6 -28 -12 -9 -7
-5 -3 8 10 26 24 32 27 32 12z m-1352 -31 c4 -30 -22 -46 -44 -28 -15 12 -19
41 -7 53 16 16 48 1 51 -25z m224 6 c3 -14 1 -25 -3 -25 -5 0 -9 11 -9 25 0
14 2 25 4 25 2 0 6 -11 8 -25z m1211 10 c-3 -9 -8 -14 -10 -11 -3 3 -2 9 2 15
9 16 15 13 8 -4z m47 -13 c0 -15 -2 -15 -10 -2 -13 20 -13 33 0 25 6 -3 10
-14 10 -23z m230 -4 c0 -36 -4 -35 -14 5 -4 16 -2 27 4 27 5 0 10 -14 10 -32z
m204 16 c3 -8 2 -12 -4 -9 -6 3 -10 10 -10 16 0 14 7 11 14 -7z m686 5 c0 -6
-9 -8 -21 -4 -14 5 -29 0 -47 -17 l-27 -23 24 28 c24 26 71 38 71 16z m-4143
-31 c17 -19 15 -19 -19 2 -21 12 -38 23 -38 25 0 10 41 -10 57 -27z m-567 -11
c0 -5 -4 -5 -10 -2 -5 3 -10 14 -10 23 0 15 2 15 10 2 5 -8 10 -19 10 -23z
m3447 11 c-3 -8 -6 -5 -6 6 -1 11 2 17 5 13 3 -3 4 -12 1 -19z m-2460 -25 c-3
-10 -5 -4 -5 12 0 17 2 24 5 18 2 -7 2 -21 0 -30z m98 -18 c-14 -26 -25 -43
-25 -36 0 14 42 93 46 88 2 -2 -8 -25 -21 -52z m2588 48 c4 -3 2 -12 -4 -20
-9 -10 -15 -10 -25 -2 -8 6 -11 15 -8 20 6 11 28 12 37 2z m74 -15 c-3 -8 -6
-5 -6 6 -1 11 2 17 5 13 3 -3 4 -12 1 -19z m334 5 c13 -16 12 -17 -3 -4 -17
13 -22 21 -14 21 2 0 10 -8 17 -17z m499 13 c0 -2 -7 -7 -16 -10 -8 -3 -12 -2
-9 4 6 10 25 14 25 6z m-1044 -17 c8 -14 -18 -31 -30 -19 -9 9 0 30 14 30 5 0
12 -5 16 -11z m910 2 c-3 -5 4 -11 15 -14 29 -8 18 -32 -14 -31 -27 1 -36 -10
-17 -21 6 -3 10 -1 10 6 0 9 3 9 14 0 7 -6 22 -9 32 -5 16 5 16 4 4 -5 -8 -6
-23 -8 -34 -5 -14 5 -16 3 -11 -7 5 -8 -1 -5 -14 5 -12 11 -19 26 -16 34 8 22
-5 35 -21 21 -12 -10 -13 -9 -8 5 4 10 13 15 24 11 10 -3 21 -1 25 5 3 5 8 10
11 10 3 0 3 -4 0 -9z m154 -6 c-7 -9 -15 -13 -17 -11 -7 7 7 26 19 26 6 0 6
-6 -2 -15z m-4330 -10 c-14 -8 -29 -14 -35 -14 -5 0 1 6 15 14 14 8 30 14 35
14 6 0 -1 -6 -15 -14z m2950 -9 c0 -17 -27 -29 -35 -16 -4 6 -3 15 0 20 9 15
35 12 35 -4z m1085 4 c-3 -5 -12 -10 -18 -10 -7 0 -6 4 3 10 19 12 23 12 15 0z
m-1707 -28 c-2 -8 3 -17 10 -20 8 -2 12 2 10 13 -2 10 2 20 8 22 6 2 11 -13
12 -37 2 -41 2 -41 -30 -36 -36 5 -52 24 -36 43 5 7 8 19 5 27 -4 10 -1 13 9
9 8 -3 13 -12 12 -21z m430 7 c12 -19 12 -20 -10 -14 -29 9 -31 11 -23 24 9
16 19 13 33 -10z m1522 6 c-7 -9 -15 -13 -19 -10 -3 3 1 10 9 15 21 14 24 12
10 -5z m-300 -5 c-8 -5 -26 -9 -40 -9 l-25 1 25 8 c14 4 32 8 40 9 13 1 13 0
0 -9z m-4013 -22 c-3 -8 -6 -5 -6 6 -1 11 2 17 5 13 3 -3 4 -12 1 -19z m2613
-3 c10 -27 4 -52 -17 -73 -18 -19 -16 -39 5 -51 16 -10 16 -10 -2 -11 -11 0
-28 8 -38 17 -18 16 -18 17 4 41 18 20 19 24 6 19 -12 -4 -18 -1 -18 8 0 8 -7
15 -16 15 -14 0 -14 3 -4 15 7 8 9 15 5 15 -4 0 -2 7 5 15 20 24 59 19 70 -10z
m-2170 -11 c0 -2 -9 0 -20 6 -11 6 -20 13 -20 16 0 2 9 0 20 -6 11 -6 20 -13
20 -16z m2064 10 c9 -24 2 -26 -12 -4 -7 11 -8 20 -3 20 5 0 12 -7 15 -16z
m263 -11 c-7 -6 -46 10 -41 18 3 5 14 3 24 -3 11 -7 18 -13 17 -15z m1403 -4
c0 -6 -4 -7 -10 -4 -5 3 -10 11 -10 16 0 6 5 7 10 4 6 -3 10 -11 10 -16z
m-613 -6 c62 -80 69 -99 10 -28 -21 25 -35 45 -31 45 4 0 13 -8 21 -17z m-828
-6 c6 -8 8 -17 4 -20 -7 -8 -33 11 -33 24 0 13 16 11 29 -4z m-1992 -23 c3 -8
-2 -23 -11 -32 -15 -15 -17 -15 -32 0 -21 21 -11 48 16 48 11 0 23 -7 27 -16z
m1533 -5 c0 -12 -29 -24 -37 -16 -3 4 -3 13 0 21 6 16 37 11 37 -5z m-1430
-10 c0 -6 -4 -7 -10 -4 -5 3 -10 11 -10 16 0 6 5 7 10 4 6 -3 10 -11 10 -16z
m1914 -20 c10 8 16 8 24 -2 15 -17 -2 -42 -22 -34 -24 9 -9 -14 45 -71 63 -66
113 -130 138 -177 37 -71 100 -124 148 -125 17 -1 17 -1 1 -14 -18 -13 -82 -9
-209 14 -30 6 -67 10 -82 10 -14 0 -29 5 -32 10 -9 15 -25 12 -25 -5 0 -10 -9
-15 -27 -14 -16 1 -21 3 -11 6 23 6 31 32 12 40 -8 3 -26 1 -39 -5 -31 -14
-57 4 -49 35 4 13 10 21 14 18 5 -3 12 4 15 16 6 17 9 19 16 8 7 -11 9 -10 9
5 0 14 3 16 13 7 8 -6 17 -8 20 -4 4 3 7 1 7 -6 0 -9 12 -11 43 -7 23 4 48 7
55 8 6 1 12 4 12 8 0 4 11 12 25 18 25 12 25 12 9 44 -9 18 -44 62 -77 98 -33
36 -64 75 -70 88 -6 12 -15 22 -20 22 -20 0 -56 -42 -50 -58 4 -10 2 -13 -5
-8 -18 11 -15 20 15 52 27 28 29 32 32 55 0 7 12 0 26 -15 20 -21 29 -25 39
-17z m389 26 c-3 -9 -8 -14 -10 -11 -3 3 -2 9 2 15 9 16 15 13 8 -4z m311 -1
c3 -8 2 -12 -4 -9 -6 3 -10 10 -10 16 0 14 7 11 14 -7z m-1024 -9 c9 -11 9
-15 1 -15 -7 0 -9 -5 -6 -11 4 -6 13 -8 19 -6 7 3 19 1 27 -4 12 -8 11 -12 -3
-23 -24 -18 -23 -29 2 -21 22 7 26 -5 8 -23 -9 -9 -3 -12 30 -12 33 0 40 -3
35 -16 -6 -15 16 -15 92 2 12 3 8 -2 -10 -12 -16 -9 -41 -25 -54 -35 -13 -11
-33 -19 -43 -19 -11 0 -33 -14 -49 -31 -16 -17 -26 -24 -23 -14 6 15 3 16 -17
10 -13 -4 -26 -12 -27 -17 -2 -5 -10 -4 -18 3 -11 9 -14 8 -15 -5 -5 -66 0
-82 42 -124 38 -40 39 -42 17 -44 -13 0 -30 -1 -38 -2 -8 -1 -16 -9 -18 -19
-3 -12 3 -17 20 -17 21 -1 20 -2 -7 -15 -16 -7 -25 -14 -19 -14 7 -1 14 -8 17
-15 4 -11 1 -13 -10 -9 -11 4 -14 2 -9 -5 4 -7 5 -12 2 -12 -3 0 -22 34 -42
76 -36 75 -36 77 -20 113 9 20 21 61 25 91 5 30 17 72 25 92 9 20 15 45 14 55
-3 41 3 74 12 68 6 -3 10 -1 10 4 0 6 -9 11 -20 11 -22 0 -27 15 -7 23 23 10
45 7 57 -8z m1975 5 c-3 -5 -11 -10 -16 -10 -6 0 -7 5 -4 10 3 6 11 10 16 10
6 0 7 -4 4 -10z m-2211 -22 c16 -27 -14 -54 -43 -39 -24 13 -27 31 -9 49 16
16 38 12 52 -10z m2426 -2 c-14 -7 -29 -11 -34 -8 -12 6 15 22 39 22 17 0 17
-2 -5 -14z m-3641 -41 c0 -5 -4 -3 -9 5 -5 8 -9 22 -9 30 0 16 17 -16 18 -35z
m2741 30 c-7 -9 -15 -13 -19 -10 -3 3 1 10 9 15 21 14 24 12 10 -5z m695 -3
c-3 -3 -11 0 -18 7 -9 10 -8 11 6 5 10 -3 15 -9 12 -12z m75 14 c0 -3 -4 -8
-10 -11 -5 -3 -10 -1 -10 4 0 6 5 11 10 11 6 0 10 -2 10 -4z m50 -15 c0 -5
-11 -11 -25 -13 -14 -3 -25 -3 -25 -1 0 3 34 19 48 22 1 1 2 -3 2 -8z m-1408
-26 c0 -5 -5 -10 -12 -11 -7 -2 -6 -1 1 3 8 4 7 8 -2 15 -11 8 -11 9 -1 6 8
-2 14 -8 14 -13z m275 -7 c-3 -8 -6 -5 -6 6 -1 11 2 17 5 13 3 -3 4 -12 1 -19z
m283 19 c0 -2 -10 -12 -22 -23 l-23 -19 19 23 c18 21 26 27 26 19z m768 -21
c3 -15 -1 -18 -22 -14 -23 5 -24 3 -14 -10 11 -13 10 -14 -2 -10 -8 2 -16 16
-18 31 -3 23 0 26 25 24 18 -2 29 -9 31 -21z m-3631 -14 c-20 -22 -22 -36 -4
-26 6 4 8 3 4 -1 -9 -11 -37 -16 -37 -7 0 7 42 52 48 52 3 0 -2 -8 -11 -18z
m2898 -3 c0 -7 -8 -15 -17 -17 -18 -3 -25 18 -11 32 10 10 28 1 28 -15z m-99
-17 c-17 -16 -18 -16 -5 5 7 12 15 20 18 17 3 -2 -3 -12 -13 -22z m757 21 c-7
-2 -13 -12 -13 -21 0 -14 -2 -15 -9 -2 -12 18 -5 30 17 29 11 0 12 -3 5 -6z
m-3970 -10 c-7 -2 -19 -2 -25 0 -7 3 -2 5 12 5 14 0 19 -2 13 -5z m3028 -10
c13 -16 12 -17 -3 -4 -10 7 -18 15 -18 17 0 8 8 3 21 -13z m-2454 -29 c-30
-16 -44 -14 -32 5 3 6 18 11 33 11 l27 -1 -28 -15z m2610 1 c0 -8 -3 -13 -5
-10 -3 3 -11 0 -19 -6 -18 -16 -16 -4 3 15 19 20 21 20 21 1z m-3860 -27 c-3
-7 -5 -2 -5 12 0 14 2 19 5 13 2 -7 2 -19 0 -25z m1157 23 c6 -9 -50 -9 -58 0
-4 3 7 6 24 7 16 0 32 -3 34 -7z m-614 -35 c0 -8 -4 -18 -10 -21 -6 -3 -7 1
-4 9 3 9 1 16 -5 16 -6 0 -11 -7 -11 -17 0 -9 -3 -14 -6 -10 -4 3 -4 13 -1 22
8 19 37 20 37 1z m3242 -10 c10 6 11 4 0 -7 -10 -11 -15 -10 -30 6 -15 17 -15
18 0 6 9 -7 23 -9 30 -5z m-3775 -58 c-2 -13 -4 -3 -4 22 0 25 2 35 4 23 2
-13 2 -33 0 -45z m2543 47 c-7 -9 -15 -13 -17 -11 -7 7 7 26 19 26 6 0 6 -6
-2 -15z m1785 -30 c0 -41 -1 -42 -15 -14 -9 15 -8 24 1 35 15 18 14 19 14 -21z
m85 -21 c0 -8 -8 -14 -17 -14 -14 0 -15 2 -4 9 8 5 10 14 6 21 -5 9 -4 11 3 6
7 -4 12 -14 12 -22z m48 3 c2 -9 -2 -17 -8 -17 -6 0 -9 4 -5 9 3 5 1 12 -4 15
-5 4 -12 -2 -14 -11 -3 -13 -5 -12 -6 5 -1 17 4 23 16 20 10 -2 19 -11 21 -21z
m28 3 c0 -12 -4 -16 -9 -11 -5 5 -6 14 -3 20 10 15 12 14 12 -9z m108 12 c-6
-4 -14 -14 -17 -22 -4 -10 -6 -8 -6 8 -1 15 5 22 17 22 10 0 13 -3 6 -8z
m-854 -6 c0 -2 -8 -10 -17 -17 -16 -13 -17 -12 -4 4 13 16 21 21 21 13z m794
-11 c3 -8 1 -15 -4 -15 -6 0 -10 7 -10 15 0 8 2 15 4 15 2 0 6 -7 10 -15z
m-859 -25 c14 -16 16 -23 7 -32 -10 -10 -18 -6 -40 17 -25 27 -25 28 -1 7 34
-30 48 -28 19 3 -13 14 -19 25 -13 25 5 0 18 -9 28 -20z m520 -10 c0 -30 -35
-40 -55 -15 -10 12 -10 18 0 30 20 25 55 15 55 -15z m-1300 -10 c0 -18 -6 -26
-23 -28 -13 -2 -25 3 -28 12 -10 26 4 48 28 44 17 -2 23 -10 23 -28z m-2834
-42 c6 -12 6 -18 -1 -18 -5 0 -10 6 -10 14 0 7 -7 19 -16 27 -13 11 -14 9 -8
-17 4 -16 8 -31 10 -33 8 -9 -39 -39 -52 -34 -16 6 -19 33 -4 33 6 0 10 7 10
15 0 13 -11 19 -32 17 -3 -1 -8 4 -11 12 -3 7 1 13 9 13 8 0 14 -4 14 -9 0 -4
5 -8 11 -8 5 0 7 6 3 13 -4 6 -3 9 1 4 14 -12 16 -48 5 -62 -7 -9 -8 -15 -1
-19 25 -16 38 67 16 104 -4 8 4 4 19 -10 15 -14 32 -33 37 -42z m2189 44 c0
-5 -15 -19 -32 -32 l-33 -23 29 31 c31 34 36 37 36 24z m183 2 c9 -10 -4 -34
-19 -34 -8 0 -14 9 -14 20 0 19 19 27 33 14z m-2203 -54 c-15 -9 -40 -2 -40
10 0 5 5 12 10 15 6 4 9 3 8 -2 -2 -4 2 -9 7 -10 6 -1 9 6 7 15 -2 14 -1 14 9
-2 9 -14 8 -20 -1 -26z m372 -10 c5 0 8 7 4 15 -3 8 -1 15 4 15 16 0 11 -30
-6 -37 -18 -7 -36 15 -26 32 4 6 8 3 10 -7 2 -10 8 -18 14 -18z m-649 -10 c3
-11 1 -18 -4 -14 -5 3 -9 12 -9 20 0 20 7 17 13 -6z m2417 -54 c0 -2 -8 -10
-17 -17 -16 -13 -17 -12 -4 4 13 16 21 21 21 13z m1055 -56 c-8 -13 -32 -13
-40 0 -3 5 -3 21 1 35 l6 25 20 -25 c10 -14 16 -29 13 -35z m573 43 c4 -16
-22 -27 -43 -19 -22 8 -6 38 18 34 11 -2 22 -9 25 -15z m185 -5 c16 -18 15
-47 -3 -58 -25 -16 -49 -11 -60 11 -21 37 34 77 63 47z m-3765 -31 c2 -12 -3
-17 -17 -17 -15 0 -21 6 -21 21 0 25 33 22 38 -4z m2415 16 c-7 -2 -19 -2 -25
0 -7 3 -2 5 12 5 14 0 19 -2 13 -5z m277 -14 c0 -5 -4 -8 -9 -5 -5 4 -11 1
-13 -6 -3 -8 -7 -6 -11 5 -5 12 -1 17 13 17 11 0 20 -5 20 -11z m-163 -44 c-7
-13 -14 -20 -15 -14 -2 5 2 16 8 24 18 21 20 18 7 -10z m-2737 -5 c0 -5 -4
-10 -10 -10 -5 0 -10 5 -10 10 0 6 5 10 10 10 6 0 10 -4 10 -10z m1950 -40
c-13 -24 -31 -36 -25 -16 3 9 7 23 10 32 3 8 9 12 15 9 7 -4 7 -12 0 -25z
m2150 -10 c0 -5 6 -10 14 -10 17 0 27 -33 15 -51 -7 -11 -11 -12 -17 -1 -5 7
-13 12 -18 11 -24 -4 -64 2 -64 11 0 13 41 50 57 50 7 0 13 -4 13 -10z m-3910
-9 c-20 -4 -34 -12 -32 -19 1 -8 -14 -12 -48 -12 -35 0 -50 4 -50 13 0 24 12
27 89 26 56 -1 67 -3 41 -8z m2620 -22 c0 -16 -7 -19 -45 -19 -25 0 -45 -4
-45 -10 0 -5 -7 -10 -16 -10 -8 0 -13 4 -10 9 4 5 0 12 -6 14 -8 3 -5 6 5 6
13 1 17 6 13 19 -5 15 1 17 49 14 46 -3 55 -7 55 -23z m940 0 c0 -15 -7 -19
-38 -19 -21 0 -44 -6 -51 -12 -11 -11 -12 -10 -6 1 6 11 4 13 -8 8 -10 -3 -17
-2 -17 3 0 6 5 10 10 10 6 0 10 6 10 14 0 15 38 24 78 17 14 -2 22 -10 22 -22z
m-3780 6 c0 -11 -11 -15 -37 -15 -21 0 -49 -3 -63 -5 -14 -3 -19 -3 -12 1 6 3
12 12 12 20 0 10 14 14 50 14 38 0 50 -4 50 -15z m371 -3 c-7 -14 -19 -17 -50
-14 -22 2 -42 10 -45 18 -4 11 7 14 50 14 49 0 54 -2 45 -18z m192 6 c7 -23
-4 -38 -29 -38 -13 0 -24 5 -24 10 0 6 -11 10 -25 10 -18 0 -23 4 -19 15 8 19
90 21 97 3z m187 -3 c0 -11 -12 -15 -50 -15 -38 0 -50 4 -50 15 0 11 12 15 50
15 38 0 50 -4 50 -15z m1140 -6 c0 -19 -4 -21 -33 -16 -19 3 -40 1 -47 -3 -20
-12 -29 -4 -23 20 4 17 14 20 54 20 43 0 49 -2 49 -21z m190 1 c0 -17 -7 -20
-50 -20 -43 0 -50 3 -50 20 0 17 7 20 50 20 43 0 50 -3 50 -20z m560 0 c0 -17
-7 -20 -47 -21 -33 -2 -39 -3 -19 -6 21 -3 26 -7 16 -13 -23 -14 -48 6 -43 35
5 22 10 25 49 25 37 0 44 -3 44 -20z m388 -2 c3 -15 -4 -18 -47 -18 -45 0 -51
3 -51 21 0 18 5 20 47 17 36 -2 49 -7 51 -20z m182 2 c0 -17 -6 -20 -45 -20
-36 0 -45 3 -45 18 0 13 10 18 45 20 40 2 45 0 45 -18z m193 0 c-4 -17 -14
-20 -54 -20 -42 0 -49 3 -49 20 0 18 7 20 54 20 49 0 54 -2 49 -20z m187 0 c0
-17 -7 -20 -50 -20 -43 0 -50 3 -50 20 0 17 7 20 50 20 43 0 50 -3 50 -20z
m380 0 c0 -17 -7 -20 -50 -20 -43 0 -50 3 -50 20 0 17 7 20 50 20 43 0 50 -3
50 -20z m380 -2 c0 -15 -9 -18 -50 -18 -35 0 -50 4 -50 13 0 20 4 22 54 22 38
0 46 -3 46 -17z m390 14 c-1 -19 -20 -30 -67 -35 -29 -3 -53 -4 -53 -2 0 3 7
13 17 24 11 14 29 19 60 19 23 0 43 -3 43 -6z m-200 -17 c0 -11 -12 -15 -50
-15 -38 0 -50 4 -50 15 0 11 12 15 50 15 38 0 50 -4 50 -15z m-3835 -35 c3 -5
2 -10 -4 -10 -5 0 -13 5 -16 10 -3 6 -2 10 4 10 5 0 13 -4 16 -10z m3145 -26
c0 -19 -28 -30 -42 -16 -8 8 -8 15 1 26 14 17 41 10 41 -10z m-824 5 c3 -6 1
-16 -6 -22 -10 -9 -11 -9 -5 2 6 11 4 13 -8 8 -17 -6 -23 4 -10 16 9 10 21 8
29 -4z m-2171 -9 c3 -5 1 -10 -4 -10 -6 0 -11 5 -11 10 0 6 2 10 4 10 3 0 8
-4 11 -10z m1795 -9 c7 -14 7 -22 -2 -27 -7 -4 -8 -3 -4 5 4 6 0 14 -8 17 -9
3 -13 10 -10 15 8 13 12 11 24 -10z m724 -7 c3 -8 2 -12 -4 -9 -6 3 -10 10
-10 16 0 14 7 11 14 -7z m292 5 c10 -17 -13 -36 -27 -22 -12 12 -4 33 11 33 5
0 12 -5 16 -11z m-1067 -25 c12 -15 21 -23 21 -19 0 5 2 6 5 3 3 -3 -2 -18
-11 -34 l-16 -29 5 28 c3 18 -1 32 -12 40 -22 16 -35 37 -22 37 5 0 19 -12 30
-26z m-48 -11 c13 -16 12 -17 -3 -4 -17 13 -22 21 -14 21 2 0 10 -8 17 -17z
m1673 -4 c-10 -12 -18 -30 -16 -41 3 -16 0 -19 -18 -13 -11 4 -29 1 -38 -5 -9
-7 5 9 33 34 52 48 71 61 39 25z m-2569 -91 c4 -13 14 -30 22 -40 9 -10 11
-18 4 -22 -5 -4 -12 -2 -16 4 -3 5 -15 10 -26 10 -18 0 -19 -2 -4 -36 10 -25
11 -33 3 -26 -10 8 -13 5 -13 -11 -1 -12 -4 -32 -9 -44 -6 -18 -4 -23 10 -23
9 0 23 8 30 18 16 20 19 1 5 -26 -5 -9 -11 -34 -14 -54 -2 -20 -12 -44 -21
-53 -15 -15 -16 -14 -16 13 0 17 -5 29 -13 29 -9 0 -14 -14 -14 -45 0 -24 -5
-47 -12 -51 -10 -6 -9 -10 3 -14 9 -4 16 -12 16 -19 0 -9 -3 -9 -10 2 -9 13
-11 13 -20 0 -5 -8 -10 -11 -10 -7 0 10 -30 -18 -30 -28 0 -4 9 -5 20 -2 l20
5 -20 -28 c-11 -15 -20 -33 -20 -39 0 -15 34 -31 64 -31 20 0 26 5 27 23 1 19
2 20 6 3 6 -23 -21 -46 -54 -46 -12 0 -37 13 -55 29 -18 15 -50 34 -71 42 -34
12 -36 14 -17 21 12 4 19 12 15 18 -4 6 1 7 11 3 10 -4 15 -2 11 3 -3 5 10 20
29 33 38 26 64 93 64 167 0 24 5 55 11 71 6 15 15 66 20 113 5 47 11 91 14 97
6 17 51 -28 60 -59z m2806 53 c7 11 9 10 9 -3 0 -10 -7 -18 -15 -18 -8 0 -15
8 -14 18 0 12 2 13 6 3 5 -11 7 -11 14 0z m-1031 -16 c16 -19 3 -55 -20 -55
-29 0 -44 35 -24 54 19 20 28 20 44 1z m700 -18 c0 -2 -10 -12 -22 -23 l-23
-19 19 23 c18 21 26 27 26 19z m-950 -11 c0 -2 -8 -10 -17 -17 -16 -13 -17
-12 -4 4 13 16 21 21 21 13z m-2153 -37 c2 -17 -1 -18 -13 -8 -13 11 -10 20
11 29 1 0 1 -9 2 -21z m1561 -7 c-19 -44 -26 -49 -60 -44 l-33 5 33 9 c18 5
30 13 27 18 -3 5 -1 11 5 15 6 4 8 10 6 14 -3 4 4 7 14 8 17 2 18 -1 8 -25z
m256 -3 c-8 -14 -34 -11 -34 4 0 8 3 17 7 20 9 9 34 -13 27 -24z m518 -134
c56 -53 39 -54 -21 -1 -27 24 -101 134 -101 150 0 6 13 -12 29 -40 16 -27 58
-77 93 -109z m696 121 c-2 0 -13 -10 -26 -21 -17 -14 -23 -16 -20 -5 4 19 30
40 41 33 5 -3 7 -6 5 -7z m-3857 -13 c13 -16 12 -17 -3 -4 -10 7 -18 15 -18
17 0 8 8 3 21 -13z m167 0 c5 -17 -26 -29 -40 -15 -6 6 -7 15 -3 22 9 14 37 9
43 -7z m110 -1 c2 -7 -3 -12 -12 -12 -9 0 -16 7 -16 16 0 17 22 14 28 -4z m96
2 c8 -20 -1 -34 -20 -34 -20 0 -30 30 -13 41 20 12 26 11 33 -7z m3416 -37
c-10 -9 -11 -9 -6 1 10 17 3 15 -41 -10 -48 -27 -36 -13 14 18 37 22 59 15 33
-9z m437 11 c-3 -8 -6 -5 -6 6 -1 11 2 17 5 13 3 -3 4 -12 1 -19z m-3173 -17
c3 -5 0 -11 -8 -14 -8 -3 -17 1 -20 9 -6 15 19 20 28 5z m1296 -30 c-8 -45
-48 -116 -82 -147 -12 -12 -47 -32 -76 -44 -43 -19 -63 -22 -114 -16 -51 5
-66 11 -95 40 -22 21 -49 36 -72 40 -44 7 -108 46 -75 46 11 0 25 -5 31 -11
15 -15 51 -21 131 -23 48 -1 61 -4 57 -15 -3 -9 0 -11 10 -7 9 3 18 -1 21 -9
4 -8 13 -15 21 -15 8 0 12 -4 8 -9 -7 -13 69 -5 98 10 30 16 87 71 87 85 0 6
6 17 14 23 7 6 16 29 20 51 3 22 10 40 15 40 4 0 5 -18 1 -39z m153 4 c1 -5
-6 -11 -15 -13 -11 -2 -18 3 -18 13 0 17 30 18 33 0z m1274 -7 c-3 -8 -6 -5
-6 6 -1 11 2 17 5 13 3 -3 4 -12 1 -19z m-2267 8 c0 -3 -4 -8 -10 -11 -5 -3
-10 -1 -10 4 0 6 5 11 10 11 6 0 10 -2 10 -4z m1439 -51 c0 -5 -6 1 -14 15 -8
14 -14 30 -14 35 0 6 6 -1 14 -15 8 -14 14 -29 14 -35z m661 5 c0 -5 -8 -10
-17 -10 -15 0 -16 2 -3 10 19 12 20 12 20 0z m-3279 -36 c9 -11 2 -9 -18 6
-18 13 -33 25 -33 27 0 8 38 -17 51 -33z m3976 7 c13 5 22 5 19 0 -12 -20 -45
-18 -63 3 -17 20 -17 20 1 4 14 -12 25 -14 43 -7z m-837 5 c0 -3 -4 -8 -10
-11 -5 -3 -10 -1 -10 4 0 6 5 11 10 11 6 0 10 -2 10 -4z m40 -43 c-4 -42 -5
-44 -8 -15 -3 30 2 62 10 62 2 0 1 -21 -2 -47z m-1953 15 c-3 -8 -6 -5 -6 6
-1 11 2 17 5 13 3 -3 4 -12 1 -19z m1443 -23 c13 -14 21 -25 18 -25 -2 0 -15
11 -28 25 -13 14 -21 25 -18 25 2 0 15 -11 28 -25z m264 9 c3 -8 2 -12 -4 -9
-6 3 -10 10 -10 16 0 14 7 11 14 -7z m1124 -11 c4 -29 -28 -47 -53 -29 -12 9
-15 19 -10 35 9 30 59 26 63 -6z m-2863 -28 c-11 -8 -25 -19 -32 -24 -8 -8
-11 -5 -10 9 1 12 7 18 13 16 7 -3 18 2 25 10 6 8 15 12 18 8 3 -3 -3 -12 -14
-19z m238 -20 c-3 -9 -8 -14 -10 -11 -3 3 -2 9 2 15 9 16 15 13 8 -4z m637
-18 c0 -8 -3 -17 -7 -20 -9 -9 -34 13 -27 24 8 14 34 11 34 -4z m1097 -9 c-3
-8 -6 -5 -6 6 -1 11 2 17 5 13 3 -3 4 -12 1 -19z m898 -52 c6 -4 1 -4 -10 2
-11 6 -31 23 -45 39 l-25 28 35 -30 c19 -16 40 -34 45 -39z m-4510 28 c28 -20
15 -17 -31 6 -22 12 -28 18 -14 14 14 -4 34 -13 45 -20z m-75 -29 c46 -10 62
-36 28 -43 -11 -2 -18 3 -18 12 0 9 -8 16 -17 16 -22 0 -103 42 -103 53 0 4
15 0 33 -10 17 -10 52 -22 77 -28z m711 18 c13 -16 12 -17 -3 -4 -10 7 -18 15
-18 17 0 8 8 3 21 -13z m3264 -14 c9 -17 15 -33 13 -35 -3 -2 -12 12 -21 31
-21 43 -13 47 8 4z m205 -4 c0 -5 -5 -3 -10 5 -5 8 -10 20 -10 25 0 6 5 3 10
-5 5 -8 10 -19 10 -25z m-2546 -25 c-14 -27 -27 -50 -29 -50 -9 0 16 64 31 81
26 29 25 24 -2 -31z m2036 20 c-6 -12 -14 -20 -17 -17 -2 3 1 14 8 26 17 26
24 19 9 -9z m-2312 8 c21 -21 14 -63 -12 -77 -45 -25 -91 25 -64 68 14 23 57
28 76 9z m2024 -38 c18 -11 42 -20 52 -20 11 0 17 -3 13 -6 -9 -10 -60 5 -87
26 -33 26 -19 25 22 0z m-49 -12 c6 -19 -3 -38 -18 -38 -18 0 -28 17 -21 35 7
18 33 20 39 3z m347 -15 c0 -12 -2 -12 -15 1 -8 8 -15 17 -15 20 0 3 7 3 15 0
8 -4 15 -13 15 -21z m-3570 -18 c-6 -15 -13 -25 -16 -23 -2 3 1 17 7 32 16 34
23 27 9 -9z m-107 10 c4 -8 2 -17 -3 -20 -6 -4 -10 3 -10 14 0 25 6 27 13 6z
m757 -11 c0 -16 -16 -19 -25 -4 -8 13 4 32 16 25 5 -4 9 -13 9 -21z m80 11 c0
-8 -6 -15 -14 -15 -17 0 -28 14 -19 24 12 12 33 6 33 -9z m1037 -8 c-16 -12
-42 -34 -57 -49 -37 -37 -44 -35 -20 4 11 18 34 40 52 50 46 24 59 22 25 -5z
m2014 -14 c13 -16 12 -17 -3 -4 -10 7 -18 15 -18 17 0 8 8 3 21 -13z m144 -24
c9 -17 15 -33 13 -35 -3 -2 -12 12 -21 31 -21 43 -13 47 8 4z m233 -16 c-5
-22 -19 -20 -35 3 -13 20 -12 21 12 16 16 -3 25 -10 23 -19z m-4194 4 c-2 -7
-18 -18 -35 -24 -17 -7 -33 -20 -36 -31 -5 -21 -69 -56 -84 -47 -5 4 -9 1 -9
-5 0 -6 -8 -10 -18 -8 -23 5 -22 33 3 33 12 0 22 9 26 25 l7 25 1 -27 c1 -16
5 -28 9 -28 10 0 82 67 77 72 -2 2 5 5 17 5 12 1 26 7 31 12 14 14 17 14 11
-2z m-94 -7 c0 -5 -10 -10 -22 -9 -22 0 -22 1 -3 9 11 5 21 9 23 9 1 1 2 -3 2
-9z m447 -6 c-3 -3 -12 -4 -19 -1 -8 3 -5 6 6 6 11 1 17 -2 13 -5z m933 -4
c-25 -4 -49 -4 -53 0 -4 4 16 7 45 7 l53 1 -45 -8z m1705 -8 c-3 -3 -11 0 -18
7 -9 10 -8 11 6 5 10 -3 15 -9 12 -12z m210 0 c-3 -3 -11 0 -18 7 -9 10 -8 11
6 5 10 -3 15 -9 12 -12z m140 8 c-3 -5 -12 -10 -18 -10 -7 0 -6 4 3 10 19 12
23 12 15 0z m305 -11 c0 -6 -4 -7 -10 -4 -5 3 -10 11 -10 16 0 6 5 7 10 4 6
-3 10 -11 10 -16z m969 7 c-7 -7 -159 -10 -166 -3 -3 4 33 7 82 7 49 0 86 -2
84 -4z m41 0 c0 -3 -4 -8 -10 -11 -5 -3 -10 -1 -10 4 0 6 5 11 10 11 6 0 10
-2 10 -4z m-4643 -12 c-3 -3 -12 -4 -19 -1 -8 3 -5 6 6 6 11 1 17 -2 13 -5z
m60 0 c-3 -3 -12 -4 -19 -1 -8 3 -5 6 6 6 11 1 17 -2 13 -5z m3216 -11 c-7 -2
-21 -2 -30 0 -10 3 -4 5 12 5 17 0 24 -2 18 -5z m377 -38 c0 -5 -5 -3 -10 5
-5 8 -10 20 -10 25 0 6 5 3 10 -5 5 -8 10 -19 10 -25z m-3564 4 c22 -18 11
-21 -21 -5 -16 9 -43 13 -66 10 -23 -3 -40 0 -45 7 -10 16 111 6 132 -12z
m3799 11 c-3 -5 -12 -10 -18 -10 -7 0 -6 4 3 10 19 12 23 12 15 0z m-3287 -17
c5 -17 -26 -29 -40 -15 -6 6 -7 15 -3 22 9 14 37 9 43 -7z m487 -1 c-3 -3 -11
0 -18 7 -9 10 -8 11 6 5 10 -3 15 -9 12 -12z m2945 8 c-8 -5 -10 -10 -4 -10 6
0 11 -7 11 -14 0 -12 -5 -13 -19 -5 -15 8 -17 13 -7 25 6 8 17 14 23 14 6 0 4
-5 -4 -10z m247 4 c-3 -3 -12 -4 -19 -1 -8 3 -5 6 6 6 11 1 17 -2 13 -5z m246
-1 c-7 -2 -19 -2 -25 0 -7 3 -2 5 12 5 14 0 19 -2 13 -5z m-160 -10 c-13 -2
-33 -2 -45 0 -13 2 -3 4 22 4 25 0 35 -2 23 -4z m70 0 c-7 -2 -19 -2 -25 0 -7
3 -2 5 12 5 14 0 19 -2 13 -5z m-4275 -14 c17 -6 33 -17 36 -24 3 -9 -7 -7
-32 7 -56 33 -57 36 -4 17z m3512 -34 c0 -5 -5 -3 -10 5 -5 8 -10 20 -10 25 0
6 5 3 10 -5 5 -8 10 -19 10 -25z m-2972 8 c5 -17 -26 -29 -40 -15 -6 6 -7 15
-3 22 9 14 37 9 43 -7z m3429 11 c-3 -3 -12 -4 -19 -1 -8 3 -5 6 6 6 11 1 17
-2 13 -5z m-1422 -13 c-11 -5 -38 -11 -60 -14 l-40 -6 40 14 c22 7 49 14 60
14 l20 0 -20 -8z m1265 -21 c8 -5 11 -10 5 -10 -5 0 -21 10 -35 21 -24 20 -5
13 30 -11z m338 11 c11 -7 10 -9 -3 -14 -9 -4 -14 -3 -10 2 3 5 -1 12 -7 14
-7 3 -8 6 -3 6 6 0 16 -3 23 -8z m-4528 -10 c0 -5 -7 -12 -16 -15 -14 -5 -15
-4 -4 9 14 17 20 19 20 6z m167 -23 c-3 -7 -5 -2 -5 12 0 14 2 19 5 13 2 -7 2
-19 0 -25z m293 7 c13 -14 21 -25 18 -25 -2 0 -15 11 -28 25 -13 14 -21 25
-18 25 2 0 15 -11 28 -25z m2554 -24 c-5 -5 -33 30 -34 43 0 4 9 -2 19 -15 11
-13 17 -26 15 -28z m1316 39 c13 -8 13 -10 -2 -10 -9 0 -20 5 -23 10 -8 13 5
13 25 0z m-2706 -25 c-9 -14 -19 -23 -22 -20 -5 4 26 45 35 45 2 0 -4 -11 -13
-25z m1176 10 c-14 -8 -29 -14 -35 -14 -5 0 1 6 15 14 14 8 30 14 35 14 6 0
-1 -6 -15 -14z m1110 -20 c0 -5 -5 -3 -10 5 -5 8 -10 20 -10 25 0 6 5 3 10 -5
5 -8 10 -19 10 -25z m-3685 -13 c-3 -3 -16 5 -28 17 l-22 23 28 -17 c15 -10
25 -20 22 -23z m1424 22 c-12 -15 -11 -16 6 -11 12 4 30 -1 45 -13 15 -12 20
-20 11 -20 -8 0 -23 -8 -33 -17 -18 -16 -20 -16 -40 4 -20 21 -20 23 -4 47 9
14 19 26 22 26 4 0 0 -7 -7 -16z m226 -4 c0 -8 -8 -16 -17 -18 -13 -2 -18 3
-18 18 0 15 5 20 18 18 9 -2 17 -10 17 -18z m819 -12 c-3 -4 -12 -8 -20 -8
-17 0 -19 27 -1 33 14 5 28 -13 21 -25z m1709 25 c-7 -2 -21 -2 -30 0 -10 3
-4 5 12 5 17 0 24 -2 18 -5z m54 1 c-3 -3 -12 -4 -19 -1 -8 3 -5 6 6 6 11 1
17 -2 13 -5z m-4337 -35 c0 -5 -6 -9 -13 -9 -7 0 -13 9 -13 19 0 15 3 17 13 9
7 -6 13 -14 13 -19z m1464 15 c3 -8 2 -12 -4 -9 -6 3 -10 10 -10 16 0 14 7 11
14 -7z m-1290 -33 c-2 -3 -12 3 -22 13 -16 17 -16 18 5 5 12 -7 20 -15 17 -18z
m2296 -2 c0 -14 -5 -19 -17 -17 -26 5 -29 38 -4 38 15 0 21 -6 21 -21z m487 5
c9 -23 -13 -40 -32 -24 -12 10 -13 16 -4 26 15 18 28 18 36 -2z m724 0 c17
-21 0 -49 -32 -49 -24 0 -36 23 -25 51 7 19 40 18 57 -2z m-3801 -14 c0 -5 -2
-10 -4 -10 -3 0 -8 5 -11 10 -3 6 -1 10 4 10 6 0 11 -4 11 -10z m360 -5 c7 -8
8 -15 2 -15 -5 0 -15 7 -22 15 -7 8 -8 15 -2 15 5 0 15 -7 22 -15z m-429 -12
c13 -16 12 -17 -3 -4 -10 7 -18 15 -18 17 0 8 8 3 21 -13z m634 -11 c-3 -3
-11 0 -18 7 -9 10 -8 11 6 5 10 -3 15 -9 12 -12z m-135 -12 c0 10 8 5 23 -14
13 -16 32 -30 43 -31 31 -4 64 -17 64 -25 0 -4 -11 -5 -25 -2 -14 2 -25 9 -25
15 0 6 -3 8 -6 4 -13 -13 -104 45 -104 66 0 6 7 2 15 -9 11 -14 14 -15 15 -4z
m2600 6 c0 -3 -4 -8 -10 -11 -5 -3 -10 -1 -10 4 0 6 5 11 10 11 6 0 10 -2 10
-4z m-2857 -17 c-34 -12 -76 -15 -80 -4 -2 6 19 10 48 11 33 0 45 -2 32 -7z
m3004 -21 c-3 -7 -5 -2 -5 12 0 14 2 19 5 13 2 -7 2 -19 0 -25z m1493 -8 c0
-22 -3 -40 -8 -40 -4 0 -6 18 -4 40 2 22 6 40 8 40 2 0 4 -18 4 -40z m50 -2
c0 -23 -2 -39 -5 -37 -8 9 -12 79 -4 79 5 0 9 -19 9 -42z m130 2 c0 -22 -4
-40 -8 -40 -7 0 -8 22 -3 68 3 29 11 9 11 -28z m-4923 10 c-2 -11 -6 -22 -9
-26 -4 -3 -5 2 -3 13 2 10 4 21 4 26 1 4 3 7 6 7 3 0 4 -9 2 -20z m3164 -3
c-10 -9 -11 -8 -5 6 3 10 9 15 12 12 3 -3 0 -11 -7 -18z m-3026 -5 c-3 -3 -11
0 -18 7 -9 10 -8 11 6 5 10 -3 15 -9 12 -12z m955 -6 c0 -19 -4 -23 -20 -19
-30 8 -25 43 7 43 7 0 13 -11 13 -24z m3760 -17 c0 -10 -5 -19 -11 -19 -5 0
-8 4 -4 9 3 5 1 12 -5 16 -16 10 -12 25 5 19 8 -4 15 -15 15 -25z m37 -11 c-3
-7 -5 -2 -5 12 0 14 2 19 5 13 2 -7 2 -19 0 -25z m-3990 0 c-3 -8 -6 -5 -6 6
-1 11 2 17 5 13 3 -3 4 -12 1 -19z m-226 -6 c-7 -2 -18 1 -23 6 -8 8 -4 9 13
5 13 -4 18 -8 10 -11z m3401 3 c2 3 5 -2 5 -10 0 -19 0 -19 -23 7 -12 14 -13
18 -3 10 9 -6 18 -10 21 -7z m-4082 -4 c0 -6 -4 -12 -8 -15 -5 -3 -9 1 -9 9 0
8 4 15 9 15 4 0 8 -4 8 -9z m139 -54 c-2 -2 -17 12 -33 32 l-30 36 34 -32 c19
-18 32 -34 29 -36z m2517 5 c-9 -8 -46 29 -46 46 0 10 9 6 26 -13 14 -15 23
-30 20 -33z m849 48 c3 -6 -1 -7 -9 -4 -18 7 -21 14 -7 14 6 0 13 -4 16 -10z
m40 0 c3 -5 1 -10 -4 -10 -6 0 -11 5 -11 10 0 6 2 10 4 10 3 0 8 -4 11 -10z
m-3092 -20 c-3 -12 -8 -19 -11 -16 -5 6 5 36 12 36 2 0 2 -9 -1 -20z m2977 -6
c-6 -6 -7 -14 -3 -17 3 -4 -6 -7 -20 -7 -20 0 -27 5 -27 20 0 16 6 20 29 18
21 -2 27 -6 21 -14z m171 -1 c13 -16 12 -17 -3 -4 -17 13 -22 21 -14 21 2 0
10 -8 17 -17z m642 0 c-7 -2 -19 -2 -25 0 -7 3 -2 5 12 5 14 0 19 -2 13 -5z
m106 -9 c2 -2 -14 -4 -37 -4 -22 0 -43 4 -46 9 -6 8 73 3 83 -5z m-876 -1 c-7
-2 -19 -2 -25 0 -7 3 -2 5 12 5 14 0 19 -2 13 -5z m167 -14 c0 -6 -4 -7 -10
-4 -5 3 -10 11 -10 16 0 6 5 7 10 4 6 -3 10 -11 10 -16z m1180 11 c-19 -13
-30 -13 -30 0 0 6 10 10 23 10 18 0 19 -2 7 -10z m1 -20 c41 0 34 -8 -11 -14
-19 -2 -43 -7 -52 -11 -11 -4 -18 -3 -18 4 0 6 7 11 16 11 14 0 15 2 3 17 -13
15 -12 15 8 5 12 -7 36 -12 54 -12z m-4319 -7 c-5 -10 -7 -25 -4 -33 3 -11 2
-12 -8 -4 -13 13 -5 54 11 54 6 0 6 -7 1 -17z m58 -12 c0 -10 -8 -25 -17 -32
-16 -13 -17 -12 -4 3 7 10 11 27 8 38 -3 11 -1 18 4 14 5 -3 9 -13 9 -23z
m1240 15 c0 -8 7 -21 15 -30 8 -8 11 -17 7 -20 -5 -3 -16 10 -25 29 -9 19 -12
35 -7 35 6 0 10 -6 10 -14z m62 -26 c-5 -48 -18 -54 -16 -7 2 44 3 47 12 47 4
0 6 -18 4 -40z m918 3 c-11 -17 -11 -17 -6 0 3 10 6 24 7 30 0 9 2 9 5 0 3 -7
0 -20 -6 -30z m1557 31 c-3 -3 -12 -4 -19 -1 -8 3 -5 6 6 6 11 1 17 -2 13 -5z
m-4117 -27 c0 -6 -17 -17 -37 -24 -34 -10 -36 -10 -19 3 11 8 26 14 33 14 7 0
13 5 13 10 0 6 2 10 5 10 3 0 5 -6 5 -13z m4708 -3 c15 -5 14 -7 -7 -15 -13
-5 -26 -7 -29 -4 -3 3 1 5 8 5 9 0 7 5 -6 15 -20 16 -15 16 34 -1z m-4327 -7
c-6 -8 -8 -17 -4 -20 3 -4 1 -7 -5 -7 -7 0 -12 9 -12 20 0 12 7 20 16 20 13 0
14 -3 5 -13z m36 -19 c-3 -7 -5 -2 -5 12 0 14 2 19 5 13 2 -7 2 -19 0 -25z
m90 0 c-3 -7 -5 -2 -5 12 0 14 2 19 5 13 2 -7 2 -19 0 -25z m30 0 c-3 -7 -5
-2 -5 12 0 14 2 19 5 13 2 -7 2 -19 0 -25z m1949 20 c4 -6 0 -16 -8 -22 -14
-10 -14 -14 2 -33 12 -16 20 -19 28 -11 8 8 20 7 41 -2 24 -9 31 -19 30 -39 0
-23 -1 -24 -9 -6 -5 11 -9 15 -9 8 -1 -6 -14 -16 -31 -21 -16 -6 -29 -8 -28
-4 3 13 -20 57 -41 79 -18 19 -20 27 -11 43 12 22 25 26 36 8z m2162 3 c11 -6
9 -9 -7 -14 -12 -3 -22 1 -25 9 -6 16 12 18 32 5z m-4194 -17 c3 -8 2 -12 -4
-9 -6 3 -10 10 -10 16 0 14 7 11 14 -7z m1223 1 c0 -8 -4 -15 -9 -15 -10 0
-11 14 -1 23 9 10 10 9 10 -8z m33 -6 c0 -5 -4 -9 -8 -9 -5 0 -9 7 -9 15 0 8
4 12 9 9 4 -3 8 -9 8 -15z m46 3 c1 -7 0 -8 -3 -2 -7 16 -21 12 -26 -7 -3 -13
-5 -12 -6 5 -1 17 4 23 16 20 9 -2 18 -9 19 -16z m197 -2 c-3 -11 -9 -20 -14
-20 -11 0 -11 3 -3 24 9 23 23 20 17 -4z m64 -2 c-3 -8 -6 -5 -6 6 -1 11 2 17
5 13 3 -3 4 -12 1 -19z m50 7 c0 -8 -4 -15 -9 -15 -10 0 -11 14 -1 23 9 10 10
9 10 -8z m-173 -11 c3 -8 2 -12 -4 -9 -6 3 -10 10 -10 16 0 14 7 11 14 -7z
m666 -6 c11 -12 20 -27 20 -32 0 -6 -6 -4 -13 4 -7 9 -20 14 -29 12 -18 -3
-25 18 -11 31 9 10 10 9 33 -15z m2017 16 c-3 -3 -12 -4 -19 -1 -8 3 -5 6 6 6
11 1 17 -2 13 -5z m-4528 -131 c20 -13 27 -23 18 -23 -8 0 -29 12 -46 26 -29
24 -31 25 -31 5 0 -27 -20 -38 -35 -18 -6 8 -20 15 -30 14 -16 -2 -20 5 -21
40 -2 34 2 43 17 48 10 4 23 3 29 0 14 -8 13 -38 -2 -53 -16 -16 -7 -23 19
-16 20 5 21 11 17 58 l-5 51 19 -55 c13 -40 27 -61 51 -77z m111 113 c0 -2 -8
-10 -17 -17 -16 -13 -17 -12 -4 4 13 16 21 21 21 13z m747 -52 c18 -12 10 -34
-13 -34 -10 0 -14 12 -13 48 1 27 4 36 6 22 3 -13 12 -29 20 -36z m561 44 c7
-7 8 -17 1 -30 -12 -22 -32 -23 -49 -3 -23 28 21 60 48 33z m3132 -3 c14 -8
21 -14 15 -14 -5 0 -21 6 -35 14 -14 8 -20 14 -15 14 6 0 21 -6 35 -14z
m-1148 -2 c-6 -2 -9 -10 -6 -15 4 -7 2 -8 -5 -4 -13 9 -5 26 12 25 9 0 8 -2
-1 -6z m-2297 -23 c3 -6 -1 -7 -9 -4 -18 7 -21 14 -7 14 6 0 13 -4 16 -10z
m1510 -24 c-10 -14 -22 -26 -27 -26 -5 0 1 13 14 29 28 34 36 33 13 -3z
m-2068 -18 c-14 -44 -28 -52 -54 -33 -24 18 -7 49 31 53 14 2 26 8 26 14 0 6
2 9 4 7 3 -2 -1 -21 -7 -41z m2520 36 c-3 -3 -12 -4 -19 -1 -8 3 -5 6 6 6 11
1 17 -2 13 -5z m123 -4 c8 -5 11 -10 5 -10 -5 0 -17 5 -25 10 -8 5 -10 10 -5
10 6 0 17 -5 25 -10z m860 -20 c0 -5 -5 -10 -11 -10 -5 0 -7 5 -4 10 3 6 8 10
11 10 2 0 4 -4 4 -10z m-1493 -32 c-3 -8 -6 -5 -6 6 -1 11 2 17 5 13 3 -3 4
-12 1 -19z m-1162 1 c11 -17 -1 -21 -15 -4 -8 9 -8 15 -2 15 6 0 14 -5 17 -11z
m-1590 -19 c-10 -11 -21 -18 -23 -15 -3 3 3 12 14 20 27 20 30 18 9 -5z m502
-5 c0 -8 -4 -12 -9 -9 -5 3 -6 10 -3 15 9 13 12 11 12 -6z m1083 -15 c7 0 11
-3 7 -6 -10 -10 -45 6 -52 23 -5 15 -4 15 13 0 10 -9 25 -17 32 -17z m1928 10
c18 0 31 -4 27 -9 -8 -14 -54 -6 -71 12 -8 9 -9 12 -2 7 7 -6 27 -10 46 -10z
m-1548 0 c0 -5 -5 -10 -11 -10 -5 0 -7 5 -4 10 3 6 8 10 11 10 2 0 4 -4 4 -10z
m705 -30 c-3 -5 -1 -19 5 -30 9 -16 8 -20 -5 -20 -9 0 -15 -7 -13 -16 2 -10
-3 -18 -10 -20 -7 -1 -8 0 -3 2 6 3 8 11 5 19 -3 7 -1 15 3 18 5 3 8 25 7 49
-2 31 0 38 7 25 6 -9 7 -22 4 -27z m1915 33 c0 -5 -33 -8 -74 -8 -41 0 -72 3
-69 8 2 4 35 7 74 7 38 0 69 -3 69 -7z m-164 -10 c-7 -7 -77 -5 -85 3 -2 2 17
4 44 4 27 0 45 -3 41 -7z m292 -3 c38 0 43 -21 10 -44 -31 -22 -48 -19 -20 3
12 11 22 21 22 23 0 3 -29 6 -93 8 -23 1 -35 5 -31 12 4 6 22 8 43 4 20 -3 51
-6 69 -6z m-3264 -15 c-4 -8 -11 -15 -16 -15 -6 0 -5 6 2 15 7 8 14 15 16 15
2 0 1 -7 -2 -15z m621 -21 c30 -21 5 -16 -35 7 -26 15 -29 18 -10 13 14 -4 34
-13 45 -20z m2195 16 c-8 -5 -19 -10 -25 -10 -5 0 -3 5 5 10 8 5 20 10 25 10
6 0 3 -5 -5 -10z m-3969 -18 c-7 -2 -18 1 -23 6 -8 8 -4 9 13 5 13 -4 18 -8
10 -11z m1219 -7 c14 -19 14 -19 -2 -6 -10 7 -18 18 -18 24 0 6 1 8 3 6 1 -2
9 -13 17 -24z m1985 15 c3 -6 -1 -7 -9 -4 -18 7 -21 14 -7 14 6 0 13 -4 16
-10z m719 1 c3 -5 -10 -11 -29 -13 -36 -4 -36 6 0 15 11 3 21 5 22 6 1 0 4 -3
7 -8z m-2445 -10 c17 -11 7 -41 -13 -41 -19 0 -29 17 -22 35 6 17 15 18 35 6z
m681 -11 c-8 -15 -7 -26 1 -42 11 -21 11 -22 -4 -9 -20 16 -22 42 -5 59 17 17
20 15 8 -8z m266 9 c10 -17 -13 -36 -27 -22 -12 12 -4 33 11 33 5 0 12 -5 16
-11z m1414 -3 c0 -2 -11 -6 -25 -8 -14 -3 -25 -1 -25 3 0 5 11 9 25 9 14 0 25
-2 25 -4z m-2010 -10 c0 -11 -19 -15 -25 -6 -3 5 1 10 9 10 9 0 16 -2 16 -4z
m1256 -7 c10 -17 -13 -36 -27 -22 -12 12 -4 33 11 33 5 0 12 -5 16 -11z m1172
4 c-10 -2 -26 -2 -35 0 -10 3 -2 5 17 5 19 0 27 -2 18 -5z m-1961 -40 c-3 -10
-5 -4 -5 12 0 17 2 24 5 18 2 -7 2 -21 0 -30z m1853 27 c0 -5 -10 -10 -22 -9
-22 0 -22 1 -3 9 11 5 21 9 23 9 1 1 2 -3 2 -9z m390 0 c13 -9 13 -10 0 -9 -8
0 -24 4 -35 9 l-20 9 20 0 c11 0 27 -4 35 -9z m-2293 -32 c-3 -7 -5 -2 -5 12
0 14 2 19 5 13 2 -7 2 -19 0 -25z m30 10 c-3 -8 -6 -5 -6 6 -1 11 2 17 5 13 3
-3 4 -12 1 -19z m50 -10 c-3 -7 -5 -2 -5 12 0 14 2 19 5 13 2 -7 2 -19 0 -25z
m898 22 c3 -6 -1 -7 -9 -4 -18 7 -21 14 -7 14 6 0 13 -4 16 -10z m35 -10 c0
-11 -4 -20 -9 -20 -5 0 -7 9 -4 20 3 11 7 20 9 20 2 0 4 -9 4 -20z m17 -12
c-3 -7 -5 -2 -5 12 0 14 2 19 5 13 2 -7 2 -19 0 -25z m31 1 c-3 -8 -7 -3 -11
10 -4 17 -3 21 5 13 5 -5 8 -16 6 -23z m49 -1 c-3 -7 -5 -2 -5 12 0 14 2 19 5
13 2 -7 2 -19 0 -25z m109 20 c4 -7 3 -8 -4 -4 -7 4 -12 1 -12 -7 0 -7 -7 -14
-15 -14 -8 0 -15 7 -15 14 0 8 4 12 9 8 5 -3 12 -1 16 5 8 13 12 13 21 -2z
m624 2 c0 -5 -2 -10 -4 -10 -3 0 -8 5 -11 10 -3 6 -1 10 4 10 6 0 11 -4 11
-10z m220 -6 c0 -2 -9 -4 -20 -4 -11 0 -20 4 -20 9 0 5 9 7 20 4 11 -3 20 -7
20 -9z m-1890 -41 c-1 -17 -2 -17 -15 1 -21 27 -21 53 0 32 8 -8 15 -23 15
-33z m907 25 c-3 -8 -6 -5 -6 6 -1 11 2 17 5 13 3 -3 4 -12 1 -19z m80 9 c0
-7 -9 -14 -20 -14 -19 -2 -19 -2 -1 12 11 8 19 15 20 15 0 0 1 -6 1 -13z m508
-46 c-6 -5 -55 39 -55 50 0 4 13 -5 30 -19 16 -14 27 -28 25 -31z m548 52 c-7
-2 -21 -2 -30 0 -10 3 -4 5 12 5 17 0 24 -2 18 -5z m-1708 -45 c15 -46 -28
-85 -73 -65 -36 17 -40 56 -8 83 22 20 30 22 51 12 14 -6 27 -19 30 -30z
m1482 36 c-3 -3 -12 -4 -19 -1 -8 3 -5 6 6 6 11 1 17 -2 13 -5z m-3856 -21
c13 -16 12 -17 -3 -4 -10 7 -18 15 -18 17 0 8 8 3 21 -13z m-97 -9 c33 -32 7
-94 -39 -94 -29 0 -47 23 -47 57 0 46 54 69 86 37z m276 1 c-7 -8 -20 -15 -28
-15 -13 0 -12 3 4 15 25 19 40 19 24 0z m595 -15 c0 -18 -6 -26 -23 -28 -13
-2 -25 3 -28 12 -10 26 4 48 28 44 17 -2 23 -10 23 -28z m760 10 c10 -11 16
-20 13 -20 -3 0 -13 9 -23 20 -10 11 -16 20 -13 20 3 0 13 -9 23 -20z m575 -2
c0 -19 -2 -20 -10 -8 -13 19 -13 30 0 30 6 0 10 -10 10 -22z m743 -9 c4 -16 3
-18 -9 -8 -16 13 -19 29 -5 29 5 0 11 -9 14 -21z m1152 11 c-28 -12 -57 -12
-50 0 3 6 21 10 38 9 27 0 29 -2 12 -9z m-330 -10 c-3 -5 -18 -9 -33 -9 l-27
1 30 8 c17 4 31 8 33 9 2 0 0 -3 -3 -9z m-840 -20 c10 -11 15 -20 12 -20 -4 0
-16 9 -27 20 -11 11 -16 20 -12 20 5 0 17 -9 27 -20z m742 14 c-3 -3 -12 -4
-19 -1 -8 3 -5 6 6 6 11 1 17 -2 13 -5z m316 -1 c-29 -2 -77 -2 -105 0 -29 2
-6 3 52 3 58 0 81 -1 53 -3z m-3662 -20 c13 -16 12 -17 -3 -4 -10 7 -18 15
-18 17 0 8 8 3 21 -13z m574 7 c-3 -5 3 -10 14 -10 24 0 36 -16 20 -26 -8 -4
-9 -3 -5 4 4 7 3 12 -3 12 -5 0 -13 -5 -17 -11 -5 -8 -10 -6 -16 5 -8 15 -4
36 8 36 3 0 2 -4 -1 -10z m1255 0 c0 -11 63 -44 103 -54 15 -3 27 -12 27 -19
0 -8 4 -7 10 3 9 13 10 13 10 0 -1 -8 -7 -24 -15 -34 -13 -17 -17 -18 -28 -6
-9 10 -9 12 1 6 8 -5 12 0 12 13 0 19 -11 26 -33 22 -12 -2 -70 35 -92 59 -10
11 -13 20 -7 20 7 0 12 -4 12 -10z m613 -66 c4 -8 14 -14 21 -14 7 0 23 -11
36 -25 32 -34 16 -31 -30 5 -21 17 -45 30 -53 30 -9 0 -22 9 -30 20 -8 11 -16
17 -19 15 -3 -3 -8 3 -11 14 -4 18 -2 18 37 -6 22 -14 45 -32 49 -39z m-2639
40 c3 -8 2 -12 -4 -9 -6 3 -10 10 -10 16 0 14 7 11 14 -7z m1566 -4 c0 -5 -2
-10 -4 -10 -3 0 -8 5 -11 10 -3 6 -1 10 4 10 6 0 11 -4 11 -10z m981 -14 c26
-18 18 -22 -12 -6 -13 8 -19 7 -19 0 0 -6 -12 -3 -27 7 -25 16 -27 16 -15 1
19 -23 6 -39 -26 -33 -14 2 -29 0 -33 -6 -5 -8 -12 -8 -27 0 -16 8 -24 8 -34
-2 -15 -15 -78 -4 -78 14 0 6 8 5 22 -2 17 -9 23 -9 26 0 2 6 8 8 13 5 6 -3
23 -1 39 6 20 8 38 9 65 1 31 -8 35 -8 25 4 -28 34 36 43 81 11z m-2587 7 c-5
-5 -12 -12 -16 -18 -4 -6 -8 -2 -8 8 0 9 7 17 17 17 9 0 12 -3 7 -7z m-44 -7
c0 -2 -7 -7 -16 -10 -8 -3 -12 -2 -9 4 6 10 25 14 25 6z m2900 -6 c0 -5 -2
-10 -4 -10 -3 0 -8 5 -11 10 -3 6 -1 10 4 10 6 0 11 -4 11 -10z m-1200 -20 c0
-5 -2 -10 -4 -10 -3 0 -8 5 -11 10 -3 6 -1 10 4 10 6 0 11 -4 11 -10z m1214
-9 c4 -5 -3 -7 -14 -4 -23 6 -26 13 -6 13 8 0 17 -4 20 -9z m-3526 -34 c4 -20
-25 -34 -40 -19 -15 15 -1 44 19 40 10 -2 19 -11 21 -21z m691 7 c-10 -12 -10
-17 0 -23 10 -6 9 -10 -3 -14 -9 -4 -16 -13 -16 -22 0 -8 -4 -15 -9 -15 -4 0
-4 20 2 45 6 28 16 45 25 45 12 0 12 -3 1 -16z m178 -29 c-6 -25 -14 -45 -18
-45 -4 0 -6 8 -4 18 12 59 16 72 24 72 4 0 4 -20 -2 -45z m2113 36 c0 -12 -20
-25 -27 -18 -7 7 6 27 18 27 5 0 9 -4 9 -9z m-2074 -67 c-3 -8 -11 -14 -18
-14 -9 0 -9 3 0 12 7 7 13 26 13 43 l2 30 4 -28 c3 -16 2 -35 -1 -43z m44 27
c-4 -16 -6 -32 -3 -35 11 -10 23 5 23 30 0 13 4 24 8 24 12 0 32 -22 32 -34 0
-6 -5 -4 -11 4 -9 12 -10 11 -6 -7 3 -12 2 -22 -2 -21 -19 2 -24 -3 -11 -12
13 -9 13 -10 0 -10 -32 1 -52 27 -45 59 4 17 10 31 15 31 5 0 5 -13 0 -29z
m743 9 c3 -13 -1 -24 -13 -30 -17 -9 -17 -7 -7 20 13 36 13 35 20 10z m1754
-6 c-3 -3 -12 -4 -19 -1 -8 3 -5 6 6 6 11 1 17 -2 13 -5z m144 -26 c-12 -32
-39 -47 -51 -28 -14 22 -7 34 26 41 16 4 30 7 31 8 1 0 -1 -9 -6 -21z m-2864
-10 c-3 -8 -6 -5 -6 6 -1 11 2 17 5 13 3 -3 4 -12 1 -19z m493 8 c0 -2 -8 -10
-17 -17 -16 -13 -17 -12 -4 4 13 16 21 21 21 13z m1637 -18 c-3 -8 -6 -5 -6 6
-1 11 2 17 5 13 3 -3 4 -12 1 -19z m-2099 -13 c-3 -3 -9 2 -12 12 -6 14 -5 15
5 6 7 -7 10 -15 7 -18z m2724 -17 c-16 -16 -37 4 -28 28 6 16 8 16 23 1 13
-13 15 -20 5 -29z m-575 17 c7 -20 -2 -29 -21 -22 -9 4 -13 13 -10 22 8 19 23
19 31 0z m464 -19 c-36 -37 -35 -57 2 -49 21 4 21 3 -3 -11 -31 -19 -86 -21
-93 -2 -7 18 12 36 38 36 12 0 34 14 50 30 16 17 31 30 34 30 3 0 -10 -15 -28
-34z m-1933 1 c4 -20 -25 -34 -40 -19 -15 15 -1 44 19 40 10 -2 19 -11 21 -21z
m283 6 c13 -16 12 -17 -3 -4 -17 13 -22 21 -14 21 2 0 10 -8 17 -17z m1908
-13 c11 -24 11 -24 -3 -6 -9 11 -16 24 -16 30 0 12 5 7 19 -24z m-2020 16 c-2
-2 -15 -9 -29 -15 -24 -11 -24 -11 -6 3 16 13 49 24 35 12z m-634 -23 c-4 -10
-10 -26 -12 -35 -7 -25 -23 -23 -23 2 0 11 7 23 15 26 8 4 12 10 9 15 -3 5 0
9 6 9 8 0 9 -7 5 -17z m275 -12 c14 -28 -13 -55 -41 -41 -23 13 -24 24 -3 44
20 21 31 20 44 -3z m260 3 c0 -2 -12 -4 -27 -4 -21 0 -24 3 -14 9 13 8 41 5
41 -5z m-350 -19 c0 -8 -4 -15 -10 -15 -5 0 -7 7 -4 15 4 8 8 15 10 15 2 0 4
-7 4 -15z m2427 -7 c-3 -8 -6 -5 -6 6 -1 11 2 17 5 13 3 -3 4 -12 1 -19z
m-1807 -43 c0 -5 -5 -3 -10 5 -5 8 -10 20 -10 25 0 6 5 3 10 -5 5 -8 10 -19
10 -25z m855 12 c13 -4 9 -5 -9 -4 -16 1 -32 9 -34 17 -4 12 -2 13 9 4 8 -7
23 -14 34 -17z"/>
<path d="M4390 3730 c0 -5 5 -10 10 -10 6 0 10 5 10 10 0 6 -4 10 -10 10 -5 0
-10 -4 -10 -10z"/>
<path d="M2280 3580 c0 -5 5 -10 11 -10 5 0 7 5 4 10 -3 6 -8 10 -11 10 -2 0
-4 -4 -4 -10z"/>
<path d="M4520 3526 c0 -21 20 -30 33 -17 9 9 8 14 -3 21 -21 14 -30 12 -30
-4z m25 -6 c3 -5 1 -10 -4 -10 -6 0 -11 5 -11 10 0 6 2 10 4 10 3 0 8 -4 11
-10z"/>
<path d="M110 3490 c0 -5 5 -10 10 -10 6 0 10 5 10 10 0 6 -4 10 -10 10 -5 0
-10 -4 -10 -10z"/>
<path d="M40 3440 c0 -5 5 -10 10 -10 6 0 10 5 10 10 0 6 -4 10 -10 10 -5 0
-10 -4 -10 -10z"/>
<path d="M1905 3220 c3 -5 11 -10 16 -10 6 0 7 5 4 10 -3 6 -11 10 -16 10 -6
0 -7 -4 -4 -10z"/>
<path d="M1885 3190 c1 -11 5 -23 10 -27 4 -5 5 -2 1 5 -4 7 -1 15 8 18 18 7
12 24 -8 24 -7 0 -12 -9 -11 -20z"/>
<path d="M576 3331 c-4 -5 -2 -12 3 -15 5 -4 12 -2 15 3 4 5 2 12 -3 15 -5 4
-12 2 -15 -3z"/>
<path d="M610 3320 c0 -5 5 -10 10 -10 6 0 10 5 10 10 0 6 -4 10 -10 10 -5 0
-10 -4 -10 -10z"/>
<path d="M2750 3260 c0 -5 5 -10 10 -10 6 0 10 5 10 10 0 6 -4 10 -10 10 -5 0
-10 -4 -10 -10z"/>
<path d="M4230 3170 c0 -5 5 -10 11 -10 5 0 7 5 4 10 -3 6 -8 10 -11 10 -2 0
-4 -4 -4 -10z"/>
<path d="M734 3149 c-10 -17 13 -36 27 -22 12 12 4 33 -11 33 -5 0 -12 -5 -16
-11z"/>
<path d="M600 3140 c0 -5 5 -10 10 -10 6 0 10 5 10 10 0 6 -4 10 -10 10 -5 0
-10 -4 -10 -10z"/>
<path d="M2816 2623 c-3 -4 3 -13 15 -21 26 -18 34 -11 10 10 -11 9 -22 14
-25 11z"/>
<path d="M2820 2536 c0 -9 5 -16 10 -16 6 0 10 4 10 9 0 6 -4 13 -10 16 -5 3
-10 -1 -10 -9z"/>
<path d="M2825 2970 c-3 -5 -1 -10 4 -10 6 0 11 5 11 10 0 6 -2 10 -4 10 -3 0
-8 -4 -11 -10z"/>
<path d="M1830 2600 c0 -5 5 -10 11 -10 5 0 7 5 4 10 -3 6 -8 10 -11 10 -2 0
-4 -4 -4 -10z"/>
<path d="M1950 2576 c0 -2 11 -6 25 -8 14 -3 25 -1 25 3 0 5 -11 9 -25 9 -14
0 -25 -2 -25 -4z"/>
<path d="M2040 2081 c0 -6 5 -13 10 -16 6 -3 10 1 10 9 0 9 -4 16 -10 16 -5 0
-10 -4 -10 -9z"/>
<path d="M1624 2039 c-3 -6 -2 -15 4 -21 13 -13 32 -2 32 18 0 16 -26 19 -36
3z"/>
<path d="M1706 1953 c-6 -14 -5 -15 5 -6 7 7 10 15 7 18 -3 3 -9 -2 -12 -12z"/>
<path d="M1447 1906 c-3 -8 0 -17 7 -19 10 -4 12 1 9 14 -6 23 -9 24 -16 5z"/>
<path d="M1473 1885 c0 -14 7 -25 18 -28 11 -3 19 -1 19 4 0 5 -8 17 -19 28
-18 18 -18 18 -18 -4z"/>
<path d="M1373 1885 c-6 -7 -9 -16 -5 -20 4 -4 -2 -5 -13 -1 -11 3 -33 2 -50
-3 -23 -7 -9 -9 63 -10 81 -1 92 1 92 17 0 14 -2 15 -10 2 -8 -13 -10 -13 -10
2 0 25 -21 33 -36 14 -10 -14 -13 -15 -16 -3 -2 12 -5 13 -15 2z"/>
<path d="M1387 1833 c-16 -15 -4 -23 36 -24 36 -1 38 -2 17 -9 -19 -6 -9 -8
37 -9 34 -1 64 3 67 8 4 5 -11 7 -34 4 -36 -5 -40 -3 -40 16 0 18 -6 21 -38
21 -21 0 -42 -3 -45 -7z"/>
<path d="M1760 1825 c0 -11 12 -15 45 -15 33 0 45 4 45 15 0 11 -12 15 -45 15
-33 0 -45 -4 -45 -15z"/>
<path d="M2440 1815 c0 -8 7 -15 15 -15 8 0 15 7 15 15 0 8 -7 15 -15 15 -8 0
-15 -7 -15 -15z"/>
<path d="M1243 1789 c9 -5 22 -7 29 -3 7 4 8 3 4 -4 -4 -7 -3 -12 2 -12 6 0
12 7 16 15 4 12 -3 15 -32 15 -30 -1 -34 -3 -19 -11z"/>
<path d="M1315 1790 c3 -5 8 -10 11 -10 2 0 4 5 4 10 0 6 -5 10 -11 10 -5 0
-7 -4 -4 -10z"/>
<path d="M1786 1769 c2 -4 13 -7 24 -6 23 2 17 10 -10 12 -10 1 -17 -2 -14 -6z"/>
<path d="M1020 1760 c-12 -7 -12 -12 -2 -22 9 -9 15 -9 24 0 16 16 -2 34 -22
22z"/>
<path d="M1192 1754 c4 -21 22 -23 26 -1 2 10 -3 17 -13 17 -10 0 -15 -6 -13
-16z"/>
<path d="M1820 1730 c0 -5 5 -10 10 -10 6 0 10 5 10 10 0 6 -4 10 -10 10 -5 0
-10 -4 -10 -10z"/>
<path d="M2110 1635 c0 -10 7 -15 18 -13 21 4 19 22 -2 26 -10 2 -16 -3 -16
-13z"/>
<path d="M1340 1545 c0 -8 7 -15 15 -15 8 0 15 7 15 15 0 8 -7 15 -15 15 -8 0
-15 -7 -15 -15z"/>
<path d="M2490 2760 c0 -5 5 -10 10 -10 6 0 10 5 10 10 0 6 -4 10 -10 10 -5 0
-10 -4 -10 -10z"/>
<path d="M2593 2794 c-7 -18 17 -38 31 -24 11 11 1 40 -14 40 -6 0 -13 -7 -17
-16z"/>
<path d="M1750 2880 c0 -5 5 -10 10 -10 6 0 10 5 10 10 0 6 -4 10 -10 10 -5 0
-10 -4 -10 -10z"/>
<path d="M4070 2820 c0 -5 5 -10 10 -10 6 0 10 5 10 10 0 6 -4 10 -10 10 -5 0
-10 -4 -10 -10z"/>
<path d="M200 2675 c0 -8 5 -15 10 -15 6 0 10 7 10 15 0 8 -4 15 -10 15 -5 0
-10 -7 -10 -15z"/>
<path d="M2145 2570 c-4 -6 -3 -14 0 -20 9 -15 35 -12 35 4 0 17 -27 29 -35
16z"/>
<path d="M4535 2510 c3 -5 8 -10 11 -10 2 0 4 5 4 10 0 6 -5 10 -11 10 -5 0
-7 -4 -4 -10z"/>
<path d="M2876 2482 c-3 -2 -2 -10 1 -18 8 -20 33 -17 33 4 0 17 -23 26 -34
14z"/>
<path d="M1015 2420 c-3 -6 1 -13 10 -16 19 -8 30 0 20 15 -8 14 -22 14 -30 1z"/>
<path d="M3076 2381 c-4 -5 -2 -12 3 -15 5 -4 12 -2 15 3 4 5 2 12 -3 15 -5 4
-12 2 -15 -3z"/>
<path d="M2706 2331 c-4 -5 -2 -12 3 -15 5 -4 12 -2 15 3 4 5 2 12 -3 15 -5 4
-12 2 -15 -3z"/>
<path d="M2818 2263 c-21 -5 -24 -23 -4 -23 8 0 16 7 20 15 3 8 4 14 3 14 -1
-1 -10 -3 -19 -6z"/>
<path d="M2656 1985 c4 -8 11 -15 16 -15 6 0 5 6 -2 15 -7 8 -14 15 -16 15 -2
0 -1 -7 2 -15z"/>
<path d="M2465 2380 c-8 -12 20 -24 35 -15 6 3 8 11 5 16 -8 12 -32 12 -40 -1z"/>
<path d="M4225 2140 c-11 -17 5 -32 21 -19 7 6 11 15 8 20 -7 12 -21 11 -29
-1z"/>
<path d="M2925 2130 c-7 -12 2 -30 16 -30 5 0 9 9 9 20 0 21 -15 27 -25 10z"/>
<path d="M3465 1950 c3 -5 8 -10 11 -10 2 0 4 5 4 10 0 6 -5 10 -11 10 -5 0
-7 -4 -4 -10z"/>
<path d="M4030 1980 c0 -5 5 -10 10 -10 6 0 10 5 10 10 0 6 -4 10 -10 10 -5 0
-10 -4 -10 -10z"/>
<path d="M4204 1959 c-4 -7 1 -18 11 -25 22 -16 34 -10 31 14 -3 20 -31 28
-42 11z"/>
<path d="M460 1950 c0 -5 5 -10 10 -10 6 0 10 5 10 10 0 6 -4 10 -10 10 -5 0
-10 -4 -10 -10z"/>
<path d="M4345 1831 c-7 -12 12 -24 25 -16 11 7 4 25 -10 25 -5 0 -11 -4 -15
-9z"/>
<path d="M770 1815 c0 -8 7 -15 15 -15 8 0 15 7 15 15 0 8 -7 15 -15 15 -8 0
-15 -7 -15 -15z"/>
<path d="M4070 1750 c0 -5 5 -10 10 -10 6 0 10 5 10 10 0 6 -4 10 -10 10 -5 0
-10 -4 -10 -10z"/>
<path d="M3895 1730 c3 -5 8 -10 11 -10 2 0 4 5 4 10 0 6 -5 10 -11 10 -5 0
-7 -4 -4 -10z"/>
<path d="M1850 1398 c0 -4 4 -8 9 -8 6 0 12 4 15 8 3 5 -1 9 -9 9 -8 0 -15 -4
-15 -9z"/>
<path d="M3640 1626 c0 -8 4 -17 9 -20 11 -7 33 18 24 27 -12 12 -33 7 -33 -7z"/>
<path d="M580 1540 c0 -5 5 -10 10 -10 6 0 10 5 10 10 0 6 -4 10 -10 10 -5 0
-10 -4 -10 -10z"/>
<path d="M795 1539 c-10 -15 3 -25 16 -12 7 7 7 13 1 17 -6 3 -14 1 -17 -5z"/>
<path d="M2470 1294 c0 -17 22 -14 28 4 2 7 -3 12 -12 12 -9 0 -16 -7 -16 -16z"/>
<path d="M4790 1356 c0 -18 17 -29 30 -21 8 5 7 11 -1 21 -15 18 -29 18 -29 0z"/>
<path d="M1556 1203 c-7 -16 24 -47 36 -35 4 4 10 17 12 28 3 15 -1 20 -20 20
-13 0 -26 -6 -28 -13z m34 -13 c0 -5 -2 -10 -4 -10 -3 0 -8 5 -11 10 -3 6 -1
10 4 10 6 0 11 -4 11 -10z"/>
<path d="M3562 1171 c4 -13 18 -16 19 -4 0 4 -5 9 -11 12 -7 2 -11 -2 -8 -8z"/>
<path d="M145 1000 c-3 -5 -1 -10 4 -10 6 0 11 5 11 10 0 6 -2 10 -4 10 -3 0
-8 -4 -11 -10z"/>
<path d="M915 1010 c4 -6 11 -8 16 -5 14 9 11 15 -7 15 -8 0 -12 -5 -9 -10z"/>
<path d="M1010 970 c0 -5 5 -10 10 -10 6 0 10 5 10 10 0 6 -4 10 -10 10 -5 0
-10 -4 -10 -10z"/>
<path d="M1777 894 c-9 -10 2 -24 19 -24 8 0 14 7 14 15 0 15 -21 21 -33 9z"/>
<path d="M2695 880 c3 -5 8 -10 11 -10 2 0 4 5 4 10 0 6 -5 10 -11 10 -5 0 -7
-4 -4 -10z"/>
<path d="M3180 880 c0 -5 5 -10 10 -10 6 0 10 5 10 10 0 6 -4 10 -10 10 -5 0
-10 -4 -10 -10z"/>
<path d="M3880 873 c0 -5 4 -14 9 -22 8 -12 12 -12 25 -2 9 7 13 17 10 22 -6
11 -44 12 -44 2z"/>
<path d="M3440 720 c0 -5 5 -10 10 -10 6 0 10 5 10 10 0 6 -4 10 -10 10 -5 0
-10 -4 -10 -10z"/>
<path d="M2727 646 c-4 -10 -1 -13 8 -9 8 3 12 9 9 14 -7 12 -11 11 -17 -5z"/>
<path d="M2799 572 c9 -7 10 -11 2 -15 -7 -4 -8 -5 -1 -3 16 2 14 20 -2 24
-10 3 -10 2 1 -6z"/>
<path d="M2800 630 c0 -5 5 -10 11 -10 5 0 7 5 4 10 -3 6 -8 10 -11 10 -2 0
-4 -4 -4 -10z"/>
<path d="M186 592 c-8 -13 11 -35 23 -28 16 10 14 36 -3 36 -8 0 -17 -4 -20
-8z"/>
<path d="M180 540 c0 -5 5 -10 10 -10 6 0 10 5 10 10 0 6 -4 10 -10 10 -5 0
-10 -4 -10 -10z"/>
<path d="M230 520 c0 -5 5 -10 10 -10 6 0 10 5 10 10 0 6 -4 10 -10 10 -5 0
-10 -4 -10 -10z"/>
<path d="M1705 610 c-4 -6 -3 -16 3 -22 6 -6 12 -6 17 2 4 6 3 16 -3 22 -6 6
-12 6 -17 -2z"/>
<path d="M816 545 c-3 -9 1 -18 10 -22 19 -7 28 2 21 22 -8 19 -23 19 -31 0z"/>
<path d="M1875 430 c4 -6 11 -8 16 -5 14 9 11 15 -7 15 -8 0 -12 -5 -9 -10z"/>
<path d="M3480 420 c0 -5 5 -10 10 -10 6 0 10 5 10 10 0 6 -4 10 -10 10 -5 0
-10 -4 -10 -10z"/>
<path d="M3105 362 c2 -3 0 -11 -6 -19 -9 -10 -8 -13 0 -13 7 0 10 -4 7 -9 -3
-4 4 -8 17 -7 45 2 45 50 -1 52 -12 1 -20 -1 -17 -4z"/>
<path d="M653 353 c-7 -3 -13 -16 -13 -29 0 -19 5 -24 24 -24 25 0 39 20 30
43 -5 14 -19 17 -41 10z m27 -23 c0 -5 -4 -10 -10 -10 -5 0 -10 5 -10 10 0 6
5 10 10 10 6 0 10 -4 10 -10z"/>
<path d="M1535 351 c-3 -5 -1 -12 5 -16 12 -7 30 2 30 16 0 12 -27 12 -35 0z"/>
<path d="M105 221 c-3 -5 -1 -12 5 -16 5 -3 10 1 10 9 0 18 -6 21 -15 7z"/>
<path d="M3690 160 c0 -5 5 -10 10 -10 6 0 10 5 10 10 0 6 -4 10 -10 10 -5 0
-10 -4 -10 -10z"/>
<path d="M3600 130 c0 -5 5 -10 11 -10 5 0 7 5 4 10 -3 6 -8 10 -11 10 -2 0
-4 -4 -4 -10z"/>
<path d="M3450 60 c0 -5 7 -10 15 -10 8 0 15 5 15 10 0 6 -7 10 -15 10 -8 0
-15 -4 -15 -10z"/>
<path d="M1550 114 c0 -8 5 -12 10 -9 6 4 8 11 5 16 -9 14 -15 11 -15 -7z"/>
<path d="M1352 78 c6 -18 28 -21 28 -4 0 9 -7 16 -16 16 -9 0 -14 -5 -12 -12z"/>
<path d="M764 3869 c-8 -14 11 -33 25 -25 6 4 11 14 11 22 0 16 -26 19 -36 3z
m26 -9 c0 -5 -2 -10 -4 -10 -3 0 -8 5 -11 10 -3 6 -1 10 4 10 6 0 11 -4 11
-10z"/>
<path d="M300 40 c0 -5 5 -10 10 -10 6 0 10 5 10 10 0 6 -4 10 -10 10 -5 0
-10 -4 -10 -10z"/>
</g>
</svg>
