<?xml version="1.0" standalone="no"?>
<!DOCTYPE svg PUBLIC "-//W3C//DTD SVG 20010904//EN"
 "http://www.w3.org/TR/2001/REC-SVG-20010904/DTD/svg10.dtd">
<svg version="1.0" xmlns="http://www.w3.org/2000/svg"
 width="432.000000pt" height="242.400000pt" viewBox="0 0 432.000000 242.400000"
 preserveAspectRatio="xMidYMid meet">
<metadata>
Created by potrace 1.13, written by Peter Selinger 2001-2015
</metadata>
<g transform="translate(0.000000,242.400000) scale(0.080000,-0.080000)"
fill="#000000" stroke="none">
<path d="M2340 3010 l-55 -7 55 0 c30 -1 66 3 80 7 l25 8 -25 -1 c-14 0 -50
-3 -80 -7z"/>
<path d="M2180 3000 c-34 -7 -34 -7 -5 -8 17 0 44 4 60 8 27 7 27 8 5 8 -14
-1 -41 -4 -60 -8z"/>
<path d="M2080 2989 c-98 -18 -134 -27 -111 -28 34 -1 154 21 166 31 10 9 9 9
-55 -3z"/>
<path d="M3230 2957 c-1 -32 74 -108 106 -107 5 0 -9 12 -31 25 -21 13 -47 39
-57 57 -9 18 -17 29 -18 25z"/>
<path d="M3661 2810 c-1 -17 -37 -51 -57 -54 -30 -5 -21 -14 31 -33 30 -11 52
-17 50 -13 -3 5 -21 14 -40 20 l-34 11 31 28 c18 16 29 33 25 42 -4 12 -6 11
-6 -1z"/>
<path d="M1158 2607 c-26 -17 -45 -33 -43 -35 4 -4 95 56 95 63 0 7 -1 7 -52
-28z"/>
<path d="M2575 2470 c-22 -5 -78 -12 -125 -16 -46 -4 -96 -10 -110 -15 -22 -6
63 -3 140 5 14 2 39 -4 55 -12 28 -14 29 -14 16 1 -17 21 -11 23 79 36 46 6
53 9 25 9 -22 0 -58 -4 -80 -8z"/>
<path d="M2788 2473 c18 -2 45 -2 60 0 15 2 0 4 -33 4 -33 0 -45 -2 -27 -4z"/>
<path d="M2220 2415 c-60 -17 -29 -18 40 0 30 7 44 13 30 13 -14 0 -45 -6 -70
-13z"/>
<path d="M1780 2265 c-59 -32 -46 -32 22 0 29 14 46 25 38 24 -8 0 -35 -11
-60 -24z"/>
<path d="M3610 2285 c0 -2 24 -17 53 -31 112 -57 257 -166 257 -194 0 -7 8
-19 18 -28 10 -10 12 -13 5 -8 -17 11 -16 1 1 -32 8 -15 24 -47 36 -71 19 -39
86 -145 206 -326 18 -27 45 -63 60 -80 14 -17 10 -7 -10 21 -26 38 -37 66 -41
103 -20 203 -264 489 -532 625 -29 14 -53 24 -53 21z"/>
<path d="M1703 2227 c-12 -6 -41 -23 -65 -36 -50 -27 -138 -83 -138 -87 0 -7
55 21 69 34 7 7 39 26 70 42 53 27 102 59 91 60 -3 0 -15 -6 -27 -13z"/>
<path d="M2022 1828 c7 -15 15 -25 17 -22 2 2 10 -4 17 -14 7 -9 15 -14 18
-11 3 3 -10 21 -29 39 -32 31 -34 32 -23 8z"/>
<path d="M151 1788 c5 -28 13 -56 19 -62 8 -8 8 -3 1 17 -6 16 -11 41 -11 57
0 16 -4 31 -8 34 -5 3 -5 -18 -1 -46z"/>
<path d="M3282 1757 c-59 -41 -75 -48 -83 -36 -6 9 -9 -1 -9 -33 0 -48 -15
-71 -31 -47 -4 8 -3 19 4 28 19 23 -70 -43 -183 -137 -107 -89 -220 -198 -220
-214 0 -4 15 -8 33 -8 46 0 365 27 532 44 108 12 141 12 147 3 6 -9 12 -7 22
6 7 9 22 17 32 17 11 0 15 3 8 8 -6 4 -10 17 -9 30 2 21 1 21 -16 6 -10 -9
-16 -20 -14 -25 3 -4 0 -11 -6 -15 -8 -5 -10 3 -7 25 3 18 1 34 -4 37 -4 3 -8
1 -8 -4 0 -5 -39 -12 -87 -15 -49 -4 -126 -13 -173 -21 -47 -8 -103 -17 -125
-21 -136 -20 -172 -26 -192 -30 -38 -9 -27 15 35 73 52 50 193 163 233 187 9
6 59 38 110 73 52 34 100 62 106 62 7 0 13 2 13 5 0 10 -24 55 -29 54 -3 -1
-39 -24 -79 -52z"/>
<path d="M2158 1701 c48 -46 62 -57 62 -48 0 2 -26 25 -57 51 l-58 48 53 -51z"/>
<path d="M840 1478 c-24 -34 -39 -58 -32 -54 6 3 24 26 39 49 39 57 45 67 40
67 -2 0 -24 -28 -47 -62z"/>
<path d="M668 1183 c-112 -242 -125 -437 -41 -598 14 -27 29 -61 33 -75 4 -14
9 133 12 325 4 335 6 352 27 393 12 23 19 42 16 42 -4 0 -25 -39 -47 -87z"/>
<path d="M1340 1209 c-25 -3 -38 -7 -30 -8 9 -1 11 -4 5 -9 -5 -4 -11 -14 -11
-23 -1 -14 20 -17 165 -22 165 -5 408 -32 424 -47 5 -4 -29 -28 -75 -52 -45
-25 -126 -68 -178 -97 -52 -29 -137 -73 -189 -99 -51 -25 -88 -48 -82 -50 9
-3 9 -8 1 -17 -8 -9 -7 -14 3 -18 15 -6 114 43 322 157 66 37 173 93 239 127
65 33 115 64 110 68 -25 21 -439 85 -609 94 -27 1 -70 0 -95 -4z"/>
<path d="M3999 883 c-5 -14 -11 -43 -12 -64 -1 -20 -5 -35 -9 -33 -4 3 -14
-11 -22 -31 -9 -20 -29 -55 -47 -80 -19 -26 -28 -48 -24 -56 5 -7 4 -10 -2 -6
-11 7 -100 -92 -95 -106 1 -5 -1 -6 -6 -3 -5 3 -24 -11 -43 -31 -19 -19 -87
-78 -152 -130 -70 -56 -115 -98 -111 -105 4 -7 3 -8 -4 -4 -10 6 -172 -108
-172 -121 0 -2 18 8 40 22 22 14 46 25 54 25 7 0 26 7 42 14 15 8 31 13 35 10
4 -2 6 4 4 14 -2 13 4 18 22 20 30 2 85 40 78 53 -4 5 0 7 7 4 13 -5 31 7 113
75 93 77 85 73 83 45 -1 -14 -5 -25 -9 -25 -3 0 -6 -6 -6 -12 0 -7 -3 -27 -7
-45 -14 -59 26 -53 59 10 29 57 41 76 58 94 8 10 16 21 17 25 1 7 22 57 50
123 12 29 34 100 30 100 -2 0 2 10 8 21 6 12 18 55 25 95 22 115 20 165 -4
102z"/>
<path d="M4201 632 c23 -34 44 -60 47 -58 4 5 -22 42 -66 94 -13 15 -5 -1 19
-36z"/>
<path d="M1722 480 c-12 -22 -18 -40 -13 -40 5 0 12 7 15 16 4 11 15 14 33 11
16 -2 23 -2 16 0 -6 2 -15 15 -20 28 -8 24 -9 24 -31 -15z"/>
<path d="M651 415 c0 -17 -10 -81 -22 -144 -11 -62 -19 -117 -17 -123 7 -19
51 255 45 277 -3 14 -5 11 -6 -10z"/>
<path d="M1181 83 c-7 -32 -14 -65 -17 -73 -2 -8 3 0 12 19 l15 34 33 -32 c28
-27 39 -31 86 -31 38 0 50 3 40 9 -8 6 -18 7 -24 4 -5 -3 -6 -2 -3 4 4 6 -14
25 -39 42 -39 28 -47 31 -62 19 -15 -11 -16 -11 -4 3 10 14 9 20 -6 39 -18 22
-18 22 -31 -37z"/>
</g>
</svg>
