<?xml version="1.0" standalone="no"?>
<!DOCTYPE svg PUBLIC "-//W3C//DTD SVG 20010904//EN"
 "http://www.w3.org/TR/2001/REC-SVG-20010904/DTD/svg10.dtd">
<svg version="1.0" xmlns="http://www.w3.org/2000/svg"
 width="624.000000pt" height="402.400000pt" viewBox="0 0 624.000000 402.400000"
 preserveAspectRatio="xMidYMid meet">
<metadata>
Created by potrace 1.13, written by Peter Selinger 2001-2015
</metadata>
<g transform="translate(0.000000,402.400000) scale(0.080000,-0.080000)"
fill="#000000" stroke="none">
<path d="M0 2515 l0 -2515 3900 0 3900 0 0 2515 0 2515 -3900 0 -3900 0 0
-2515z m7527 2309 c15 -11 38 -36 51 -54 l22 -33 -2 -2231 c-3 -2213 -3 -2231
-23 -2258 -11 -15 -36 -36 -55 -47 -35 -20 -54 -20 -1275 -23 -682 -2 -2296
-2 -3586 0 l-2346 2 -34 23 c-18 12 -44 38 -56 56 l-23 34 0 2219 c0 2398 -3
2244 52 2295 12 12 34 26 48 32 17 6 1242 9 3612 8 l3587 -2 28 -21z"/>
<path d="M2215 3242 c-200 -69 -325 -243 -325 -452 0 -90 26 -185 66 -244 l26
-38 39 38 c21 21 36 40 34 43 -3 2 -20 -10 -38 -27 -47 -46 -58 -40 -13 7 l38
39 -21 56 c-29 77 -29 185 1 263 30 81 121 171 203 202 81 31 217 27 285 -8
99 -52 165 -127 191 -221 7 -25 21 -55 32 -67 21 -23 20 -30 -12 -83 -5 -8
-16 -40 -25 -71 -9 -31 -32 -78 -52 -104 -45 -58 -139 -120 -202 -134 -38 -8
-60 -21 -100 -62 -29 -28 -52 -53 -52 -55 0 -2 31 -4 69 -4 178 0 352 112 427
275 116 250 -17 554 -281 645 -76 26 -218 27 -290 2z"/>
<path d="M5374 3242 c-312 -111 -421 -490 -216 -748 36 -46 150 -134 173 -134
26 0 -17 41 -54 52 -32 9 -37 13 -20 16 31 5 82 -24 89 -52 9 -38 55 -51 179
-51 106 0 113 1 187 37 234 111 336 356 248 593 -4 11 -7 22 -7 25 1 19 -27
51 -40 46 -12 -5 -13 -4 -4 7 14 18 -41 91 -104 136 -93 67 -149 85 -270 88
-86 3 -121 0 -161 -15z m251 -107 c69 -18 138 -60 184 -110 36 -39 58 -47 40
-14 -9 18 -7 25 11 43 l21 21 -12 -28 c-12 -27 -10 -30 42 -83 30 -30 46 -52
37 -48 -15 5 -18 1 -18 -22 0 -16 -8 -43 -18 -59 -11 -17 -21 -58 -24 -91 -12
-126 -106 -250 -225 -294 -63 -23 -179 -29 -227 -11 -41 16 -42 14 -11 -19 23
-24 26 -32 15 -45 -7 -8 -18 -15 -24 -15 -14 0 -126 111 -126 125 0 6 -10 15
-22 20 -15 6 -23 19 -24 35 0 14 -16 57 -35 95 -30 63 -34 78 -34 155 1 66 6
96 23 134 47 104 137 182 242 210 72 19 113 19 185 1z"/>
<path d="M5846 2968 c4 -7 14 -21 23 -31 14 -17 17 -32 20 -92 2 -37 21 6 21
48 0 27 -7 45 -25 62 -25 26 -51 34 -39 13z"/>
<path d="M5306 2492 c-3 -5 21 -35 53 -66 37 -37 61 -54 66 -47 3 6 -6 26 -22
45 -34 39 -90 79 -97 68z"/>
<path d="M2062 2548 c-8 -8 -8 -17 0 -32 6 -12 11 -22 10 -23 -1 -2 -2 -9 -2
-17 0 -12 5 -12 30 1 17 8 37 12 45 9 12 -4 12 -12 -5 -51 -23 -54 -8 -51 20
5 l19 38 -27 18 c-15 10 -38 17 -52 16 -19 -2 -21 1 -12 10 7 7 12 15 12 19 0
13 -27 18 -38 7z"/>
<path d="M2011 2511 c-8 -14 -4 -24 19 -46 l28 -27 -9 38 c-4 22 -9 42 -9 47
0 14 -19 7 -29 -12z"/>
<path d="M2097 2441 c-14 -28 -13 -41 3 -41 8 0 30 45 30 60 0 20 -19 9 -33
-19z"/>
<path d="M2186 2411 c-23 -24 -34 -41 -27 -45 6 -4 11 -4 11 0 0 4 9 -1 20
-11 20 -18 21 -18 65 25 25 24 45 48 45 52 0 18 -22 6 -58 -34 -25 -26 -43
-38 -51 -33 -9 5 -2 18 25 46 24 24 32 39 23 39 -8 0 -32 -17 -53 -39z"/>
<path d="M2287 2378 c-35 -35 -43 -48 -29 -48 10 0 40 23 67 50 37 38 44 50
30 48 -11 0 -41 -23 -68 -50z"/>
<path d="M5550 1320 c-272 -3 -479 -6 -460 -8 31 -2 33 -4 15 -14 -11 -6 -47
-15 -80 -18 -33 -4 229 -8 582 -9 502 -1 643 -4 647 -13 3 -7 3 3 0 22 -4 19
-8 38 -11 43 -2 4 -48 6 -101 5 -53 -2 -320 -5 -592 -8z"/>
<path d="M2838 643 c-37 -23 -50 -59 -45 -124 l3 -54 2 62 c2 55 5 64 33 87
43 37 125 37 161 1 44 -44 43 -151 -3 -187 -11 -10 -17 -18 -12 -18 5 0 20 12
34 26 21 22 24 35 24 96 0 66 -2 71 -33 99 -27 24 -41 29 -85 29 -31 0 -63 -7
-79 -17z"/>
<path d="M4929 645 c-28 -15 -54 -65 -46 -87 3 -7 6 -3 6 10 1 13 12 34 26 47
20 21 34 25 80 25 49 0 60 -4 86 -29 25 -26 29 -37 29 -88 0 -64 -17 -95 -60
-112 -17 -7 -20 -10 -8 -10 10 -1 32 12 49 27 27 24 33 37 37 84 5 66 -14 110
-58 133 -36 19 -107 19 -141 0z"/>
<path d="M2090 579 c-37 -15 -60 -39 -81 -84 -11 -22 -14 -32 -7 -21 35 52 63
77 98 87 97 29 200 -46 200 -146 0 -59 -43 -121 -100 -144 l-25 -10 27 0 c31
-1 82 39 103 80 8 15 15 52 15 82 0 59 -23 104 -72 140 -31 23 -120 32 -158
16z"/>
<path d="M5645 557 c-46 -25 -85 -92 -85 -144 0 -45 22 -93 56 -123 27 -24 27
-23 -3 12 -77 91 -38 217 77 248 38 10 50 9 89 -7 68 -28 94 -72 89 -150 -4
-66 -18 -91 -73 -124 -40 -25 -24 -24 24 1 41 21 81 85 81 131 0 47 -20 95
-52 126 -60 58 -134 69 -203 30z"/>
</g>
</svg>
