<?xml version="1.0" standalone="no"?>
<!DOCTYPE svg PUBLIC "-//W3C//DTD SVG 20010904//EN"
 "http://www.w3.org/TR/2001/REC-SVG-20010904/DTD/svg10.dtd">
<svg version="1.0" xmlns="http://www.w3.org/2000/svg"
 width="1024.000000pt" height="365.000000pt" viewBox="0 0 1024.000000 365.000000"
 preserveAspectRatio="xMidYMid meet">

<g transform="translate(0.000000,365.000000) scale(0.100000,-0.100000)"
fill="#000000" stroke="none">
<path d="M0 1825 l0 -1825 3724 0 c2477 0 3727 3 3731 10 3 5 11 10 16 10 6 0
7 -5 4 -10 -4 -7 458 -10 1379 -10 l1386 0 0 920 c0 907 0 921 -19 910 -26
-13 -31 -13 -31 4 0 16 27 29 41 20 5 -3 9 357 9 895 l0 901 -5120 0 -5120 0
0 -1825z m9900 1774 c0 -6 -4 -7 -10 -4 -5 3 -10 11 -10 16 0 6 5 7 10 4 6 -3
10 -11 10 -16z m-750 -179 c0 -5 -4 -10 -10 -10 -5 0 -10 5 -10 10 0 6 5 10
10 10 6 0 10 -4 10 -10z m725 0 c3 -5 1 -10 -4 -10 -6 0 -11 5 -11 10 0 6 2
10 4 10 3 0 8 -4 11 -10z m-7365 -70 c0 -5 -4 -10 -10 -10 -5 0 -10 5 -10 10
0 6 5 10 10 10 6 0 10 -4 10 -10z m-100 -160 c0 -5 -4 -10 -10 -10 -5 0 -10 5
-10 10 0 6 5 10 10 10 6 0 10 -4 10 -10z m3400 -45 c0 -8 -4 -15 -9 -15 -13 0
-22 16 -14 24 11 11 23 6 23 -9z m-3576 -48 c-3 -9 -12 -17 -19 -17 -14 0 -15
17 -1 38 11 19 28 0 20 -21z m4041 -87 c8 -13 -5 -13 -25 0 -13 8 -13 10 2 10
9 0 20 -4 23 -10z m3844 -14 c9 -11 10 -20 1 -36 -19 -36 -52 -5 -36 36 7 18
20 18 35 0z m-2469 -216 c0 -5 -5 -10 -11 -10 -5 0 -7 5 -4 10 3 6 8 10 11 10
2 0 4 -4 4 -10z m1230 -24 c0 -3 -4 -8 -10 -11 -5 -3 -10 -1 -10 4 0 6 5 11
10 11 6 0 10 -2 10 -4z m-5050 -16 c0 -5 -2 -10 -4 -10 -3 0 -8 5 -11 10 -3 6
-1 10 4 10 6 0 11 -4 11 -10z m4436 -77 c6 -24 -7 -190 -23 -288 -5 -31 -2
-35 33 -53 66 -34 159 -132 178 -188 54 -157 33 -337 -52 -439 -40 -49 -149
-121 -126 -83 4 7 3 8 -5 4 -6 -4 -9 -12 -6 -17 4 -5 0 -9 -9 -9 -8 0 -29 -12
-46 -26 -38 -32 -37 -68 2 -97 33 -24 74 -17 84 16 12 38 54 53 54 18 0 -32
-45 -71 -84 -71 -19 0 -38 5 -41 10 -3 6 -13 10 -21 10 -8 0 -12 -5 -9 -10 4
-6 3 -45 0 -86 -7 -74 -8 -75 -26 -55 -11 11 -25 18 -33 15 -18 -7 -29 25 -25
71 2 19 0 37 -3 41 -12 11 -21 -45 -16 -97 5 -44 3 -49 -15 -49 -18 0 -19 5
-13 73 4 39 16 89 27 110 11 22 17 48 14 58 -6 18 -10 21 -35 23 -6 1 -32 -64
-59 -142 -49 -147 -82 -202 -101 -172 -5 8 -10 33 -10 55 1 54 26 255 34 262
9 9 7 -23 -5 -113 -5 -43 -9 -106 -7 -139 l3 -60 21 40 c23 42 95 250 93 269
0 6 -16 -34 -35 -88 -36 -105 -48 -126 -63 -111 -12 13 6 186 21 200 7 7 9 1
5 -20 -3 -16 -8 -59 -11 -95 l-6 -65 16 35 c9 19 25 61 35 93 19 64 21 61 -46
72 -90 15 -196 101 -235 191 -25 57 -44 184 -37 247 6 61 38 151 70 198 26 39
104 100 167 132 39 19 61 22 162 22 l117 0 11 82 c16 114 8 123 -24 26 -15
-46 -32 -83 -36 -83 -5 0 2 31 15 69 27 81 42 111 55 111 12 0 12 -95 1 -162
-4 -26 -4 -45 -1 -43 11 7 33 222 29 275 l-4 45 -21 -40 c-12 -22 -36 -85 -54
-140 -30 -92 -50 -135 -50 -108 0 19 81 247 98 275 21 36 40 36 48 1z m-5646
-139 c0 -8 -4 -14 -10 -14 -5 0 -10 2 -10 4 0 2 -3 12 -6 20 -5 12 -2 15 10
10 9 -3 16 -12 16 -20z m2427 10 c-3 -3 -12 -4 -19 -1 -8 3 -5 6 6 6 11 1 17
-2 13 -5z m-342 -95 c-4 -5 -13 -9 -21 -9 -12 0 -12 2 -2 14 14 15 32 11 23
-5z m4395 6 c0 -11 12 -15 48 -15 49 0 205 -25 222 -35 6 -3 10 -13 10 -21 0
-8 4 -14 8 -14 20 0 92 -74 101 -103 5 -18 21 -63 34 -102 33 -94 41 -160 21
-179 -9 -10 -12 -24 -8 -40 4 -18 -2 -37 -25 -69 -19 -28 -28 -51 -25 -64 9
-32 -169 -182 -201 -169 -8 3 -15 11 -15 17 0 7 3 9 6 6 9 -9 77 49 80 68 1 8
-2 13 -7 9 -5 -3 -7 -10 -3 -15 3 -6 -2 -9 -12 -7 -11 2 -19 -3 -19 -12 -1 -8
-6 -14 -13 -12 -7 1 -11 -3 -10 -10 2 -7 -4 -12 -12 -13 -8 0 -15 -9 -15 -20
-1 -11 -7 -19 -14 -17 -7 1 -10 -2 -7 -7 3 -4 -12 -11 -33 -15 -21 -3 -49 -17
-64 -32 -23 -22 -28 -24 -49 -13 -13 7 -25 13 -28 13 -3 1 -4 4 -3 8 2 4 -6
12 -16 17 -14 8 -23 6 -36 -9 -23 -25 -42 -25 -50 -1 -4 13 -19 22 -48 26 -23
4 -47 12 -54 17 -9 7 -14 2 -18 -19 -11 -46 -14 -53 -25 -53 -6 0 -13 8 -17
18 -34 96 -98 251 -111 265 -22 25 -27 127 -11 234 7 48 12 102 11 119 -3 26
4 36 58 78 33 26 67 61 75 77 10 19 23 29 38 29 12 0 37 9 55 20 36 22 138 59
165 60 9 0 17 -7 17 -15z m-3563 -60 c19 -8 60 -15 90 -15 50 0 57 -3 104 -47
28 -26 55 -56 61 -68 8 -15 8 -17 -2 -9 -6 7 -20 9 -31 7 -18 -5 -18 -6 2 -34
11 -16 17 -33 14 -39 -3 -5 0 -10 8 -10 13 0 37 -61 63 -157 2 -7 13 -13 24
-13 17 0 20 -6 20 -39 0 -34 -3 -38 -20 -34 -12 3 -22 0 -24 -8 -2 -8 -12 -40
-22 -72 -16 -55 -44 -97 -30 -46 6 20 5 21 -4 6 -6 -9 -8 -22 -5 -27 8 -13
-38 -93 -67 -117 -13 -10 -29 -26 -36 -35 -12 -15 -11 -17 7 -13 12 2 27 7 34
11 8 5 8 3 -2 -9 -24 -30 -75 -55 -118 -60 -23 -2 -61 -16 -83 -31 -38 -25
-49 -52 -41 -99 1 -5 -3 -6 -9 -2 -6 3 -17 -1 -25 -9 -20 -19 -51 -10 -34 10
15 18 -5 19 -23 1 -32 -32 -46 -27 -51 16 -7 58 -42 148 -62 159 -21 13 -44 3
-53 -22 -7 -19 -8 -19 -58 4 -65 30 -108 76 -145 152 -51 109 -54 322 -5 437
10 25 20 36 27 31 8 -5 9 -3 4 5 -9 15 84 114 130 138 95 51 284 70 362 38z
m-1477 -39 c0 -15 -18 -31 -26 -23 -7 7 7 37 17 37 5 0 9 -6 9 -14z m-2969
-52 c8 -8 22 -14 31 -14 8 0 32 -13 53 -30 21 -16 44 -30 51 -30 7 0 28 -10
48 -22 35 -23 59 -69 72 -138 4 -19 11 -40 16 -46 4 -6 6 -18 3 -26 -3 -8 1
-31 10 -52 11 -27 13 -41 5 -50 -5 -7 -10 -24 -10 -37 2 -89 -22 -157 -65
-185 -14 -9 -25 -24 -25 -33 0 -16 -51 -51 -74 -51 -7 0 -21 -9 -31 -20 -10
-11 -26 -20 -36 -20 -10 0 -26 -10 -36 -23 -30 -37 -74 -67 -99 -67 -13 0 -24
5 -24 10 0 6 -4 10 -10 10 -19 0 -10 -20 14 -31 20 -9 33 -7 71 11 25 12 48
20 51 18 7 -7 -91 -48 -113 -48 -25 0 -43 19 -43 45 0 30 -19 45 -59 45 -35 0
-35 0 -13 16 28 20 26 54 -5 65 -17 6 -29 2 -50 -15 -21 -18 -33 -21 -50 -15
-13 5 -23 15 -23 24 0 8 -4 15 -8 15 -12 0 -78 65 -99 97 -29 45 -49 196 -35
273 6 35 14 48 35 58 20 10 27 20 27 42 0 16 -5 32 -11 36 -8 4 -8 9 0 17 6 6
11 19 11 28 0 9 18 28 40 43 22 14 40 30 40 35 0 5 26 21 58 36 31 14 68 32
82 40 31 19 176 10 201 -11z m1024 -9 c89 -29 145 -63 182 -112 14 -18 30 -30
36 -26 5 3 7 1 4 -4 -7 -11 36 -97 44 -89 6 7 14 -73 13 -140 -2 -116 -70
-261 -163 -347 -46 -43 -57 -71 -46 -120 4 -17 8 -59 10 -92 l3 -60 -7 58 c-7
63 -23 76 -31 25 l-6 -33 -9 35 c-8 34 -9 34 -16 10 -4 -16 -7 -19 -8 -7 -1
10 -9 17 -20 17 -25 0 -46 28 -43 55 4 30 -13 41 -80 54 -76 14 -119 33 -194
86 -105 75 -148 174 -149 345 0 96 2 109 28 158 46 87 145 175 234 208 49 18
117 12 218 -21z m-30 25 c3 -6 -1 -7 -9 -4 -18 7 -21 14 -7 14 6 0 13 -4 16
-10z m1988 -55 c-18 -25 -34 -28 -41 -7 -2 6 8 14 22 18 15 3 23 11 19 17 -3
6 -1 7 5 3 9 -5 7 -14 -5 -31z m-838 0 c9 -11 14 -14 10 -7 -15 30 105 -19
139 -57 11 -12 27 -21 37 -21 10 0 25 -8 34 -17 16 -15 16 -18 1 -28 -15 -11
-14 -16 3 -56 35 -82 46 -171 31 -246 -16 -82 -55 -174 -72 -171 -7 2 -14 -7
-16 -20 -2 -12 -8 -20 -13 -16 -5 3 -24 -10 -42 -29 -18 -20 -63 -50 -102 -69
-72 -34 -91 -61 -65 -93 7 -9 7 -14 1 -17 -6 -1 -11 -32 -12 -66 -1 -35 -5
-58 -9 -52 -5 8 -18 10 -34 6 -27 -7 -32 4 -26 58 1 10 -4 29 -11 42 -10 19
-9 26 1 39 20 24 -9 47 -110 90 -46 20 -103 51 -125 70 -108 88 -164 321 -110
452 12 28 11 32 -6 36 -24 7 -24 18 2 51 14 18 29 26 45 24 16 -2 35 9 61 34
22 21 65 47 103 62 56 21 79 25 167 23 88 -2 105 -5 118 -22z m-961 7 c2 -4
-4 -8 -14 -8 -10 0 -16 4 -14 8 3 4 9 8 14 8 5 0 11 -4 14 -8z m4966 -2 c0 -5
-2 -10 -4 -10 -3 0 -8 5 -11 10 -3 6 -1 10 4 10 6 0 11 -4 11 -10z m-278 -39
c88 -25 101 -34 63 -42 l-30 -7 35 -2 c33 -2 33 -3 10 -10 -23 -7 -22 -8 10
-9 26 -1 31 -4 20 -11 -15 -10 -10 -11 58 -14 43 -2 105 -111 124 -216 13 -75
0 -150 -40 -222 -23 -43 -78 -107 -58 -68 4 8 -1 5 -11 -7 -10 -12 -58 -45
-108 -73 -91 -52 -135 -89 -135 -115 0 -8 9 -29 20 -47 11 -18 20 -40 20 -48
-1 -8 -8 -3 -16 13 -24 45 -32 31 -16 -31 10 -38 13 -67 7 -87 l-9 -30 -5 39
c-7 47 -31 67 -56 46 -12 -10 -16 -24 -12 -50 l5 -35 -15 35 c-10 24 -13 50
-8 87 7 59 -8 74 -20 21 -7 -28 -9 -29 -12 -11 -2 12 3 36 12 53 14 27 15 37
4 62 -14 34 -55 57 -157 88 -86 26 -125 51 -168 107 -54 71 -78 145 -77 242 1
58 6 88 15 98 8 7 59 29 114 48 54 18 94 34 87 34 -7 1 -51 -12 -100 -28 -48
-17 -89 -28 -92 -25 -10 10 17 22 87 39 40 10 71 19 69 22 -3 2 -32 -3 -65
-11 -71 -19 -75 -19 -67 -6 3 6 16 10 28 10 15 0 18 3 10 8 -9 6 -2 18 25 44
115 111 296 154 454 109z m551 -32 c93 -14 126 -32 127 -65 0 -38 -140 -121
-298 -178 -95 -34 -89 -13 7 25 150 60 224 130 175 166 -26 19 -83 33 -129 32
-32 -1 -27 -3 23 -10 66 -8 112 -30 112 -52 0 -15 -41 -55 -80 -79 -42 -25
-183 -79 -189 -72 -3 4 0 9 7 12 8 2 29 18 48 35 49 42 44 75 -16 104 -25 12
-63 23 -85 24 -22 1 -49 7 -60 13 -17 9 -11 12 40 17 l60 6 -67 0 c-119 -1
-93 20 32 26 153 7 225 6 293 -4z m-3818 -15 c48 -31 17 -124 -41 -124 -56 0
-87 93 -42 124 29 20 52 20 83 0z m-3035 -98 c0 -24 -16 -43 -27 -32 -8 8 6
56 17 56 6 0 10 -11 10 -24z m5600 4 c0 -5 -4 -10 -10 -10 -5 0 -10 5 -10 10
0 6 5 10 10 10 6 0 10 -4 10 -10z m-1456 -16 c6 -15 4 -15 -11 -3 -10 7 -20
15 -22 16 -2 2 3 3 11 3 9 0 19 -7 22 -16z m1616 -23 c0 -4 -35 -21 -77 -36
-156 -55 -273 -118 -273 -147 0 -7 12 0 28 14 47 44 164 100 280 133 41 12 23
-13 -37 -49 -85 -52 -104 -82 -76 -119 14 -19 99 -50 109 -40 3 4 6 1 6 -5 0
-7 -35 -12 -102 -15 l-103 -3 108 -2 c71 -1 107 -6 107 -13 0 -8 -50 -10 -173
-8 -151 4 -176 7 -207 25 -59 34 -53 61 24 112 36 23 82 50 103 59 29 13 268
100 281 102 1 1 2 -3 2 -8z m2173 -26 c-3 -9 -8 -14 -10 -11 -3 3 -2 9 2 15 9
16 15 13 8 -4z m-4533 -80 c0 -7 8 -19 18 -24 14 -9 12 -10 -15 -11 -31 0 -61
28 -46 44 12 12 43 6 43 -9z m405 -5 c3 -11 13 -20 21 -20 8 0 12 -4 9 -10 -9
-14 -48 -13 -63 2 -7 7 -12 20 -12 30 0 25 37 23 45 -2z m-1800 -69 c0 -8 -4
-16 -10 -18 -16 -5 -38 14 -30 26 9 16 40 9 40 -8z m1402 13 c-3 -3 -12 -4
-19 -1 -8 3 -5 6 6 6 11 1 17 -2 13 -5z m5406 -139 c-3 -9 -8 -14 -10 -11 -3
3 -2 9 2 15 9 16 15 13 8 -4z m-3443 -35 c0 -5 -2 -10 -4 -10 -3 0 -8 5 -11
10 -3 6 -1 10 4 10 6 0 11 -4 11 -10z m-1637 -50 c-3 -12 -8 -19 -11 -16 -5 6
5 36 12 36 2 0 2 -9 -1 -20z m47 -11 c0 -5 -4 -7 -10 -4 -5 3 -10 1 -10 -4 0
-6 -4 -11 -10 -11 -5 0 -10 7 -10 15 0 8 9 15 20 15 11 0 20 -5 20 -11z m4847
-92 c-1 -60 2 -79 21 -111 28 -47 19 -61 -45 -74 -54 -12 -89 4 -99 44 -6 22
-1 33 41 90 13 19 -6 48 -34 52 -11 2 -21 7 -21 12 0 10 17 16 73 26 21 3 41
13 44 20 13 35 22 8 20 -59z m-8397 14 c0 -5 -7 -14 -15 -21 -12 -10 -18 -10
-32 1 -10 7 -20 15 -22 16 -3 2 4 10 15 17 19 14 54 6 54 -13z m4376 -17 c1
-59 2 -62 27 -85 21 -21 21 -21 1 -11 -24 13 -54 78 -54 118 0 43 25 22 26
-22z m3813 -4 c17 -7 45 -10 63 -6 43 7 58 -3 47 -31 -5 -13 -13 -23 -19 -23
-5 0 -15 -20 -21 -45 -8 -32 -16 -45 -29 -45 -9 0 -29 -9 -43 -20 -36 -29 -48
-25 -40 11 3 17 0 40 -7 54 -9 17 -10 43 -5 92 5 50 10 62 15 47 5 -11 22 -27
39 -34z m-8249 -5 c16 -19 3 -40 -16 -24 -15 13 -19 39 -5 39 5 0 14 -7 21
-15z m8149 -51 c3 -17 2 -17 -20 -3 -32 22 -37 41 -7 30 13 -4 25 -17 27 -27z
m-7776 -21 c8 -7 -11 -33 -24 -33 -5 0 -9 9 -9 20 0 19 20 27 33 13z m-43 -18
c0 -8 -9 -15 -20 -15 -13 0 -18 5 -14 15 4 8 12 15 20 15 8 0 14 -7 14 -15z
m-50 -9 c0 -3 -4 -8 -10 -11 -5 -3 -10 -1 -10 4 0 6 5 11 10 11 6 0 10 -2 10
-4z m-34 -81 c0 -42 -4 -61 -10 -55 -16 16 -56 11 -63 -7 -5 -12 -11 -3 -20
32 -17 66 -16 74 5 74 31 1 61 7 68 14 16 15 19 4 20 -58z m35 32 l-24 -22 19
27 c10 14 21 24 23 22 3 -3 -6 -15 -18 -27z m963 -29 c1 -39 4 -43 30 -48 16
-3 31 -11 32 -18 1 -7 0 -8 -3 -2 -2 5 -17 10 -33 10 -32 0 -40 14 -40 72 0
54 13 40 14 -14z m18 10 c-7 -7 -12 -8 -12 -2 0 6 3 14 7 17 3 4 9 5 12 2 2
-3 -1 -11 -7 -17z m3264 2 c0 -12 -4 -16 -9 -11 -5 5 -6 14 -3 20 10 15 12 14
12 -9z m3850 -62 c-8 -13 -5 -24 13 -48 19 -26 20 -34 10 -48 -12 -16 -12 -16
5 0 18 16 18 18 -4 53 -12 20 -20 39 -16 42 7 7 7 8 34 -40 30 -51 28 -60 -13
-80 -51 -24 -58 -22 -51 16 5 27 2 38 -18 56 l-24 22 -6 -24 c-3 -14 -3 -40 1
-58 6 -32 6 -32 -28 -25 -54 11 -61 24 -48 84 7 29 17 52 23 52 6 0 2 7 -8 15
-16 12 -17 15 -4 15 9 0 18 6 21 14 10 26 59 23 93 -4 24 -20 28 -28 20 -42z
m-6306 36 c0 -17 -26 -19 -36 -3 -7 12 15 31 28 23 4 -3 8 -12 8 -20z m307 4
c-3 -8 -6 -5 -6 6 -1 11 2 17 5 13 3 -3 4 -12 1 -19z m2303 -2 c0 -3 -4 -8
-10 -11 -5 -3 -10 -1 -10 4 0 6 5 11 10 11 6 0 10 -2 10 -4z m3745 -6 c-3 -5
-12 -10 -18 -10 -7 0 -6 4 3 10 19 12 23 12 15 0z m-7155 -10 c0 -5 -2 -10 -4
-10 -3 0 -8 5 -11 10 -3 6 -1 10 4 10 6 0 11 -4 11 -10z m50 -10 c0 -5 -2 -10
-4 -10 -3 0 -8 5 -11 10 -3 6 -1 10 4 10 6 0 11 -4 11 -10z m47 -72 c-3 -8 -6
-5 -6 6 -1 11 2 17 5 13 3 -3 4 -12 1 -19z m465 -73 c0 -5 -5 -11 -11 -13 -6
-2 -11 4 -11 13 0 9 5 15 11 13 6 -2 11 -8 11 -13z m-764 -77 c-2 -12 -9 -23
-15 -26 -19 -6 -29 28 -12 39 23 14 31 10 27 -13z m3012 -128 c0 -5 -4 -10
-10 -10 -5 0 -10 5 -10 10 0 6 5 10 10 10 6 0 10 -4 10 -10z m-2717 -115 c7
-16 -8 -29 -23 -20 -15 9 -12 35 4 35 8 0 16 -7 19 -15z m-1572 -38 c-10 -9
-11 -8 -5 6 3 10 9 15 12 12 3 -3 0 -11 -7 -18z m2943 2 c-3 -5 -10 -7 -15 -3
-5 3 -7 10 -3 15 3 5 10 7 15 3 5 -3 7 -10 3 -15z m-444 -53 c0 -3 -4 -8 -10
-11 -5 -3 -10 -1 -10 4 0 6 5 11 10 11 6 0 10 -2 10 -4z m-2600 -137 c0 -5 -4
-9 -10 -9 -5 0 -10 7 -10 16 0 8 5 12 10 9 6 -3 10 -10 10 -16z m7240 -18 c0
-12 -20 -25 -27 -18 -7 7 6 27 18 27 5 0 9 -4 9 -9z m280 -202 c0 -6 -4 -7
-10 -4 -5 3 -10 11 -10 16 0 6 5 7 10 4 6 -3 10 -11 10 -16z m-4315 -299 c3
-5 1 -10 -4 -10 -6 0 -11 5 -11 10 0 6 2 10 4 10 3 0 8 -4 11 -10z m4845 -11
c0 -15 -4 -19 -16 -15 -9 3 -18 6 -20 6 -2 0 -4 7 -4 15 0 8 9 15 20 15 14 0
20 -7 20 -21z"/>
<path d="M7985 2249 c-4 -6 -5 -12 -2 -15 2 -3 7 2 10 11 7 17 1 20 -8 4z"/>
<path d="M8017 2253 c-4 -3 -7 -11 -7 -17 0 -6 5 -5 12 2 6 6 9 14 7 17 -3 3
-9 2 -12 -2z"/>
<path d="M7846 2214 c-22 -21 -20 -57 3 -85 25 -30 47 -19 68 34 12 30 13 40
3 52 -16 20 -54 19 -74 -1z m54 -4 c12 -8 9 -10 -12 -10 -21 0 -28 -5 -28 -20
0 -11 7 -23 15 -26 20 -8 19 -24 0 -24 -9 0 -20 12 -25 26 -13 32 -13 30 6 48
18 18 24 19 44 6z"/>
<path d="M7959 2018 c11 -30 4 -68 -16 -90 -9 -10 -14 -21 -11 -24 13 -12 48
41 48 72 0 38 -9 64 -21 64 -5 0 -5 -10 0 -22z"/>
<path d="M7772 1884 c-40 -28 -19 -124 27 -124 26 0 37 18 45 72 6 40 4 48
-13 57 -26 14 -32 14 -59 -5z m56 -21 c2 -8 -6 -13 -21 -13 -14 0 -27 -6 -30
-14 -6 -16 11 -36 30 -36 18 0 16 -17 -2 -24 -31 -12 -59 66 -33 92 15 15 50
12 56 -5z"/>
<path d="M7847 1703 c-4 -3 -7 -13 -7 -22 1 -13 3 -13 11 2 11 19 8 33 -4 20z"/>
<path d="M7870 1680 c0 -5 5 -10 10 -10 6 0 10 5 10 10 0 6 -4 10 -10 10 -5 0
-10 -4 -10 -10z"/>
<path d="M9128 2393 c17 -2 47 -2 65 0 17 2 3 4 -33 4 -36 0 -50 -2 -32 -4z"/>
<path d="M9258 2383 c7 -3 16 -2 19 1 4 3 -2 6 -13 5 -11 0 -14 -3 -6 -6z"/>
<path d="M9308 2373 c15 -6 37 -24 101 -83 24 -22 46 -40 49 -40 12 0 -64 72
-90 86 -16 8 -28 21 -28 29 0 9 -9 15 -22 14 -13 0 -17 -3 -10 -6z"/>
<path d="M8779 2263 c-13 -16 -12 -17 4 -4 16 13 21 21 13 21 -2 0 -10 -8 -17
-17z"/>
<path d="M9449 2221 c6 -10 7 -22 3 -26 -4 -5 -1 -5 6 -1 9 5 9 12 2 27 -6 10
-13 19 -16 19 -2 0 0 -8 5 -19z"/>
<path d="M9170 2185 c-36 -39 -19 -59 54 -63 66 -4 81 13 49 56 -28 38 -71 41
-103 7z m84 -1 c22 -21 21 -58 0 -50 -9 3 -19 6 -23 6 -5 0 -6 12 -3 26 4 20
1 25 -9 22 -8 -3 -13 -17 -12 -32 1 -21 -2 -26 -15 -24 -23 4 -27 32 -7 52 21
20 49 21 69 0z"/>
<path d="M9476 2175 c4 -11 15 -47 25 -80 15 -47 18 -51 13 -20 -3 22 -14 58
-25 80 -11 22 -16 31 -13 20z"/>
<path d="M8761 2134 c-23 -29 -25 -42 -12 -62 6 -11 17 -11 55 -1 53 13 64 28
48 65 -16 34 -63 33 -91 -2z m70 6 c19 -11 26 -35 11 -44 -4 -2 -24 -7 -45
-11 -31 -6 -37 -5 -37 11 0 19 27 54 42 54 5 0 18 -5 29 -10z"/>
<path d="M8780 2110 c0 -13 5 -20 13 -17 6 2 12 10 12 17 0 7 -6 15 -12 18 -8
2 -13 -5 -13 -18z"/>
<path d="M8987 2021 c-21 -5 -46 -15 -55 -25 -14 -14 -14 -18 -2 -30 22 -19
219 -10 227 11 3 8 -1 21 -8 28 -18 17 -112 26 -162 16z m137 -17 c9 -3 16
-12 16 -19 0 -10 -22 -13 -92 -12 -89 2 -120 13 -81 28 22 9 136 11 157 3z"/>
<path d="M9497 1982 c-21 -23 -21 -36 0 -53 15 -13 15 -12 3 8 -12 19 -12 24
4 42 11 12 17 21 14 21 -3 0 -12 -8 -21 -18z"/>
<path d="M9485 1900 c-4 -6 -11 -7 -17 -4 -7 5 -8 2 -3 -6 4 -7 2 -16 -6 -20
-7 -5 -14 -16 -15 -24 -1 -9 2 -14 7 -10 5 3 7 10 4 15 -4 5 -2 9 3 9 5 0 17
11 26 25 9 14 14 25 12 25 -3 0 -8 -5 -11 -10z"/>
<path d="M9423 1816 c0 -7 6 -13 14 -13 7 0 13 4 13 8 0 4 -6 9 -13 12 -8 3
-14 0 -14 -7z"/>
<path d="M9393 1768 c-9 -10 -13 -18 -8 -18 4 0 1 -8 -6 -17 -12 -15 -10 -15
8 1 12 10 21 23 20 28 -1 6 6 12 16 13 27 5 33 14 8 12 -12 -1 -29 -9 -38 -19z"/>
<path d="M9241 1714 c0 -11 3 -14 6 -6 3 7 2 16 -1 19 -3 4 -6 -2 -5 -13z"/>
<path d="M8840 1686 c0 -2 8 -10 18 -17 15 -13 16 -12 3 4 -13 16 -21 21 -21
13z"/>
<path d="M8812 1630 c0 -19 2 -27 5 -17 2 9 2 25 0 35 -3 9 -5 1 -5 -18z"/>
<path d="M8887 1649 c7 -7 15 -10 18 -7 3 3 -2 9 -12 12 -14 6 -15 5 -6 -5z"/>
<path d="M5025 2179 c-4 -6 -5 -12 -2 -15 2 -3 7 2 10 11 7 17 1 20 -8 4z"/>
<path d="M5287 2106 c-64 -17 -86 -38 -66 -62 52 -63 234 -76 271 -20 18 27 7
47 -38 66 -63 27 -110 32 -167 16z"/>
<path d="M5512 1903 c-11 -10 -23 -31 -26 -47 -6 -25 -5 -27 11 -20 10 5 37 8
61 7 35 0 42 3 42 18 0 22 -34 59 -54 59 -8 0 -23 -8 -34 -17z m58 -23 c0 -16
-7 -20 -35 -20 -19 0 -35 5 -35 11 0 6 8 8 19 4 10 -3 24 1 31 10 16 20 20 19
20 -5z"/>
<path d="M5077 1893 c-21 -25 -27 -69 -7 -64 8 2 33 4 56 3 39 0 41 1 36 26
-3 15 -9 33 -15 40 -14 18 -51 15 -70 -5z m63 -35 c0 -5 -13 -8 -30 -8 -27 0
-40 17 -25 32 7 7 55 -14 55 -24z"/>
<path d="M5630 1812 c0 -24 30 -38 42 -20 10 17 10 28 -1 28 -5 0 -16 3 -25 6
-11 4 -16 0 -16 -14z"/>
<path d="M5028 1813 c-20 -5 -24 -23 -5 -23 8 0 7 -3 -3 -10 -20 -12 -9 -21
18 -13 23 6 30 23 10 23 -10 0 -9 3 1 9 16 10 3 19 -21 14z"/>
<path d="M5077 1789 c7 -7 15 -10 18 -7 3 3 -2 9 -12 12 -14 6 -15 5 -6 -5z"/>
<path d="M5592 1791 c2 -7 7 -12 11 -12 12 1 9 15 -3 20 -7 2 -11 -2 -8 -8z"/>
<path d="M5101 1761 c-8 -5 -9 -11 -3 -15 5 -3 12 1 16 9 6 17 6 18 -13 6z"/>
<path d="M5223 1753 c0 -9 4 -10 13 -2 21 17 33 2 24 -31 -6 -22 -4 -32 8 -42
15 -12 16 -11 4 4 -12 15 -11 18 12 24 14 3 37 3 51 0 20 -5 25 -3 25 13 0 11
-4 23 -10 26 -5 3 -10 1 -10 -4 0 -6 -15 -11 -34 -11 -28 0 -34 3 -31 18 2 14
-3 18 -24 18 -16 0 -28 -5 -28 -13z"/>
<path d="M5225 1701 c-3 -5 -2 -12 3 -15 5 -3 9 1 9 9 0 17 -3 19 -12 6z"/>
<path d="M5290 1690 c0 -13 11 -13 30 0 12 8 11 10 -7 10 -13 0 -23 -4 -23
-10z"/>
<path d="M900 2256 c-79 -42 -111 -91 -81 -127 24 -29 54 -21 109 30 23 22 51
43 62 46 26 8 25 30 0 55 -25 25 -34 25 -90 -4z m84 -5 c35 -38 -2 -54 -43
-20 -21 17 -22 22 -10 30 21 13 34 11 53 -10z m-69 -23 c28 -13 32 -30 10 -48
-14 -12 -27 -8 -57 18 -17 14 -17 16 0 28 21 16 16 16 47 2z m-31 -89 c-9 -10
-25 -19 -35 -19 -33 0 -44 53 -16 72 6 4 24 -3 40 -14 27 -19 27 -21 11 -39z"/>
<path d="M1172 2008 c-7 -7 -12 -16 -12 -22 0 -5 -9 -29 -21 -53 -23 -48 -20
-73 10 -73 35 0 72 41 78 87 8 59 -23 93 -55 61z m46 -24 c3 -18 -1 -21 -22
-17 -29 6 -28 5 -20 28 9 22 38 14 42 -11z m-12 -36 c5 -7 3 -8 -7 -3 -12 8
-12 6 0 -8 18 -22 9 -31 -24 -23 -22 6 -24 9 -15 26 12 22 35 26 46 8z m-32
-44 c13 -5 14 -9 5 -20 -18 -21 -49 -17 -49 6 0 20 15 25 44 14z"/>
<path d="M1180 1740 c-8 -5 -12 -11 -10 -13 10 -8 100 5 94 14 -7 12 -65 11
-84 -1z"/>
<path d="M883 1733 c-29 -11 -10 -18 39 -14 39 3 48 6 33 12 -23 9 -54 10 -72
2z"/>
<path d="M1290 1706 c0 -2 7 -7 16 -10 8 -3 12 -2 9 4 -6 10 -25 14 -25 6z"/>
<path d="M1275 1680 c3 -5 11 -10 16 -10 6 0 7 5 4 10 -3 6 -11 10 -16 10 -6
0 -7 -4 -4 -10z"/>
<path d="M816 1671 c-4 -5 3 -7 14 -4 23 6 26 13 6 13 -8 0 -17 -4 -20 -9z"/>
<path d="M828 1643 c7 -3 16 -2 19 1 4 3 -2 6 -13 5 -11 0 -14 -3 -6 -6z"/>
<path d="M1015 1619 c-5 -7 11 -9 49 -7 31 2 56 6 56 10 0 12 -98 9 -105 -3z"/>
<path d="M2049 2011 c-22 -18 -22 -19 -6 -45 14 -21 25 -26 57 -26 63 0 91 44
48 74 -30 21 -71 20 -99 -3z m97 -40 c-11 -17 -83 -14 -89 4 -5 12 -2 12 19 3
20 -9 28 -8 41 5 18 18 41 8 29 -12z"/>
<path d="M1750 1984 c-8 -2 -32 -5 -52 -9 -31 -5 -38 -10 -38 -29 0 -13 8 -30
18 -39 40 -36 112 -9 112 42 0 29 -12 39 -40 35z m20 -38 c0 -7 -6 -19 -14
-25 -17 -15 -68 -11 -73 5 -2 7 6 10 21 7 18 -4 28 0 32 11 7 20 34 21 34 2z"/>
<path d="M2170 1930 c0 -5 7 -10 15 -10 8 0 15 5 15 10 0 6 -7 10 -15 10 -8 0
-15 -4 -15 -10z"/>
<path d="M2140 1925 c0 -8 32 -35 41 -35 18 0 9 15 -16 27 -14 6 -25 10 -25 8z"/>
<path d="M1655 1870 c-3 -5 1 -10 9 -10 9 0 16 5 16 10 0 6 -4 10 -9 10 -6 0
-13 -4 -16 -10z"/>
<path d="M1896 1856 c-43 -12 -63 -34 -52 -61 4 -13 12 -15 29 -10 12 4 38 9
57 12 68 8 80 13 80 33 0 35 -44 46 -114 26z"/>
<path d="M1665 1841 c-3 -6 4 -9 15 -8 11 1 20 5 20 9 0 11 -28 10 -35 -1z"/>
<path d="M1910 1770 c0 -5 4 -10 9 -10 6 0 13 5 16 10 3 6 -1 10 -9 10 -9 0
-16 -4 -16 -10z"/>
<path d="M3327 2052 c-40 -44 -4 -88 57 -71 15 5 33 7 40 6 16 -3 8 44 -11 66
-21 22 -65 22 -86 -1z m55 -19 c-8 -42 -46 -60 -59 -28 -7 19 24 55 47 55 13
0 16 -6 12 -27z"/>
<path d="M2930 1995 c-20 -21 -22 -30 -14 -53 9 -24 14 -27 49 -24 42 3 85 25
85 43 0 19 -49 59 -73 59 -13 0 -34 -11 -47 -25z m62 -25 c-3 -21 -10 -30 -23
-30 -11 0 -22 -1 -26 -2 -13 -5 -15 32 -3 47 7 8 22 15 34 15 19 0 22 -4 18
-30z"/>
<path d="M3448 1953 c7 -3 16 -2 19 1 4 3 -2 6 -13 5 -11 0 -14 -3 -6 -6z"/>
<path d="M3448 1923 c6 -2 18 -2 25 0 6 3 1 5 -13 5 -14 0 -19 -2 -12 -5z"/>
<path d="M2875 1870 c-19 -8 -19 -9 3 -9 12 -1 22 4 22 9 0 6 -1 10 -2 9 -2 0
-12 -4 -23 -9z"/>
<path d="M3267 1853 c-13 -13 -34 -18 -77 -18 -62 0 -79 -10 -35 -21 38 -9 92
4 122 31 16 13 23 25 18 25 -6 0 -19 -8 -28 -17z"/>
<path d="M2876 1831 c-4 -5 3 -7 14 -4 23 6 26 13 6 13 -8 0 -17 -4 -20 -9z"/>
<path d="M3456 1809 c-3 -19 -2 -37 4 -43 8 -8 9 -6 4 7 -3 9 -1 23 4 30 6 7
7 19 3 26 -6 8 -10 2 -15 -20z"/>
<path d="M3430 1725 c-6 -19 -16 -35 -21 -35 -5 0 -4 -6 3 -14 13 -14 32 0 22
16 -3 5 2 15 10 24 18 18 20 30 7 39 -5 3 -15 -11 -21 -30z"/>
<path d="M2985 1710 l-40 -7 35 -1 c19 0 46 4 60 8 32 10 2 10 -55 0z"/>
<path d="M3315 1650 c-3 -5 -2 -10 4 -10 5 0 13 5 16 10 3 6 2 10 -4 10 -5 0
-13 -4 -16 -10z"/>
<path d="M6943 2163 c9 -2 23 -2 30 0 6 3 -1 5 -18 5 -16 0 -22 -2 -12 -5z"/>
<path d="M6883 2153 c9 -2 23 -2 30 0 6 3 -1 5 -18 5 -16 0 -22 -2 -12 -5z"/>
<path d="M6818 2143 c6 -2 18 -2 25 0 6 3 1 5 -13 5 -14 0 -19 -2 -12 -5z"/>
<path d="M6963 2143 c9 -2 25 -2 35 0 9 3 1 5 -18 5 -19 0 -27 -2 -17 -5z"/>
<path d="M6768 2133 c6 -2 18 -2 25 0 6 3 1 5 -13 5 -14 0 -19 -2 -12 -5z"/>
<path d="M6915 2130 c30 -8 142 -13 134 -6 -2 2 -40 6 -84 8 -45 3 -67 2 -50
-2z"/>
<path d="M6718 2123 c6 -2 18 -2 25 0 6 3 1 5 -13 5 -14 0 -19 -2 -12 -5z"/>
<path d="M6845 2119 c13 -6 4 -7 -29 -2 -35 4 -47 2 -42 -6 4 -7 2 -9 -8 -5
-23 9 -132 -16 -115 -27 11 -7 10 -9 -5 -9 -11 0 -17 -3 -14 -6 3 -3 32 2 64
10 33 8 100 21 149 28 71 10 84 14 60 19 -16 4 -41 7 -55 7 -23 1 -23 0 -5 -9z
m-148 -35 c-3 -3 -12 -4 -19 -1 -8 3 -5 6 6 6 11 1 17 -2 13 -5z"/>
<path d="M6668 2113 c7 -3 16 -2 19 1 4 3 -2 6 -13 5 -11 0 -14 -3 -6 -6z"/>
<path d="M6595 2100 c-25 -11 1 -11 35 0 20 6 21 8 5 8 -11 0 -29 -3 -40 -8z"/>
<path d="M6538 2083 c6 -2 18 -2 25 0 6 3 1 5 -13 5 -14 0 -19 -2 -12 -5z"/>
<path d="M6598 2073 c7 -3 16 -2 19 1 4 3 -2 6 -13 5 -11 0 -14 -3 -6 -6z"/>
<path d="M7009 2046 c-13 -6 -24 -20 -24 -31 0 -17 9 -21 50 -25 28 -3 55 -9
62 -13 19 -12 43 4 43 29 0 13 -8 27 -17 32 -32 16 -90 21 -114 8z m41 -21 c0
-9 -7 -18 -16 -22 -18 -7 -39 11 -30 26 11 17 46 13 46 -4z m73 -9 c6 -15 -1
-26 -15 -26 -4 0 -8 9 -8 20 0 23 15 27 23 6z"/>
<path d="M6502 1993 c-35 -17 -52 -57 -33 -76 9 -9 17 -8 33 2 12 7 42 16 67
20 57 8 67 32 22 55 -37 20 -48 20 -89 -1z m87 -16 c13 -16 5 -27 -21 -27 -11
0 -18 7 -18 20 0 23 22 27 39 7z m-93 -44 c-11 -11 -19 6 -11 24 8 17 8 17 12
0 3 -10 2 -21 -1 -24z"/>
<path d="M7140 1930 c0 -5 9 -10 20 -10 11 0 20 5 20 10 0 6 -9 10 -20 10 -11
0 -20 -4 -20 -10z"/>
<path d="M6887 1900 c-26 -26 -78 -33 -126 -16 -44 15 -58 2 -15 -14 56 -22
164 2 164 36 0 17 -1 17 -23 -6z"/>
<path d="M7145 1900 c3 -5 16 -10 28 -10 18 0 19 2 7 10 -20 13 -43 13 -35 0z"/>
<path d="M6450 1865 c-16 -19 0 -19 26 0 16 12 16 14 3 15 -9 0 -22 -7 -29
-15z"/>
<path d="M6464 1845 c-10 -8 -14 -14 -9 -15 15 0 40 18 34 24 -3 3 -14 -1 -25
-9z"/>
<path d="M7288 2173 c12 -2 30 -2 40 0 9 3 -1 5 -23 4 -22 0 -30 -2 -17 -4z"/>
<path d="M6066 1827 c8 -22 55 -47 86 -46 25 1 19 4 -24 13 -15 4 -37 16 -48
29 -16 17 -20 18 -14 4z"/>
<path d="M9111 1335 c-1 -22 33 -32 44 -14 4 5 -3 9 -14 9 -10 0 -22 6 -24 13
-3 6 -6 3 -6 -8z"/>
<path d="M9106 1249 c-3 -17 -3 -37 2 -44 4 -8 8 5 9 31 2 52 -2 56 -11 13z"/>
<path d="M9185 1260 c10 -11 20 -20 23 -20 3 0 -3 9 -13 20 -10 11 -20 20 -23
20 -3 0 3 -9 13 -20z"/>
<path d="M9076 1244 c-10 -26 -7 -42 10 -48 14 -5 15 -4 5 8 -7 8 -10 24 -6
36 7 23 0 27 -9 4z"/>
</g>
</svg>
