<?xml version="1.0" standalone="no"?>
<!DOCTYPE svg PUBLIC "-//W3C//DTD SVG 20010904//EN"
 "http://www.w3.org/TR/2001/REC-SVG-20010904/DTD/svg10.dtd">
<svg version="1.0" xmlns="http://www.w3.org/2000/svg"
 width="899.000000pt" height="390.000000pt" viewBox="0 0 899.000000 390.000000"
 preserveAspectRatio="xMidYMid meet">

<g transform="translate(0.000000,390.000000) scale(0.100000,-0.100000)"
fill="#000000" stroke="none">
<path d="M0 1950 l0 -1950 3582 0 c2514 0 3579 3 3571 11 -5 5 -52 13 -104 17
-64 4 -83 8 -59 12 48 7 63 38 55 114 -4 39 -12 64 -23 72 -9 7 -17 18 -17 26
0 7 -22 24 -50 38 -42 21 -63 25 -134 24 -70 0 -81 2 -66 12 16 12 16 15 -11
43 -33 35 -70 45 -234 63 -123 14 -195 15 -330 5 -81 -5 -87 -4 -155 28 -124
59 -133 62 -241 60 -112 -2 -124 2 -147 57 -18 43 -47 64 -102 74 -41 7 -111
39 -120 55 -3 4 -74 6 -158 3 -539 -20 -676 -21 -749 -7 -49 9 -76 9 -98 1
-17 -6 -33 -8 -35 -6 -3 3 3 23 13 46 16 39 19 41 48 36 72 -13 176 83 204
188 6 20 15 38 21 40 5 2 12 32 14 68 4 62 4 64 -10 35 -8 -16 -14 -38 -15
-47 0 -10 -15 -35 -32 -55 -18 -21 -38 -47 -44 -58 -6 -11 -26 -25 -44 -31
-18 -6 -39 -19 -45 -28 -11 -15 -14 -14 -28 8 -9 14 -33 30 -53 38 -33 11 -35
15 -30 43 11 53 19 148 17 204 -1 47 0 52 14 41 22 -18 18 3 -6 35 -18 22 -20
29 -8 36 11 7 8 9 -8 9 -22 0 -31 14 -16 23 5 2 3 2 -4 1 -7 -2 -25 1 -41 7
-27 9 -28 11 -21 57 4 26 11 59 15 75 4 16 2 33 -6 42 -11 13 -8 14 21 9 19
-4 36 -7 39 -6 23 0 30 4 27 14 -1 6 6 14 17 16 11 2 16 0 12 -7 -4 -6 -1 -9
7 -5 9 3 12 14 9 32 -5 24 -3 25 11 14 9 -8 21 -11 27 -7 6 4 22 4 35 1 17 -4
22 -11 18 -26 -4 -15 -11 -19 -25 -14 -26 8 -38 -10 -38 -57 0 -24 -5 -39 -16
-43 -10 -4 -14 -15 -12 -33 2 -22 -1 -28 -14 -27 -10 1 -18 -4 -18 -11 0 -7
-3 -22 -6 -32 -5 -17 -5 -17 9 0 17 21 24 22 24 2 0 -8 -4 -15 -8 -15 -3 0 -9
-14 -11 -32 -5 -28 -4 -29 9 -13 7 11 13 14 13 9 0 -6 -5 -15 -12 -22 -10 -10
-8 -16 5 -29 11 -11 17 -13 17 -5 0 7 5 12 12 12 9 0 9 -3 0 -12 -20 -20 -14
-36 12 -34 18 1 22 4 14 14 -7 8 -7 16 1 25 6 8 9 16 6 19 -3 3 1 11 10 18 11
9 15 9 15 1 0 -7 5 -9 10 -6 12 7 14 26 2 22 -4 -1 -8 2 -9 7 -1 5 -12 14 -24
20 -27 13 -29 30 -5 34 12 3 16 0 12 -7 -4 -6 1 -14 10 -18 10 -4 19 -2 22 5
2 7 8 12 13 12 5 0 18 9 29 20 11 11 16 20 10 20 -18 0 -11 25 11 39 18 11 23
11 30 -1 11 -17 11 -31 0 -24 -5 3 -12 -1 -15 -10 -9 -24 -8 -26 15 -13 12 6
32 9 45 6 13 -2 24 0 24 5 0 5 7 2 16 -6 8 -9 20 -16 25 -16 15 0 10 37 -7 55
-32 31 32 64 65 33 8 -8 11 -8 8 -2 -8 13 19 22 46 16 12 -2 15 -7 9 -15 -6
-8 -1 -20 14 -35 13 -12 24 -20 24 -17 0 3 13 -2 30 -12 16 -9 29 -22 29 -28
-1 -5 -1 -19 0 -30 2 -19 3 -18 11 2 10 25 25 30 36 11 5 -8 2 -9 -9 -5 -21 8
-23 -18 -3 -39 8 -7 12 -23 9 -34 -4 -14 0 -20 11 -20 9 0 16 5 16 10 0 6 9
10 20 10 17 0 19 -4 11 -17 -10 -19 10 -48 24 -35 5 4 5 -4 2 -18 -4 -14 -7
-32 -7 -41 0 -9 -13 -22 -29 -29 -29 -12 -36 -40 -13 -48 7 -2 12 -10 12 -18
0 -8 5 -14 10 -14 6 0 10 -12 10 -26 0 -14 4 -23 9 -19 5 3 12 1 16 -5 3 -5
13 -10 21 -10 13 0 13 3 -2 18 -17 16 -17 17 1 21 10 2 24 -5 31 -14 12 -16
14 -16 28 -2 9 9 13 24 10 34 -3 10 -2 14 3 8 15 -19 35 -17 25 2 -8 16 -26
90 -25 103 0 3 4 16 8 30 5 19 4 21 -4 10 -9 -12 -11 -11 -11 8 0 13 -4 20
-10 17 -6 -3 -7 1 -4 9 5 14 8 14 21 1 8 -8 17 -15 20 -15 4 0 4 3 0 6 -3 3
-1 12 5 18 13 13 66 9 85 -6 7 -6 20 -8 28 -4 9 3 18 -1 22 -9 3 -10 15 -14
31 -13 15 2 27 -2 27 -9 0 -22 15 -26 15 -5 0 26 18 29 27 6 4 -10 -1 -22 -10
-29 -18 -13 -24 -30 -7 -20 5 3 10 1 10 -6 0 -8 4 -8 13 -1 6 5 21 12 32 15
18 4 18 5 -2 6 -24 1 -31 15 -13 26 6 4 8 10 5 15 -3 5 -1 12 5 15 6 4 9 3 8
-2 -6 -16 7 -16 36 -1 29 15 29 16 8 22 -12 4 -19 12 -16 18 4 7 9 7 13 0 4
-7 13 -5 25 4 11 8 14 14 8 14 -7 0 -12 4 -12 8 0 17 39 5 72 -21 26 -21 30
-28 19 -36 -11 -7 -9 -10 8 -16 11 -3 25 -3 31 0 5 3 10 -1 10 -10 0 -9 4 -13
10 -10 6 3 10 2 10 -4 0 -18 -18 -22 -33 -7 -16 16 -30 10 -40 -18 -6 -14 -3
-17 8 -12 9 3 15 0 15 -9 0 -9 -6 -12 -17 -9 -16 5 -17 5 -1 -5 18 -12 48 -5
48 11 0 5 -5 6 -12 2 -7 -4 -8 -3 -4 4 9 15 9 16 37 -9 19 -17 33 -20 72 -16
29 2 43 1 35 -4 -9 -6 -6 -9 12 -9 l24 0 -26 -21 c-22 -18 -25 -25 -17 -42 8
-13 8 -22 0 -30 -8 -8 -11 -8 -11 1 0 6 -7 9 -16 5 -15 -5 -15 -7 0 -15 11 -6
22 -6 31 2 8 7 24 9 36 5 14 -5 19 -4 15 4 -12 18 16 12 31 -7 14 -16 14 -16
9 2 -4 13 -2 17 7 13 10 -4 14 3 13 21 -1 18 5 28 17 30 15 3 17 -2 14 -32 -2
-20 0 -36 4 -36 5 0 9 -9 9 -19 0 -10 7 -22 16 -25 10 -4 15 0 13 12 -3 34 2
38 46 38 25 1 45 -1 45 -2 0 -1 -7 -10 -16 -19 -20 -20 -11 -33 11 -15 12 10
15 10 15 -3 0 -10 6 -13 19 -10 10 3 22 0 25 -6 4 -7 1 -9 -8 -5 -9 3 -19 -3
-26 -18 -10 -19 -10 -21 1 -11 18 18 34 16 19 -2 -11 -13 -7 -15 24 -15 25 0
35 4 30 11 -5 8 1 10 19 5 14 -3 27 -2 29 4 2 5 13 11 26 13 13 2 28 10 34 18
8 11 9 11 4 -3 -3 -10 -1 -18 5 -18 6 0 3 -7 -5 -16 -18 -17 -21 -28 -6 -19 5
3 18 1 27 -5 15 -9 14 -10 -7 -5 -24 6 -24 5 -6 -9 11 -9 15 -16 9 -16 -6 0
-14 -11 -17 -25 -5 -20 -13 -25 -36 -25 -17 0 -30 -4 -30 -10 0 -10 27 -15 69
-11 13 1 28 -4 33 -11 6 -10 10 -10 18 2 9 13 11 13 20 0 8 -13 10 -12 10 3 0
9 -4 17 -10 17 -5 0 -10 7 -10 15 0 8 5 15 10 15 6 0 10 -7 10 -15 0 -8 5 -15
11 -15 5 0 7 -4 4 -10 -3 -5 1 -10 9 -10 8 0 18 5 21 10 4 6 11 7 17 4 6 -4
14 0 19 7 4 7 11 10 14 7 12 -12 -7 -30 -26 -25 -11 3 -17 1 -13 -4 3 -5 14
-9 25 -9 11 0 17 -4 14 -10 -3 -5 4 -11 17 -11 13 -1 30 -2 38 -3 22 -1 41
-16 35 -27 -4 -5 -1 -9 6 -9 8 0 7 -5 -2 -17 -8 -9 -9 -14 -2 -10 6 4 13 1 16
-5 3 -10 7 -10 20 0 14 12 16 11 14 -7 0 -11 -6 -17 -12 -15 -5 3 -1 -1 9 -10
10 -8 22 -13 27 -11 4 3 10 1 14 -5 3 -5 -2 -10 -12 -10 -17 -1 -17 -1 0 -14
19 -14 23 -36 7 -36 -5 0 -10 5 -10 11 0 5 -5 7 -11 3 -15 -9 9 -24 39 -24 12
0 22 -5 22 -10 0 -6 18 8 40 31 33 35 42 40 55 29 8 -7 15 -18 15 -25 0 -7 7
-18 15 -25 12 -10 15 -10 15 4 0 9 5 16 11 16 8 0 7 6 -2 17 -11 13 -11 17 -1
20 6 3 12 13 12 23 0 10 -6 21 -12 23 -10 4 -10 6 0 6 7 1 17 -9 22 -21 5 -13
9 -19 9 -14 1 5 8 3 16 -4 12 -10 13 -16 4 -26 -9 -11 -5 -15 20 -20 38 -8 47
-20 30 -40 -6 -8 -9 -17 -5 -21 3 -3 6 -1 6 5 0 7 7 12 16 12 10 0 14 -6 10
-15 -3 -8 -2 -14 2 -14 21 3 24 -3 6 -16 -18 -15 -16 -16 23 -13 33 3 39 1 31
-9 -6 -7 -17 -13 -25 -13 -8 0 -11 -5 -8 -10 3 -6 -4 -10 -17 -10 -20 -1 -21
-2 -6 -11 12 -7 27 -5 51 4 31 14 33 13 33 -6 -1 -11 6 -22 14 -24 11 -3 12
-2 3 4 -10 7 -8 13 7 26 26 22 26 23 27 -18 1 -22 -3 -33 -10 -28 -6 4 -7 1
-2 -6 5 -9 13 -6 29 11 l21 23 5 -35 6 -35 8 40 c5 23 11 33 14 25 3 -8 10
-18 16 -22 7 -5 3 -8 -9 -8 -17 0 -17 -2 -5 -10 11 -7 19 -5 27 7 7 9 15 14
18 11 3 -2 -4 -15 -15 -28 -26 -30 -26 -31 13 -16 17 7 43 11 57 10 14 -1 27
2 30 6 7 11 110 20 110 9 0 -5 7 -6 15 -3 8 4 15 12 15 20 0 8 5 14 10 14 18
0 10 -32 -9 -37 -11 -3 -22 -12 -26 -20 -9 -26 4 -28 25 -5 12 12 26 22 33 22
6 0 2 -7 -10 -15 -12 -9 -20 -21 -17 -29 3 -8 -2 -12 -13 -12 -10 1 -18 -3
-18 -9 0 -5 13 -10 28 -10 25 0 26 -1 10 -13 -16 -13 -16 -13 6 -7 15 5 21 3
17 -3 -4 -6 3 -8 16 -5 17 3 19 2 9 -5 -7 -5 -11 -15 -7 -21 5 -7 1 -8 -10 -4
-11 4 -15 2 -11 -4 4 -6 0 -13 -8 -17 -23 -8 -19 -53 5 -61 11 -4 18 -11 14
-16 -3 -6 6 -8 22 -5 20 4 34 0 46 -14 11 -11 14 -20 8 -20 -5 0 -10 -3 -10
-8 0 -4 20 -7 45 -6 25 1 45 -3 45 -8 0 -6 -14 -8 -30 -6 -17 3 -34 0 -37 -6
-3 -6 -3 -8 2 -4 4 4 18 -6 32 -23 l25 -29 674 0 674 0 0 1950 0 1950 -4495 0
-4495 0 0 -1950z m750 1936 c0 -11 -19 -15 -25 -6 -3 5 1 10 9 10 9 0 16 -2
16 -4z m130 -102 c0 -8 -4 -12 -10 -9 -5 3 -10 10 -10 16 0 5 5 9 10 9 6 0 10
-7 10 -16z m3345 -104 c-3 -5 -12 -10 -18 -10 -7 0 -6 4 3 10 19 12 23 12 15
0z m-1528 -62 c-3 -8 -6 -5 -6 6 -1 11 2 17 5 13 3 -3 4 -12 1 -19z m5528 -88
c-3 -5 -12 -10 -18 -10 -7 0 -6 4 3 10 19 12 23 12 15 0z m-7965 -30 c0 -5 -4
-10 -10 -10 -5 0 -10 5 -10 10 0 6 5 10 10 10 6 0 10 -4 10 -10z m252 -62
c-12 -12 -35 -1 -27 12 3 5 13 6 21 3 10 -4 12 -9 6 -15z m-252 -72 c0 -3 -4
-8 -10 -11 -5 -3 -10 -1 -10 4 0 6 5 11 10 11 6 0 10 -2 10 -4z m-45 -46 c3
-5 1 -10 -4 -10 -6 0 -11 5 -11 10 0 6 2 10 4 10 3 0 8 -4 11 -10z m240 -60
c3 -5 1 -10 -4 -10 -6 0 -11 5 -11 10 0 6 2 10 4 10 3 0 8 -4 11 -10z m6435 0
c0 -5 -5 -10 -11 -10 -5 0 -7 5 -4 10 3 6 8 10 11 10 2 0 4 -4 4 -10z m-6760
-100 c0 -5 -4 -10 -10 -10 -5 0 -10 5 -10 10 0 6 5 10 10 10 6 0 10 -4 10 -10z
m5907 -22 c-3 -8 -6 -5 -6 6 -1 11 2 17 5 13 3 -3 4 -12 1 -19z m823 2 c0 -5
-5 -10 -11 -10 -5 0 -7 5 -4 10 3 6 8 10 11 10 2 0 4 -4 4 -10z m-1960 -44 c0
-3 -4 -8 -10 -11 -5 -3 -10 -1 -10 4 0 6 5 11 10 11 6 0 10 -2 10 -4z m-3600
-16 c0 -5 -4 -10 -10 -10 -5 0 -10 5 -10 10 0 6 5 10 10 10 6 0 10 -4 10 -10z
m975 -10 c3 -6 -1 -7 -9 -4 -18 7 -21 14 -7 14 6 0 13 -4 16 -10z m-1018 -32
c-3 -8 -6 -5 -6 6 -1 11 2 17 5 13 3 -3 4 -12 1 -19z m6223 -128 c0 -5 -4 -10
-10 -10 -5 0 -10 5 -10 10 0 6 5 10 10 10 6 0 10 -4 10 -10z m-5230 -20 c0 -5
-4 -10 -10 -10 -5 0 -10 5 -10 10 0 6 5 10 10 10 6 0 10 -4 10 -10z m980 -10
c0 -5 -2 -10 -4 -10 -3 0 -8 5 -11 10 -3 6 -1 10 4 10 6 0 11 -4 11 -10z
m-1380 -15 c14 -16 10 -18 -14 -9 -9 3 -16 10 -16 15 0 14 16 11 30 -6z m-180
-5 c13 -8 13 -10 -2 -10 -9 0 -20 5 -23 10 -8 13 5 13 25 0z m97 -42 c-3 -8
-6 -5 -6 6 -1 11 2 17 5 13 3 -3 4 -12 1 -19z m63 -2 c0 -3 -4 -8 -10 -11 -5
-3 -10 -1 -10 4 0 6 5 11 10 11 6 0 10 -2 10 -4z m410 -16 c0 -5 -5 -10 -11
-10 -5 0 -7 5 -4 10 3 6 8 10 11 10 2 0 4 -4 4 -10z m4620 -20 c0 -5 -5 -10
-11 -10 -5 0 -7 5 -4 10 3 6 8 10 11 10 2 0 4 -4 4 -10z m-1475 -30 c3 -5 1
-10 -4 -10 -6 0 -11 5 -11 10 0 6 2 10 4 10 3 0 8 -4 11 -10z m-2905 -10 c0
-5 -7 -7 -15 -4 -8 4 -15 8 -15 10 0 2 7 4 15 4 8 0 15 -4 15 -10z m60 -20 c0
-5 -4 -10 -10 -10 -5 0 -10 5 -10 10 0 6 5 10 10 10 6 0 10 -4 10 -10z m-149
-27 c13 -16 12 -17 -3 -4 -17 13 -22 21 -14 21 2 0 10 -8 17 -17z m219 7 c0
-5 -5 -10 -11 -10 -5 0 -7 5 -4 10 3 6 8 10 11 10 2 0 4 -4 4 -10z m-123 -72
c-3 -8 -6 -5 -6 6 -1 11 2 17 5 13 3 -3 4 -12 1 -19z m-1907 -8 c0 -5 -4 -10
-10 -10 -5 0 -10 5 -10 10 0 6 5 10 10 10 6 0 10 -4 10 -10z m-300 -10 c0 -5
-5 -10 -11 -10 -5 0 -7 5 -4 10 3 6 8 10 11 10 2 0 4 -4 4 -10z m4780 -10 c0
-5 -5 -10 -11 -10 -5 0 -7 5 -4 10 3 6 8 10 11 10 2 0 4 -4 4 -10z m-3920 -30
c0 -5 -5 -10 -11 -10 -5 0 -7 5 -4 10 3 6 8 10 11 10 2 0 4 -4 4 -10z m4010 6
c0 -3 -4 -8 -10 -11 -5 -3 -10 -1 -10 4 0 6 5 11 10 11 6 0 10 -2 10 -4z
m-2835 -36 c3 -5 1 -10 -4 -10 -6 0 -11 5 -11 10 0 6 2 10 4 10 3 0 8 -4 11
-10z m170 -9 c-3 -6 3 -14 12 -20 10 -6 13 -11 7 -11 -15 0 -36 25 -27 33 10
10 15 8 8 -2z m4305 -1 c0 -5 -5 -10 -11 -10 -5 0 -7 5 -4 10 3 6 8 10 11 10
2 0 4 -4 4 -10z m-4520 -20 c0 -5 -5 -10 -11 -10 -5 0 -7 5 -4 10 3 6 8 10 11
10 2 0 4 -4 4 -10z m-1810 -10 c0 -5 -5 -10 -11 -10 -5 0 -7 5 -4 10 3 6 8 10
11 10 2 0 4 -4 4 -10z m2490 0 c0 -5 -4 -10 -10 -10 -5 0 -10 5 -10 10 0 6 5
10 10 10 6 0 10 -4 10 -10z m-430 -35 c-7 -9 -15 -13 -19 -10 -3 3 1 10 9 15
21 14 24 12 10 -5z m-1190 -85 c0 -5 -4 -10 -10 -10 -5 0 -10 5 -10 10 0 6 5
10 10 10 6 0 10 -4 10 -10z m-1020 -4 c0 -3 -4 -8 -10 -11 -5 -3 -10 -1 -10 4
0 6 5 11 10 11 6 0 10 -2 10 -4z m7570 -56 c0 -5 -5 -10 -11 -10 -5 0 -7 5 -4
10 3 6 8 10 11 10 2 0 4 -4 4 -10z m-7560 -24 c0 -3 -4 -8 -10 -11 -5 -3 -10
-1 -10 4 0 6 5 11 10 11 6 0 10 -2 10 -4z m2877 -21 c0 -8 -4 -12 -9 -9 -5 3
-6 10 -3 15 9 13 12 11 12 -6z m373 5 c0 -5 -5 -10 -11 -10 -5 0 -7 5 -4 10 3
6 8 10 11 10 2 0 4 -4 4 -10z m4140 -20 c0 -5 -4 -10 -10 -10 -5 0 -10 5 -10
10 0 6 5 10 10 10 6 0 10 -4 10 -10z m180 -20 c0 -5 -5 -10 -11 -10 -5 0 -7 5
-4 10 3 6 8 10 11 10 2 0 4 -4 4 -10z m-3677 -25 c-3 -9 -8 -14 -10 -11 -3 3
-2 9 2 15 9 16 15 13 8 -4z m77 7 c0 -4 -10 -9 -22 -9 -18 -2 -20 0 -8 7 18
12 30 13 30 2z m580 -12 c0 -5 -8 -10 -17 -10 -15 0 -16 2 -3 10 19 12 20 12
20 0z m-4223 -16 c-3 -3 -12 -4 -19 -1 -8 3 -5 6 6 6 11 1 17 -2 13 -5z m3873
-4 c0 -4 -13 -10 -29 -12 -20 -3 -27 0 -24 8 5 13 53 16 53 4z m3632 -22 c-6
-6 -15 -8 -19 -4 -4 4 -1 11 7 16 19 12 27 3 12 -12z m-4112 -8 c0 -5 7 -7 15
-4 8 4 15 1 15 -6 0 -7 -8 -10 -20 -7 -10 3 -21 0 -24 -7 -2 -6 -3 -1 -3 12 1
21 17 33 17 12z m220 6 c0 -3 -4 -8 -10 -11 -5 -3 -10 -1 -10 4 0 6 5 11 10
11 6 0 10 -2 10 -4z m-525 -16 c-3 -5 -11 -10 -16 -10 -6 0 -7 5 -4 10 3 6 11
10 16 10 6 0 7 -4 4 -10z m260 -30 c3 -6 -1 -7 -9 -4 -18 7 -21 14 -7 14 6 0
13 -4 16 -10z m65 6 c0 -3 -4 -8 -10 -11 -5 -3 -10 -1 -10 4 0 6 5 11 10 11 6
0 10 -2 10 -4z m-1770 -26 c0 -5 -5 -10 -11 -10 -5 0 -7 5 -4 10 3 6 8 10 11
10 2 0 4 -4 4 -10z m2109 -24 c-3 -3 -11 5 -18 17 -13 21 -12 21 5 5 10 -10
16 -20 13 -22z m-62 18 c-3 -3 -12 -4 -19 -1 -8 3 -5 6 6 6 11 1 17 -2 13 -5z
m-1417 -56 c0 -6 -6 -5 -15 2 -8 7 -15 14 -15 16 0 2 7 1 15 -2 8 -4 15 -11
15 -16z m1695 4 c-3 -3 -11 0 -18 7 -9 10 -8 11 6 5 10 -3 15 -9 12 -12z
m3875 8 c0 -5 -5 -10 -11 -10 -5 0 -7 5 -4 10 3 6 8 10 11 10 2 0 4 -4 4 -10z
m-5606 -26 c3 -8 2 -12 -4 -9 -6 3 -10 10 -10 16 0 14 7 11 14 -7z m1548 -14
c-26 -25 -32 -25 -32 -1 0 13 8 21 23 23 31 5 34 1 9 -22z m-1317 10 c19 -9
19 -9 -2 -16 -35 -10 -30 -38 5 -29 26 6 26 6 7 -9 -16 -13 -17 -15 -2 -10 9
3 17 1 17 -5 0 -16 -19 -13 -45 7 -17 14 -21 22 -13 35 7 13 5 17 -9 17 -15 0
-16 2 -3 10 18 11 19 11 45 0z m1365 6 c0 -3 -4 -8 -10 -11 -5 -3 -10 -1 -10
4 0 6 5 11 10 11 6 0 10 -2 10 -4z m-1490 -29 c10 3 8 -2 -5 -12 -20 -17 -20
-17 3 -10 13 4 22 2 22 -4 0 -6 -8 -11 -17 -11 -15 0 -16 -2 -3 -10 13 -8 12
-10 -4 -10 -16 0 -17 -2 -5 -17 7 -10 9 -15 5 -11 -5 4 -16 2 -25 -5 -14 -11
-14 -10 -2 6 9 11 10 17 2 17 -6 0 -11 5 -11 11 0 5 5 7 10 4 16 -10 12 5 -6
23 -11 10 -13 17 -5 20 6 2 11 8 11 13 0 6 -5 7 -12 3 -7 -5 -8 -3 -3 6 6 10
10 10 19 -2 6 -8 18 -13 26 -11z m-210 -8 c-7 -11 -14 -18 -17 -15 -3 3 0 12
7 21 18 21 23 19 10 -6z m260 11 c0 -5 -2 -10 -4 -10 -3 0 -8 5 -11 10 -3 6
-1 10 4 10 6 0 11 -4 11 -10z m1405 -10 c3 -5 1 -10 -4 -10 -6 0 -11 5 -11 10
0 6 2 10 4 10 3 0 8 -4 11 -10z m-85 -4 c0 -3 -4 -8 -10 -11 -5 -3 -10 -1 -10
4 0 6 5 11 10 11 6 0 10 -2 10 -4z m1400 -6 c0 -5 -5 -10 -11 -10 -5 0 -7 5
-4 10 3 6 8 10 11 10 2 0 4 -4 4 -10z m-3510 -20 c0 -5 -2 -10 -4 -10 -3 0 -8
5 -11 10 -3 6 -1 10 4 10 6 0 11 -4 11 -10z m790 -5 c0 -8 -2 -15 -4 -15 -2 0
-6 7 -10 15 -3 8 -1 15 4 15 6 0 10 -7 10 -15z m190 11 c0 -3 -4 -8 -10 -11
-5 -3 -10 -1 -10 4 0 6 5 11 10 11 6 0 10 -2 10 -4z m-290 -19 c0 -7 -37 -47
-44 -47 -3 0 -6 8 -6 17 0 13 -3 14 -12 5 -7 -7 -16 -12 -22 -12 -5 0 -1 6 9
14 11 8 23 12 27 10 4 -3 16 0 25 5 20 12 23 13 23 8z m130 -22 c-15 -18 -20
-65 -7 -65 6 0 8 -2 5 -5 -8 -8 -66 15 -71 28 -6 16 20 40 28 27 4 -6 11 -8
16 -4 5 3 7 10 4 15 -4 5 1 9 10 9 10 0 13 5 9 12 -4 7 -3 8 5 4 9 -6 9 -11 1
-21z m5320 5 c0 -5 -8 -10 -17 -10 -15 0 -16 2 -3 10 19 12 20 12 20 0z
m-5249 -23 c-10 -9 -11 -8 -5 6 3 10 9 15 12 12 3 -3 0 -11 -7 -18z m49 13
c-20 -13 -33 -13 -25 0 3 6 14 10 23 10 15 0 15 -2 2 -10z m-380 -10 c0 -5 -4
-10 -10 -10 -5 0 -10 5 -10 10 0 6 5 10 10 10 6 0 10 -4 10 -10z m410 -35 c0
-7 -15 -16 -32 -21 -18 -6 -33 -16 -33 -23 0 -8 -7 -17 -15 -20 -20 -8 -24
-31 -5 -31 8 0 15 -4 15 -10 0 -5 -6 -10 -14 -10 -14 0 -25 18 -32 58 -4 19 0
24 22 21 3 0 13 8 22 19 9 10 25 18 35 16 14 -2 16 2 11 19 -6 19 -5 20 10 8
9 -7 16 -19 16 -26z m-2920 11 c0 -3 -4 -8 -10 -11 -5 -3 -10 -1 -10 4 0 6 5
11 10 11 6 0 10 -2 10 -4z m2646 -16 c0 -12 -4 -16 -9 -11 -5 5 -6 14 -3 20
10 15 12 14 12 -9z m31 13 c-4 -3 -3 -11 2 -17 11 -13 -15 -54 -26 -42 -4 4
-1 11 6 15 8 5 11 17 6 30 -4 14 -2 21 6 21 7 0 9 -3 6 -7z m163 -12 c0 -11
-49 -11 -56 0 -3 5 1 6 9 3 8 -3 18 0 22 5 7 12 25 6 25 -8z m-2060 -1 c0 -5
-4 -10 -10 -10 -5 0 -10 5 -10 10 0 6 5 10 10 10 6 0 10 -4 10 -10z m1630 6
c0 -3 -4 -8 -10 -11 -5 -3 -10 -1 -10 4 0 6 5 11 10 11 6 0 10 -2 10 -4z
m3770 -26 c0 -5 -4 -10 -10 -10 -5 0 -10 5 -10 10 0 6 5 10 10 10 6 0 10 -4
10 -10z m-3263 -6 c-3 -3 -12 -4 -19 -1 -8 3 -5 6 6 6 11 1 17 -2 13 -5z m118
-15 c4 8 11 6 22 -4 9 -10 19 -12 27 -7 6 5 29 8 51 7 22 -1 46 3 53 8 9 7 12
4 12 -12 0 -16 6 -21 28 -22 15 0 21 -3 15 -6 -21 -8 -15 -23 10 -23 18 0 19
-2 7 -10 -13 -9 -7 -14 13 -11 4 0 7 -6 7 -14 0 -8 6 -15 13 -15 9 0 8 -3 -2
-9 -8 -5 -11 -16 -6 -30 3 -12 10 -19 15 -16 4 3 10 -5 13 -17 5 -16 9 -19 19
-11 7 6 21 9 30 8 10 -2 21 2 25 8 13 21 13 47 1 47 -9 0 -8 4 1 13 10 8 15 9
18 1 2 -6 15 -9 28 -6 18 3 31 -3 45 -19 26 -32 25 -36 -12 -59 -37 -23 -36
-24 10 -11 41 12 42 3 1 -11 l-30 -10 22 -16 c13 -9 31 -24 41 -34 20 -20 38
-24 38 -8 0 6 7 10 15 10 8 0 14 -6 13 -12 -2 -8 8 -13 22 -14 15 0 24 -5 22
-13 -2 -9 3 -11 15 -6 10 4 25 8 34 9 15 0 15 3 3 22 -14 20 -13 21 18 22 50
0 54 1 38 13 -12 8 -9 10 13 6 15 -2 27 0 27 4 0 5 10 11 23 14 19 5 23 12 20
38 -2 18 0 25 3 17 3 -8 15 -37 26 -64 20 -50 31 -146 16 -146 -4 0 -8 3 -8 8
0 9 -40 35 -46 29 -8 -8 38 -77 51 -77 8 0 14 -23 17 -71 6 -83 -13 -159 -61
-236 -17 -28 -31 -59 -31 -71 0 -11 -7 -22 -15 -26 -10 -3 -15 1 -15 12 0 14
-2 15 -10 2 -8 -13 -11 -12 -23 4 -14 19 -15 18 -22 -12 -3 -18 -12 -32 -20
-32 -12 0 -30 43 -27 65 1 6 -7 11 -19 12 -17 2 -19 -2 -14 -26 7 -35 -19 -65
-29 -33 -8 23 8 68 26 75 8 4 7 6 -4 6 -20 1 -24 26 -7 36 18 12 31 57 19 69
-7 7 -10 2 -10 -15 0 -13 -9 -30 -20 -36 -16 -11 -18 -10 -14 1 3 8 1 17 -5
21 -6 3 -11 2 -11 -4 0 -5 -8 -8 -17 -6 -10 2 -25 4 -33 4 -13 1 -13 3 -1 10
8 5 21 7 30 4 13 -4 13 -3 2 5 -8 6 -21 8 -30 5 -9 -2 -5 2 9 10 22 13 26 13
36 -1 11 -14 13 -14 27 0 9 9 13 18 10 22 -4 3 7 6 24 6 17 0 36 7 43 15 7 8
16 12 21 9 5 -3 9 2 9 10 0 9 6 16 13 16 8 0 8 3 1 8 -5 4 -15 23 -20 42 l-10
35 -14 -32 c-8 -18 -18 -34 -22 -34 -5 -1 -12 -3 -18 -4 -5 -1 -13 -3 -17 -4
-3 0 2 -10 12 -21 10 -11 16 -20 12 -20 -3 0 -12 -3 -21 -6 -10 -4 -16 -1 -16
9 0 10 -7 13 -20 10 -11 -3 -20 -10 -20 -15 0 -6 7 -8 15 -5 8 4 17 2 20 -2 6
-10 -23 -23 -35 -16 -12 7 -19 45 -8 42 6 -1 13 5 15 13 3 9 1 11 -4 5 -16
-19 -33 -15 -39 10 -3 14 -10 25 -15 25 -5 0 -9 9 -9 20 0 11 5 20 10 20 6 0
5 6 -2 14 -8 9 -15 10 -19 4 -4 -6 -12 -7 -18 -4 -7 5 -11 -1 -11 -16 0 -18 2
-20 10 -8 7 12 10 8 10 -14 0 -23 -3 -27 -12 -18 -20 20 -30 13 -24 -15 3 -16
3 -22 0 -15 -3 7 -15 17 -27 24 -19 10 -20 9 -9 -4 16 -19 25 -61 11 -53 -5 4
-7 11 -4 16 4 5 -1 11 -9 14 -51 16 -49 14 -35 33 13 15 12 16 -3 3 -10 -7
-18 -20 -18 -28 0 -8 -7 -21 -15 -29 -8 -8 -11 -22 -8 -32 6 -14 4 -15 -9 -4
-9 7 -15 20 -13 30 1 9 0 11 -2 4 -3 -9 -13 -12 -30 -7 -14 3 -31 1 -38 -5
-11 -9 -12 -4 -6 22 4 18 7 42 6 53 0 11 7 26 15 33 13 12 13 13 -3 8 -10 -3
-30 -6 -43 -6 -14 0 -23 -4 -20 -9 3 -4 -4 -17 -15 -27 -19 -17 -20 -17 -13 2
10 27 35 54 45 48 5 -3 6 2 3 11 -5 13 -2 15 19 10 19 -5 28 -1 40 15 10 14
28 23 52 25 38 4 62 15 32 15 -11 0 -14 5 -10 17 4 10 2 14 -4 10 -7 -5 -9 0
-6 13 4 16 2 19 -11 14 -16 -6 -20 -17 -17 -41 1 -7 -2 -13 -7 -13 -16 0 -21
27 -9 39 8 8 8 11 -2 11 -7 0 -9 5 -6 10 3 6 -1 13 -9 16 -9 3 -13 10 -10 15
3 5 1 9 -5 9 -5 0 -17 7 -26 17 -11 10 -19 12 -23 6 -12 -18 -60 -22 -67 -5
-4 11 -15 13 -40 9 -26 -4 -35 -2 -35 8 0 8 4 16 10 20 5 3 7 12 3 20 -3 8 0
15 6 15 6 0 11 -11 11 -23 0 -20 5 -24 30 -25 32 -1 40 12 15 22 -8 3 -15 11
-15 18 0 9 3 9 11 1 6 -6 18 -9 27 -6 8 4 21 -2 28 -12 12 -16 14 -16 29 -1
15 15 14 17 -14 22 -28 6 -44 24 -21 24 6 0 10 5 10 10 0 16 -27 12 -34 -5 -3
-8 -11 -15 -18 -15 -9 0 -9 3 2 10 13 9 13 11 0 20 -8 5 -21 10 -27 10 -7 0
-13 8 -14 18 0 13 -3 12 -11 -5 -12 -25 -28 -31 -28 -10 0 8 -4 7 -10 -3 -6
-10 -10 -11 -10 -2 0 13 -32 17 -43 5 -8 -7 12 -35 22 -29 3 2 7 -8 8 -22 1
-25 0 -26 -13 -7 -11 15 -14 16 -14 3 0 -8 -7 -21 -15 -28 -18 -15 -19 -7 -4
21 13 24 -4 84 -26 93 -8 3 -15 2 -15 -3 0 -4 -13 -8 -29 -7 -25 1 -28 3 -17
16 14 16 11 40 -5 40 -4 0 -6 -6 -3 -14 3 -8 0 -17 -7 -22 -9 -5 -10 -2 -6 9
3 10 2 17 -2 17 -5 0 -11 -5 -13 -12 -2 -6 -14 -12 -26 -13 l-22 -2 20 22 c12
13 27 22 33 21 13 -1 17 6 17 29 0 8 -8 15 -17 15 -15 0 -15 1 2 13 11 9 15
19 10 27 -5 8 -3 11 6 8 8 -3 13 -11 11 -18 -2 -8 3 -10 15 -5 30 11 38 11 36
-2 -2 -7 4 -10 12 -7 8 4 13 9 10 13 -2 4 2 8 10 8 8 0 12 -4 9 -8 -7 -11 15
-22 32 -15 12 5 13 10 4 28 -10 21 -10 22 3 5 10 -12 17 -14 22 -8z m145 17
c0 -3 -4 -8 -10 -11 -5 -3 -10 -1 -10 4 0 6 5 11 10 11 6 0 10 -2 10 -4z
m4140 -6 c0 -5 -4 -10 -10 -10 -5 0 -10 5 -10 10 0 6 5 10 10 10 6 0 10 -4 10
-10z m140 0 c0 -5 -5 -10 -11 -10 -5 0 -7 5 -4 10 3 6 8 10 11 10 2 0 4 -4 4
-10z m-4956 -36 c3 -8 2 -12 -4 -9 -6 3 -10 10 -10 16 0 14 7 11 14 -7z m240
7 c4 -5 -3 -7 -14 -4 -23 6 -26 13 -6 13 8 0 17 -4 20 -9z m-154 -21 c0 -5 -4
-10 -10 -10 -5 0 -10 5 -10 10 0 6 5 10 10 10 6 0 10 -4 10 -10z m90 -10 c0
-5 -2 -10 -4 -10 -3 0 -8 5 -11 10 -3 6 -1 10 4 10 6 0 11 -4 11 -10z m-33
-32 c-3 -7 -5 -2 -5 12 0 14 2 19 5 13 2 -7 2 -19 0 -25z m1313 22 c0 -5 -4
-10 -10 -10 -5 0 -10 5 -10 10 0 6 5 10 10 10 6 0 10 -4 10 -10z m-3365 -30
c3 -5 2 -10 -4 -10 -5 0 -13 5 -16 10 -3 6 -2 10 4 10 5 0 13 -4 16 -10z
m2168 -37 c-3 -7 -10 -13 -16 -13 -8 0 -8 3 0 11 6 6 9 19 6 28 -4 13 -3 13 5
2 6 -8 8 -20 5 -28z m962 27 c3 -5 1 -10 -4 -10 -6 0 -11 5 -11 10 0 6 2 10 4
10 3 0 8 -4 11 -10z m3795 6 c0 -3 -4 -8 -10 -11 -5 -3 -10 -1 -10 4 0 6 5 11
10 11 6 0 10 -2 10 -4z m-4960 -10 c0 -3 -4 -8 -10 -11 -5 -3 -10 -1 -10 4 0
6 5 11 10 11 6 0 10 -2 10 -4z m2570 -16 c0 -5 -2 -10 -4 -10 -3 0 -8 5 -11
10 -3 6 -1 10 4 10 6 0 11 -4 11 -10z m3197 -6 c-3 -3 -12 -4 -19 -1 -8 3 -5
6 6 6 11 1 17 -2 13 -5z m-4997 -8 c0 -2 -9 -6 -20 -9 -11 -3 -18 -1 -14 4 5
9 34 13 34 5z m350 -6 c0 -5 -2 -10 -4 -10 -3 0 -8 5 -11 10 -3 6 -1 10 4 10
6 0 11 -4 11 -10z m-24 -35 c1 -14 -2 -25 -8 -23 -5 2 -9 7 -9 11 1 4 1 17 1
29 0 29 12 16 16 -17z m369 25 c-3 -5 -11 -10 -16 -10 -6 0 -7 5 -4 10 3 6 11
10 16 10 6 0 7 -4 4 -10z m3280 0 c3 -5 1 -10 -4 -10 -6 0 -11 5 -11 10 0 6 2
10 4 10 3 0 8 -4 11 -10z m-4695 -4 c0 -2 -7 -9 -15 -16 -13 -11 -14 -10 -9 4
5 14 24 23 24 12z m2640 -6 c0 -5 -4 -10 -10 -10 -5 0 -10 5 -10 10 0 6 5 10
10 10 6 0 10 -4 10 -10z m-2605 -20 c3 -5 1 -10 -4 -10 -6 0 -11 5 -11 10 0 6
2 10 4 10 3 0 8 -4 11 -10z m282 -12 c-3 -8 -6 -5 -6 6 -1 11 2 17 5 13 3 -3
4 -12 1 -19z m37 7 c3 -8 1 -15 -4 -15 -6 0 -10 7 -10 15 0 8 2 15 4 15 2 0 6
-7 10 -15z m747 -10 c5 4 9 2 9 -3 0 -6 -12 -13 -27 -17 -20 -5 -23 -9 -13
-15 7 -4 18 -7 24 -6 6 2 8 1 3 -1 -4 -3 -5 -9 -1 -14 3 -5 -2 -9 -10 -9 -8 0
-20 9 -26 20 -9 16 -8 22 5 26 10 4 14 14 10 28 -5 19 -5 19 5 3 6 -9 15 -15
21 -12z m-3431 11 c0 -3 -4 -8 -10 -11 -5 -3 -10 -1 -10 4 0 6 5 11 10 11 6 0
10 -2 10 -4z m2420 -6 c0 -5 -5 -10 -11 -10 -5 0 -7 5 -4 10 3 6 8 10 11 10 2
0 4 -4 4 -10z m1205 -9 c4 -12 12 -18 21 -14 7 3 14 0 14 -5 0 -17 -14 -21
-31 -9 -18 14 -32 47 -19 47 5 0 11 -9 15 -19z m1705 -1 c0 -5 -4 -10 -10 -10
-5 0 -10 5 -10 10 0 6 5 10 10 10 6 0 10 -4 10 -10z m-3000 -4 c0 -3 -4 -8
-10 -11 -5 -3 -10 -1 -10 4 0 6 5 11 10 11 6 0 10 -2 10 -4z m1740 -6 c0 -5
-5 -10 -11 -10 -5 0 -7 5 -4 10 3 6 8 10 11 10 2 0 4 -4 4 -10z m134 -15 c-4
-8 -8 -15 -10 -15 -2 0 -4 7 -4 15 0 8 4 15 10 15 5 0 7 -7 4 -15z m-1989 -5
c-3 -5 -12 -10 -18 -10 -7 0 -6 4 3 10 19 12 23 12 15 0z m355 6 c0 -2 -7 -7
-16 -10 -8 -3 -12 -2 -9 4 6 10 25 14 25 6z m2940 -8 c0 -11 -29 -23 -36 -15
-3 3 -4 10 0 15 7 11 36 11 36 0z m1610 3 c0 -13 -26 -32 -33 -24 -14 13 -6
33 13 33 11 0 20 -4 20 -9z m-4470 -8 c0 -5 -5 -15 -10 -23 -8 -12 -10 -11
-10 8 0 12 5 22 10 22 6 0 10 -3 10 -7z m1200 -13 c0 -5 -2 -10 -4 -10 -3 0
-8 5 -11 10 -3 6 -1 10 4 10 6 0 11 -4 11 -10z m1554 -15 c-7 -16 -24 -21 -24
-6 0 8 7 13 27 20 1 1 0 -6 -3 -14z m-2913 -23 c-21 -7 -41 -33 -35 -45 4 -7
1 -6 -7 1 -12 11 -11 16 8 31 12 10 19 22 15 26 -4 5 -1 5 6 1 7 -4 12 -2 13
6 0 9 2 9 6 -1 3 -8 1 -17 -6 -19z m219 16 c0 -5 -11 -8 -25 -8 -14 0 -25 4
-25 9 0 5 11 8 25 7 14 0 25 -4 25 -8z m50 -8 c0 -5 -5 -10 -11 -10 -5 0 -7 5
-4 10 3 6 8 10 11 10 2 0 4 -4 4 -10z m580 6 c0 -3 -4 -8 -10 -11 -5 -3 -10
-1 -10 4 0 6 5 11 10 11 6 0 10 -2 10 -4z m2358 -21 c-3 -3 -9 2 -12 12 -6 14
-5 15 5 6 7 -7 10 -15 7 -18z m1982 15 c0 -5 -4 -10 -10 -10 -5 0 -10 5 -10
10 0 6 5 10 10 10 6 0 10 -4 10 -10z m-7320 -10 c0 -5 -5 -10 -11 -10 -5 0 -7
5 -4 10 3 6 8 10 11 10 2 0 4 -4 4 -10z m610 6 c0 -3 -4 -8 -10 -11 -5 -3 -10
-1 -10 4 0 6 5 11 10 11 6 0 10 -2 10 -4z m2410 -11 c0 -12 -19 -12 -23 0 -4
9 -1 12 9 8 7 -3 14 -7 14 -8z m2067 -14 c6 -10 8 -24 3 -31 -6 -10 -10 -7
-15 13 -4 15 -14 27 -22 27 -8 0 -12 4 -8 10 8 12 28 4 42 -19z m111 17 c-6
-18 -28 -21 -28 -4 0 9 7 16 16 16 9 0 14 -5 12 -12z m-5113 -8 c-3 -5 -10
-10 -16 -10 -5 0 -9 5 -9 10 0 6 7 10 16 10 8 0 12 -4 9 -10z m2365 0 c-20
-13 -33 -13 -25 0 3 6 14 10 23 10 15 0 15 -2 2 -10z m21 -18 c-8 -16 -6 -21
15 -31 14 -6 22 -16 19 -21 -3 -6 0 -10 9 -10 8 0 16 3 19 8 2 4 2 0 0 -8 -8
-29 -8 -33 6 -38 8 -2 11 0 8 5 -4 6 0 19 8 29 15 19 15 19 8 0 -4 -13 -3 -17
5 -12 7 4 12 3 12 -3 0 -6 8 -8 18 -4 9 3 14 3 11 -1 -4 -4 -16 -9 -29 -11
-12 -2 -28 -9 -34 -14 -9 -8 -16 -4 -26 14 -7 14 -17 25 -22 25 -5 0 -4 -8 1
-19 6 -10 7 -22 3 -26 -4 -5 -1 -5 7 0 9 5 12 3 9 -6 -3 -8 -11 -13 -17 -11
-9 2 -9 -3 -2 -16 8 -14 6 -19 -5 -19 -7 0 -14 9 -14 19 0 11 -7 18 -19 18
-20 0 -51 -25 -51 -41 0 -5 -5 -9 -10 -9 -6 0 -5 8 2 20 10 15 10 22 0 32 -17
17 -15 33 6 54 16 17 16 17 -5 12 -13 -3 -23 -2 -23 3 0 5 5 9 11 9 8 0 8 5
-1 15 -7 8 -9 16 -4 16 22 3 50 -4 56 -15 5 -7 8 -5 8 7 0 9 -6 17 -12 18 -7
0 -3 5 10 11 12 6 22 16 22 21 0 6 3 8 6 5 3 -4 1 -15 -5 -26z m2439 18 c0 -5
-5 -10 -11 -10 -5 0 -7 5 -4 10 3 6 8 10 11 10 2 0 4 -4 4 -10z m375 0 c3 -5
1 -10 -4 -10 -6 0 -11 5 -11 10 0 6 2 10 4 10 3 0 8 -4 11 -10z m-6015 -10 c0
-5 -4 -10 -10 -10 -5 0 -10 5 -10 10 0 6 5 10 10 10 6 0 10 -4 10 -10z m2595
1 c3 -5 1 -12 -5 -16 -5 -3 -10 1 -10 9 0 18 6 21 15 7z m1709 3 c9 -3 13 -11
10 -16 -4 -6 -10 -5 -15 3 -8 12 -11 11 -19 -1 -5 -8 -10 -10 -10 -4 0 10 9
24 16 24 1 0 9 -3 18 -6z m336 -8 c0 -19 -14 -28 -34 -20 -29 11 -17 26 27 33
4 0 7 -5 7 -13z m-4120 -6 c0 -5 -5 -10 -11 -10 -5 0 -7 5 -4 10 3 6 8 10 11
10 2 0 4 -4 4 -10z m2377 -52 c-2 -13 -4 -3 -4 22 0 25 2 35 4 23 2 -13 2 -33
0 -45z m95 21 c-20 -24 -22 -24 -17 1 6 32 16 44 25 30 4 -7 1 -21 -8 -31z
m118 32 c0 -5 -7 -11 -14 -14 -10 -4 -13 -1 -9 9 6 15 23 19 23 5z m1640 -1
c0 -5 -2 -10 -4 -10 -3 0 -8 5 -11 10 -3 6 -1 10 4 10 6 0 11 -4 11 -10z
m-4530 -9 c0 -5 -10 -11 -22 -14 -22 -6 -22 -6 -4 8 23 17 26 18 26 6z m6130
-6 c10 -12 9 -15 -4 -15 -10 0 -15 4 -12 9 4 5 0 12 -6 14 -8 4 -9 6 -2 6 6 1
17 -6 24 -14z m-3580 -5 c0 -5 -2 -10 -4 -10 -3 0 -8 5 -11 10 -3 6 -1 10 4
10 6 0 11 -4 11 -10z m157 -12 c-3 -8 -6 -5 -6 6 -1 11 2 17 5 13 3 -3 4 -12
1 -19z m393 6 c0 -2 -7 -4 -15 -4 -8 0 -15 4 -15 10 0 5 7 7 15 4 8 -4 15 -8
15 -10z m2530 6 c0 -5 -4 -10 -10 -10 -5 0 -10 5 -10 10 0 6 5 10 10 10 6 0
10 -4 10 -10z m90 -14 c0 -14 5 -28 11 -32 8 -4 9 0 4 15 -5 17 -2 21 15 21
12 0 18 -4 15 -10 -3 -5 -2 -10 2 -10 5 0 18 -7 29 -16 15 -12 16 -15 2 -10
-9 3 -19 0 -22 -7 -3 -9 -7 -9 -13 0 -7 9 -12 8 -23 -7 -8 -11 -25 -20 -38
-20 -13 0 -21 -3 -18 -8 2 -4 -13 -6 -35 -5 -42 2 -59 -10 -33 -25 14 -8 14
-10 -1 -25 -9 -10 -13 -17 -8 -17 4 0 -3 -10 -17 -21 -24 -20 -24 -21 -2 -16
12 3 22 1 22 -4 0 -12 -37 -11 -61 1 -13 7 -19 7 -19 0 0 -5 -7 -10 -16 -10
-9 0 -12 -5 -8 -12 4 -7 3 -8 -4 -4 -13 8 -36 -30 -27 -44 8 -13 -8 -13 -20
-1 -6 5 -26 11 -45 13 -43 4 -51 32 -20 68 25 29 25 30 -5 28 -14 -1 -25 -6
-25 -10 0 -4 -4 -8 -10 -8 -5 0 -10 9 -10 20 0 13 -5 18 -15 14 -8 -4 -15 -2
-16 2 0 5 -2 19 -3 31 -1 12 1 20 6 17 4 -3 8 0 8 5 0 6 7 11 15 11 9 0 19 10
23 21 7 19 10 19 23 7 15 -15 52 -21 43 -6 -3 4 0 8 5 8 6 0 10 5 9 11 -2 6 3
14 10 16 7 3 11 -1 10 -8 -2 -9 7 -12 28 -11 21 2 33 -2 37 -12 5 -12 0 -16
-16 -16 -18 0 -19 2 -7 10 9 6 10 10 3 10 -20 0 -23 -16 -8 -37 15 -21 65 -27
82 -9 5 5 2 6 -7 1 -8 -5 -2 5 15 23 18 19 32 27 36 20 4 -6 12 -7 20 -2 11 6
12 5 2 -7 -10 -12 -8 -15 7 -16 11 -1 19 5 19 15 2 41 5 52 18 52 7 0 13 7 13
15 0 8 5 15 10 15 6 0 10 -11 10 -24z m-3300 4 c0 -5 -2 -10 -4 -10 -3 0 -8 5
-11 10 -3 6 -1 10 4 10 6 0 11 -4 11 -10z m227 -22 c-3 -7 -5 -2 -5 12 0 14 2
19 5 13 2 -7 2 -19 0 -25z m1428 22 c3 -5 1 -10 -4 -10 -6 0 -11 5 -11 10 0 6
2 10 4 10 3 0 8 -4 11 -10z m2018 -21 c-7 -25 -10 -24 -15 5 -3 16 -1 23 7 19
7 -2 11 -13 8 -24z m-5673 17 c0 -3 -4 -8 -10 -11 -5 -3 -10 -1 -10 4 0 6 5
11 10 11 6 0 10 -2 10 -4z m947 -2 c-3 -3 -12 -4 -19 -1 -8 3 -5 6 6 6 11 1
17 -2 13 -5z m1229 -29 c-15 -15 -16 -15 -16 3 0 24 11 35 23 23 6 -6 4 -16
-7 -26z m3219 25 c-27 -12 -35 -12 -35 0 0 6 12 10 28 9 24 0 25 -1 7 -9z
m-5770 -10 c-3 -5 -13 -10 -21 -10 -8 0 -12 5 -9 10 3 6 13 10 21 10 8 0 12
-4 9 -10z m2075 6 c0 -3 -4 -8 -10 -11 -5 -3 -10 -1 -10 4 0 6 5 11 10 11 6 0
10 -2 10 -4z m601 -19 c-10 -9 -11 -8 -5 6 3 10 9 15 12 12 3 -3 0 -11 -7 -18z
m79 20 c0 -2 -10 -12 -22 -23 l-23 -19 19 23 c18 21 26 27 26 19z m1970 -7 c0
-5 -2 -10 -4 -10 -3 0 -8 5 -11 10 -3 6 -1 10 4 10 6 0 11 -4 11 -10z m840
-10 c-8 -5 -17 -7 -19 -4 -3 3 1 9 9 14 8 5 17 7 19 4 3 -3 -1 -9 -9 -14z
m-2746 -6 c3 -8 2 -12 -4 -9 -6 3 -10 10 -10 16 0 14 7 11 14 -7z m3266 -4 c0
-5 -4 -10 -10 -10 -5 0 -10 5 -10 10 0 6 5 10 10 10 6 0 10 -4 10 -10z m-6166
-21 c3 -2 -9 -5 -25 -5 -16 -1 -26 2 -23 7 5 9 39 7 48 -2z m916 7 c0 -3 -4
-8 -10 -11 -5 -3 -10 -1 -10 4 0 6 5 11 10 11 6 0 10 -2 10 -4z m1545 -6 c-3
-5 -11 -10 -16 -10 -6 0 -7 5 -4 10 3 6 11 10 16 10 6 0 7 -4 4 -10z m240 0
c3 -5 0 -7 -7 -5 -10 4 -14 -3 -13 -21 0 -16 -6 -29 -15 -32 -12 -4 -13 -2 -2
9 14 15 16 43 2 34 -5 -3 -10 -2 -10 4 0 9 15 18 32 20 4 1 10 -3 13 -9z
m-1935 -10 c0 -5 -4 -10 -10 -10 -5 0 -10 5 -10 10 0 6 5 10 10 10 6 0 10 -4
10 -10z m3405 0 c3 -5 2 -10 -4 -10 -5 0 -17 -7 -25 -16 -15 -14 -16 -14 -16
4 0 26 33 42 45 22z m648 -4 c4 -10 1 -13 -9 -9 -7 3 -14 9 -14 14 0 14 17 10
23 -5z m52 4 c3 -5 1 -10 -4 -10 -6 0 -11 5 -11 10 0 6 2 10 4 10 3 0 8 -4 11
-10z m969 -11 c-3 -5 -10 -7 -15 -3 -5 3 -7 10 -3 15 3 5 10 7 15 3 5 -3 7
-10 3 -15z m736 17 c0 -2 -7 -7 -16 -10 -8 -3 -12 -2 -9 4 6 10 25 14 25 6z
m680 -6 c0 -5 -4 -10 -10 -10 -5 0 -10 5 -10 10 0 6 5 10 10 10 6 0 10 -4 10
-10z m-7525 -10 c3 -5 1 -10 -4 -10 -6 0 -11 5 -11 10 0 6 2 10 4 10 3 0 8 -4
11 -10z m3003 3 c-10 -2 -18 -9 -18 -15 0 -6 -3 -9 -6 -5 -10 10 6 27 24 26
15 -1 15 -2 0 -6z m83 -16 c-10 -9 -11 -8 -5 6 3 10 9 15 12 12 3 -3 0 -11 -7
-18z m1299 10 c0 -7 -9 -13 -20 -13 -20 0 -25 7 -13 19 11 12 33 8 33 -6z
m2555 3 c3 -5 -1 -10 -9 -10 -9 0 -16 5 -16 10 0 6 4 10 9 10 6 0 13 -4 16
-10z m-6518 -6 c-3 -3 -12 -4 -19 -1 -8 3 -5 6 6 6 11 1 17 -2 13 -5z m418 -4
c-3 -5 -10 -10 -16 -10 -5 0 -9 5 -9 10 0 6 7 10 16 10 8 0 12 -4 9 -10z
m1995 -22 c0 -19 -16 -5 -17 14 -2 18 0 20 7 8 5 -8 10 -18 10 -22z m-2715 12
c-3 -5 -10 -10 -16 -10 -5 0 -9 5 -9 10 0 6 7 10 16 10 8 0 12 -4 9 -10z m618
-11 c-6 -6 -19 -9 -29 -6 -16 4 -15 5 4 6 12 0 22 6 22 13 0 6 3 8 7 5 4 -4 2
-12 -4 -18z m4167 12 c0 -5 -7 -11 -15 -15 -15 -5 -20 5 -8 17 9 10 23 9 23
-2z m1130 -1 c0 -5 -2 -10 -4 -10 -3 0 -8 5 -11 10 -3 6 -1 10 4 10 6 0 11 -4
11 -10z m-3360 -4 c0 -2 -7 -9 -15 -16 -13 -11 -14 -10 -9 4 5 14 24 23 24 12z
m510 -11 c0 -8 -2 -15 -4 -15 -2 0 -6 7 -10 15 -3 8 -1 15 4 15 6 0 10 -7 10
-15z m2120 -41 c0 -13 -38 -23 -58 -16 -7 2 -10 8 -6 13 3 5 -2 9 -10 9 -9 0
-16 -6 -16 -14 0 -8 -5 -18 -12 -22 -7 -4 -8 -3 -4 4 4 7 2 12 -4 12 -6 0 -8
5 -5 10 3 6 0 10 -7 10 -17 1 21 23 45 27 12 2 16 -1 12 -9 -3 -7 2 -2 11 10
l18 24 18 -24 c9 -12 18 -28 18 -34z m-955 36 c-3 -5 -10 -10 -16 -10 -5 0 -9
5 -9 10 0 6 7 10 16 10 8 0 12 -4 9 -10z m1845 -10 c-12 -8 -9 -10 13 -10 15
0 27 -4 27 -10 0 -5 -7 -7 -15 -4 -24 10 -18 -6 15 -38 30 -28 38 -48 21 -48
-5 0 -11 5 -13 12 -5 13 -28 2 -28 -14 0 -6 13 -8 30 -6 41 6 46 -5 16 -37
-21 -22 -28 -25 -45 -15 -14 7 -21 7 -21 0 0 -5 5 -10 10 -10 6 0 10 -7 8 -16
-2 -10 3 -19 10 -21 6 -3 12 0 12 5 0 6 10 8 22 4 16 -4 19 -2 13 8 -5 8 -4
11 3 6 6 -4 9 -13 5 -21 -4 -11 -1 -13 12 -8 15 5 17 2 13 -15 -5 -18 -2 -22
18 -22 13 0 24 -5 24 -11 0 -5 -8 -9 -17 -8 -33 3 -42 -1 -48 -21 -3 -11 -9
-19 -13 -18 -22 3 -70 -16 -66 -27 3 -7 -2 -15 -10 -18 -9 -4 -16 -1 -16 6 0
8 -4 7 -10 -3 -7 -12 -13 -11 -37 10 -15 14 -21 17 -14 7 14 -17 13 -17 -15
-5 -16 7 -32 18 -37 25 -4 7 -14 10 -22 7 -8 -4 -15 -1 -15 5 0 6 -7 11 -15
11 -8 0 -12 6 -9 13 3 8 -2 14 -11 14 -9 0 -14 -6 -11 -14 3 -7 -1 -13 -9 -13
-23 0 -24 14 -1 46 18 27 24 30 39 19 9 -6 16 -14 14 -16 -1 -2 2 -1 8 3 15
13 25 9 19 -6 -4 -11 0 -13 15 -9 12 3 21 10 21 15 0 5 -4 6 -10 3 -6 -4 -10
5 -10 20 0 22 3 25 23 20 16 -4 24 -2 24 7 0 7 -12 13 -29 14 -15 1 -28 -2
-28 -6 0 -4 -7 -10 -14 -13 -10 -4 -13 -1 -9 9 3 8 -1 14 -11 14 -9 0 -16 5
-16 10 0 6 5 10 11 10 5 0 8 4 4 9 -3 5 -1 12 4 15 5 4 13 1 16 -5 4 -5 14 -8
22 -4 12 4 13 2 5 -8 -8 -10 -7 -13 8 -14 20 -2 31 26 26 70 -3 28 -1 29 53
31 13 1 26 7 28 14 3 8 -2 10 -14 6 -17 -5 -17 -5 0 9 13 11 15 17 7 22 -13 8
5 25 25 25 6 0 3 -5 -5 -10z m-3035 -21 c-3 19 -2 21 11 11 10 -9 11 -16 4
-25 -6 -7 -8 -20 -4 -29 3 -9 1 -16 -5 -16 -6 0 -11 6 -11 14 0 21 -28 28 -38
9 -5 -9 -14 -13 -21 -9 -17 11 -13 27 7 24 13 -2 16 3 14 22 l-4 25 26 -24 25
-24 -4 22z m2005 0 c0 -6 -4 -7 -10 -4 -5 3 -10 11 -10 16 0 6 5 7 10 4 6 -3
10 -11 10 -16z m-4700 2 c0 -5 -7 -12 -16 -15 -14 -5 -15 -4 -4 9 14 17 20 19
20 6z m2346 -33 c-12 -8 -26 9 -26 31 0 11 5 9 19 -5 12 -12 14 -21 7 -26z
m4087 21 c-8 -8 -16 -8 -30 0 -16 9 -14 10 12 11 21 0 26 -3 18 -11z m-3666
-21 c-3 -8 -6 -5 -6 6 -1 11 2 17 5 13 3 -3 4 -12 1 -19z m1673 18 c0 -3 -4
-8 -10 -11 -5 -3 -10 -1 -10 4 0 6 5 11 10 11 6 0 10 -2 10 -4z m700 -12 c0
-8 -4 -12 -10 -9 -5 3 -10 10 -10 16 0 5 5 9 10 9 6 0 10 -7 10 -16z m433 0
c-5 -13 -2 -15 15 -10 29 10 37 -11 10 -26 -38 -21 -64 -17 -66 9 -2 21 11 33
45 42 1 1 0 -6 -4 -15z m-3293 -17 c10 -4 8 -6 -6 -6 -12 -1 -25 6 -28 15 -5
13 -3 14 6 7 7 -6 20 -13 28 -16z m650 17 c0 -12 -26 -30 -38 -26 -6 2 -12 -2
-12 -9 0 -7 -3 -9 -7 -6 -8 9 27 47 44 47 7 0 13 -3 13 -6z m2120 -9 c0 -8 -4
-15 -10 -15 -5 0 -7 7 -4 15 4 8 8 15 10 15 2 0 4 -7 4 -15z m1440 5 c0 -5 -4
-10 -10 -10 -5 0 -10 5 -10 10 0 6 5 10 10 10 6 0 10 -4 10 -10z m1850 0 c0
-5 -4 -10 -10 -10 -5 0 -10 5 -10 10 0 6 5 10 10 10 6 0 10 -4 10 -10z m-4950
-33 c0 -18 -6 -23 -27 -25 -24 -1 -25 0 -10 9 9 5 17 19 17 30 0 11 5 17 10
14 6 -3 10 -16 10 -28z m2760 12 c0 -6 -4 -7 -10 -4 -5 3 -10 11 -10 16 0 6 5
7 10 4 6 -3 10 -11 10 -16z m-2240 1 c0 -5 -4 -10 -10 -10 -5 0 -10 5 -10 10
0 6 5 10 10 10 6 0 10 -4 10 -10z m2618 -12 c-2 -12 -10 -23 -18 -25 -12 -4
-13 -3 -1 5 8 6 11 17 8 26 -4 9 -2 16 4 16 6 0 9 -10 7 -22z m-1773 2 c-3 -5
-10 -10 -16 -10 -5 0 -9 5 -9 10 0 6 7 10 16 10 8 0 12 -4 9 -10z m130 0 c3
-5 12 -7 20 -3 11 4 13 1 9 -11 -9 -24 -59 -21 -61 4 -2 20 21 28 32 10z
m1402 4 c-3 -3 -12 -4 -19 -1 -8 3 -5 6 6 6 11 1 17 -2 13 -5z m-457 -14 c0
-5 -5 -10 -11 -10 -5 0 -7 5 -4 10 3 6 8 10 11 10 2 0 4 -4 4 -10z m-2640 -20
c0 -11 -4 -20 -9 -20 -5 0 -7 9 -4 20 3 11 7 20 9 20 2 0 4 -9 4 -20z m2250
11 c0 -5 8 -12 18 -15 10 -3 18 -16 19 -28 0 -13 -1 -17 -4 -10 -3 6 -11 12
-19 12 -9 0 -12 5 -9 10 3 6 -1 13 -9 16 -18 7 -22 24 -6 24 6 0 10 -4 10 -9z
m865 -1 c3 -5 1 -10 -4 -10 -6 0 -11 5 -11 10 0 6 2 10 4 10 3 0 8 -4 11 -10z
m155 0 c0 -5 -12 -10 -27 -9 l-28 1 25 8 c14 4 26 8 28 9 1 1 2 -3 2 -9z m95
0 c3 -5 1 -10 -4 -10 -6 0 -11 5 -11 10 0 6 2 10 4 10 3 0 8 -4 11 -10z
m-3315 -42 c0 -4 -9 0 -19 9 -11 9 -17 21 -14 26 6 10 33 -19 33 -35z m3250
38 c0 -3 -4 -8 -10 -11 -5 -3 -10 -1 -10 4 0 6 5 11 10 11 6 0 10 -2 10 -4z
m-1078 -30 c10 -16 -30 -28 -53 -16 -10 6 -19 15 -19 21 0 6 5 7 10 4 6 -3 10
-1 10 5 0 14 42 3 52 -14z m718 -10 c0 -8 -7 -16 -15 -20 -15 -5 -21 14 -8 27
11 12 23 8 23 -7z m235 5 c3 -5 2 -12 -3 -15 -5 -3 -9 1 -9 9 0 17 3 19 12 6z
m242 3 c-3 -3 -12 -4 -19 -1 -8 3 -5 6 6 6 11 1 17 -2 13 -5z m-3447 -34 c0
-13 -5 -18 -15 -14 -8 4 -15 12 -15 20 0 8 7 14 15 14 8 0 15 -9 15 -20z
m3490 10 c0 -5 -5 -10 -11 -10 -5 0 -7 5 -4 10 3 6 8 10 11 10 2 0 4 -4 4 -10z
m-710 -10 c0 -5 -4 -10 -10 -10 -5 0 -10 5 -10 10 0 6 5 10 10 10 6 0 10 -4
10 -10z m684 -21 c-6 -11 -24 -2 -24 11 0 5 7 7 15 4 8 -4 12 -10 9 -15z
m-2074 -15 c0 -8 -7 -14 -15 -14 -15 0 -21 21 -9 33 10 9 24 -2 24 -19z m917
-37 c-14 -14 -22 -17 -25 -9 -2 7 -9 12 -16 12 -7 0 -12 10 -11 23 1 14 8 21
19 19 9 -2 16 2 16 9 0 6 8 1 18 -11 18 -23 18 -24 -1 -43z m695 43 c7 -11 18
-20 25 -20 7 0 13 -5 13 -11 0 -6 -8 -8 -19 -4 -11 3 -22 1 -26 -5 -3 -5 -14
-10 -24 -10 -13 0 -18 7 -16 23 1 12 3 28 4 35 2 19 29 14 43 -8z m138 10 c0
-5 -7 -10 -16 -10 -8 0 -12 5 -9 10 3 6 10 10 16 10 5 0 9 -4 9 -10z m145 0
c3 -6 -1 -7 -9 -4 -18 7 -21 14 -7 14 6 0 13 -4 16 -10z m-1045 -15 c0 -8 -7
-15 -15 -15 -13 0 -14 3 -3 15 16 18 18 18 18 0z m130 5 c0 -5 -2 -10 -4 -10
-3 0 -8 5 -11 10 -3 6 -1 10 4 10 6 0 11 -4 11 -10z m-175 -20 c3 -5 1 -10 -4
-10 -6 0 -11 5 -11 10 0 6 2 10 4 10 3 0 8 -4 11 -10z m1139 -6 c5 -13 9 -14
21 -4 12 10 18 10 30 0 13 -11 14 -10 9 4 -3 9 -2 16 4 16 5 0 13 -7 16 -16 4
-10 12 -14 22 -10 24 9 37 -3 22 -22 -11 -13 -10 -15 5 -9 15 6 16 4 7 -13
-10 -19 -21 -23 -62 -23 -10 0 -18 -4 -18 -9 0 -6 -11 -3 -25 6 -14 9 -25 13
-25 9 0 -5 -4 -2 -9 6 -5 7 -14 10 -20 7 -14 -9 -14 -27 0 -23 13 3 21 -50 9
-58 -5 -3 -7 -12 -3 -20 3 -10 -1 -15 -13 -16 -16 -1 -16 -2 -2 -6 9 -2 19
-11 22 -19 5 -12 1 -14 -15 -9 -13 5 -19 3 -15 -3 3 -5 -1 -13 -9 -16 -10 -3
-18 1 -22 11 -4 9 -1 19 5 21 7 2 12 8 12 13 0 4 -7 6 -15 3 -8 -4 -15 -14
-15 -24 0 -19 -26 -35 -35 -21 -3 5 -14 7 -25 4 -11 -3 -18 -9 -15 -13 6 -10
-24 -50 -39 -50 -18 0 -63 -53 -58 -68 2 -7 -2 -10 -12 -6 -9 3 -16 1 -16 -6
0 -7 -8 -9 -20 -5 -16 5 -20 2 -20 -14 0 -12 -5 -21 -11 -21 -5 0 -8 4 -4 10
9 15 -6 60 -21 60 -20 0 -18 45 3 61 15 13 16 11 11 -14 -5 -26 -4 -27 12 -12
9 8 23 15 30 15 7 0 10 3 7 7 -4 3 -1 13 6 21 10 13 9 15 -5 9 -12 -4 -19 0
-23 14 -5 15 -12 18 -27 13 -15 -4 -19 -2 -15 7 2 8 10 13 18 11 19 -5 59 7
59 18 0 5 -6 7 -14 4 -8 -3 -17 -1 -20 4 -3 5 6 10 20 10 14 0 28 -6 30 -12 3
-7 17 -11 33 -8 16 2 39 -1 51 -8 22 -12 43 -5 25 8 -6 4 -15 22 -22 40 -9 26
-9 35 3 46 8 8 14 19 14 25 0 6 7 11 15 11 15 0 19 11 16 38 -2 10 2 10 18 0
12 -7 21 -21 21 -31 0 -14 5 -16 28 -11 15 4 30 9 35 11 12 7 3 37 -16 53 -18
15 -17 16 11 18 20 1 32 -3 36 -14z m-3234 -5 c0 -3 -6 -13 -13 -24 -16 -21
-37 -13 -37 15 0 13 7 17 25 16 14 0 25 -4 25 -7z m2970 7 c0 -3 -4 -8 -10
-11 -5 -3 -10 -1 -10 4 0 6 5 11 10 11 6 0 10 -2 10 -4z m423 -11 c-3 -9 -8
-14 -10 -11 -3 3 -2 9 2 15 9 16 15 13 8 -4z m-2077 -17 c3 -10 2 -27 -1 -39
l-7 -20 -18 21 c-11 12 -23 19 -29 16 -5 -3 -4 5 2 18 13 28 44 30 53 4z m814
12 c0 -5 -2 -10 -4 -10 -3 0 -8 5 -11 10 -3 6 -1 10 4 10 6 0 11 -4 11 -10z
m-2290 -44 c0 -12 -5 -7 -19 24 -11 24 -11 24 3 6 9 -11 16 -24 16 -30z m3000
40 c0 -3 -4 -8 -10 -11 -5 -3 -10 -1 -10 4 0 6 5 11 10 11 6 0 10 -2 10 -4z
m-803 -21 c17 -17 11 -45 -9 -45 -10 0 -9 3 1 9 12 8 12 12 -2 26 -10 9 -17
18 -17 21 0 8 12 4 27 -11z m1443 -5 c0 -5 -2 -10 -4 -10 -3 0 -8 5 -11 10 -3
6 -1 10 4 10 6 0 11 -4 11 -10z m100 0 c0 -5 -7 -7 -15 -4 -8 4 -15 8 -15 10
0 2 7 4 15 4 8 0 15 -4 15 -10z m-2340 -10 c0 -5 -5 -10 -11 -10 -5 0 -7 5 -4
10 3 6 8 10 11 10 2 0 4 -4 4 -10z m900 0 c0 -5 -2 -10 -4 -10 -3 0 -8 5 -11
10 -3 6 -1 10 4 10 6 0 11 -4 11 -10z m-2120 -9 c0 -12 -31 -43 -37 -37 -4 4
27 46 34 46 2 0 3 -4 3 -9z m1980 -16 c0 -8 -4 -15 -10 -15 -5 0 -10 7 -10 15
0 8 5 15 10 15 6 0 10 -7 10 -15z m1390 -5 c0 -5 -2 -10 -4 -10 -3 0 -8 5 -11
10 -3 6 -1 10 4 10 6 0 11 -4 11 -10z m210 -14 c0 -20 -14 -28 -36 -19 -16 6
-16 7 2 20 23 17 34 17 34 -1z m-1025 -6 c3 -5 1 -10 -4 -10 -6 0 -11 5 -11
10 0 6 2 10 4 10 3 0 8 -4 11 -10z m413 -25 c-2 -2 -14 -2 -25 1 -17 5 -19 9
-10 19 9 9 14 9 25 -2 8 -8 13 -16 10 -18z m-657 8 c13 -17 13 -17 -6 -3 -11
8 -22 16 -24 17 -2 2 0 3 6 3 6 0 17 -8 24 -17z m1019 13 c0 -3 -4 -8 -10 -11
-5 -3 -10 -1 -10 4 0 6 5 11 10 11 6 0 10 -2 10 -4z m-43 -12 c-3 -3 -12 -4
-19 -1 -8 3 -5 6 6 6 11 1 17 -2 13 -5z m-3137 -37 c0 -5 -4 -5 -10 -2 -5 3
-10 14 -10 23 0 15 2 15 10 2 5 -8 10 -19 10 -23z m-189 -10 c-8 -8 -11 -7
-11 4 0 20 13 34 18 19 3 -7 -1 -17 -7 -23z m2622 3 c-3 -12 0 -20 7 -20 8 0
10 -8 5 -22 -4 -13 -7 -31 -6 -40 0 -10 -5 -21 -11 -24 -7 -5 -9 -1 -5 9 3 10
2 17 -3 17 -5 0 -6 8 -3 17 5 13 2 15 -11 10 -18 -7 -46 13 -46 32 0 14 17 14
25 1 9 -14 33 -12 32 3 -1 31 4 48 12 43 5 -3 7 -15 4 -26z m-2396 -4 c-7 -15
-16 -21 -21 -16 -6 6 -4 15 4 25 19 23 29 18 17 -9z m2557 8 c8 -21 8 -24 -3
-24 -5 0 -11 9 -14 20 -6 24 8 27 17 4z m676 -15 c0 -11 -4 -18 -9 -14 -6 3
-9 14 -8 25 2 24 17 15 17 -11z m800 21 c0 -5 -4 -10 -10 -10 -5 0 -10 5 -10
10 0 6 5 10 10 10 6 0 10 -4 10 -10z m733 3 c-7 -2 -21 -2 -30 0 -10 3 -4 5
12 5 17 0 24 -2 18 -5z m-2583 -13 c0 -5 -5 -10 -11 -10 -5 0 -7 5 -4 10 3 6
8 10 11 10 2 0 4 -4 4 -10z m1115 0 c3 -6 -1 -7 -9 -4 -9 4 -18 -1 -22 -10 -3
-9 -11 -13 -17 -9 -6 4 -3 11 8 20 22 16 32 16 40 3z m-129 -25 c-3 -9 0 -15
8 -15 8 0 16 6 19 13 3 6 5 -3 4 -21 0 -18 6 -38 13 -45 10 -10 12 -9 8 3 -3
9 0 24 8 35 12 16 14 16 14 3 0 -9 10 -19 23 -21 15 -3 13 -4 -5 -2 -16 1 -28
-2 -28 -6 0 -13 24 -16 53 -6 31 10 43 3 49 -27 4 -23 -38 -38 -86 -30 -26 4
-28 3 -13 -6 9 -6 17 -18 17 -26 0 -9 7 -14 18 -12 9 2 16 -3 15 -9 -2 -7 5
-13 16 -13 10 0 24 -7 31 -15 14 -17 50 -17 62 0 5 6 12 5 20 -3 9 -9 8 -12
-7 -13 -11 -1 -23 -1 -27 0 -17 2 -6 -18 12 -24 11 -4 18 -11 14 -16 -4 -6
-11 -6 -19 1 -10 9 -14 7 -17 -9 -2 -16 -6 -18 -18 -10 -11 8 -12 12 -2 16 13
5 17 24 5 22 -22 -4 -34 3 -31 17 2 10 -3 19 -11 22 -8 2 -11 0 -7 -6 4 -6 -2
-8 -13 -5 -11 3 -34 -2 -51 -11 -30 -14 -31 -14 -25 1 3 10 3 14 -1 10 -4 -4
-13 -2 -21 4 -10 9 -13 8 -13 -2 0 -9 -5 -8 -17 4 -16 16 -16 19 -3 27 13 8
13 10 -1 10 -9 0 -19 7 -23 15 -3 8 -12 12 -19 9 -8 -3 -17 2 -21 11 -5 13
-13 15 -33 10 -22 -5 -24 -4 -15 8 8 10 8 17 1 24 -16 16 -2 32 23 28 17 -4
19 -2 10 7 -7 7 -12 21 -12 32 1 19 3 18 18 -6 9 -16 19 -28 22 -28 3 0 12 16
19 35 7 19 19 35 28 35 9 0 13 -6 9 -15z m244 11 c0 -3 -4 -8 -10 -11 -5 -3
-10 -1 -10 4 0 6 5 11 10 11 6 0 10 -2 10 -4z m35 -6 c3 -6 -1 -7 -9 -4 -18 7
-21 14 -7 14 6 0 13 -4 16 -10z m-321 -15 c-4 -8 -10 -15 -15 -15 -5 0 -9 7
-9 15 0 8 7 15 15 15 9 0 12 -6 9 -15z m200 -20 c16 -25 16 -25 -9 -13 -26 11
-30 19 -18 31 9 10 9 10 27 -18z m-804 -5 c0 -5 -4 -10 -10 -10 -5 0 -10 5
-10 10 0 6 5 10 10 10 6 0 10 -4 10 -10z m-2851 -41 c9 -26 8 -29 -10 -29 -10
0 -19 5 -19 10 0 6 -3 9 -7 9 -34 -6 -42 10 -18 35 21 20 41 11 54 -25z m4291
31 c0 -5 -4 -10 -10 -10 -5 0 -10 5 -10 10 0 6 5 10 10 10 6 0 10 -4 10 -10z
m-1275 -10 c3 -5 1 -10 -4 -10 -6 0 -11 5 -11 10 0 6 2 10 4 10 3 0 8 -4 11
-10z m765 0 c0 -5 -5 -10 -11 -10 -5 0 -7 5 -4 10 3 6 8 10 11 10 2 0 4 -4 4
-10z m44 -4 c-10 -8 -21 -12 -24 -10 -5 6 21 24 34 24 6 0 1 -6 -10 -14z
m-934 -6 c0 -5 -2 -10 -4 -10 -3 0 -8 5 -11 10 -3 6 -1 10 4 10 6 0 11 -4 11
-10z m-45 -10 c3 -5 1 -10 -4 -10 -6 0 -11 5 -11 10 0 6 2 10 4 10 3 0 8 -4
11 -10z m395 0 c0 -5 -5 -10 -11 -10 -5 0 -7 5 -4 10 3 6 8 10 11 10 2 0 4 -4
4 -10z m730 0 c0 -5 -7 -10 -15 -10 -8 0 -15 5 -15 10 0 6 7 10 15 10 8 0 15
-4 15 -10z m-1270 -10 c0 -5 -5 -10 -11 -10 -5 0 -7 5 -4 10 3 6 8 10 11 10 2
0 4 -4 4 -10z m1064 4 c9 -3 14 -10 11 -15 -7 -10 -35 0 -35 12 0 11 3 11 24
3z m-945 -21 c11 -9 18 -20 15 -24 -3 -5 -14 1 -24 11 -32 32 -24 42 9 13z
m391 13 c0 -3 -4 -8 -10 -11 -5 -3 -10 -1 -10 4 0 6 5 11 10 11 6 0 10 -2 10
-4z m107 -11 c0 -8 -4 -12 -9 -9 -4 3 -8 9 -8 15 0 5 4 9 8 9 5 0 9 -7 9 -15z
m-516 -60 c-3 -5 -7 -2 -9 8 -2 9 -9 17 -15 17 -7 0 -6 4 3 10 11 7 17 5 21
-8 4 -9 4 -21 0 -27z m104 35 c-3 -5 -12 -10 -18 -10 -7 0 -6 4 3 10 19 12 23
12 15 0z m840 -9 c-3 -6 -11 -11 -17 -11 -6 0 -6 6 2 15 14 17 26 13 15 -4z
m-445 -5 c0 -3 -4 -8 -10 -11 -5 -3 -10 -1 -10 4 0 6 5 11 10 11 6 0 10 -2 10
-4z m91 -6 c4 -32 3 -40 -6 -42 -5 -2 -10 9 -11 25 -1 25 14 40 17 17z m29 0
c0 -5 -5 -10 -11 -10 -5 0 -7 5 -4 10 3 6 8 10 11 10 2 0 4 -4 4 -10z m290 0
c0 -5 -2 -10 -4 -10 -3 0 -8 5 -11 10 -3 6 -1 10 4 10 6 0 11 -4 11 -10z
m-3700 -10 c0 -5 -4 -10 -10 -10 -5 0 -10 5 -10 10 0 6 5 10 10 10 6 0 10 -4
10 -10z m3445 -18 c-3 -3 -11 0 -18 7 -9 10 -8 11 6 5 10 -3 15 -9 12 -12z
m-268 -38 c-1 -2 -13 -1 -25 3 -22 5 -22 6 -5 25 17 19 17 19 25 -3 5 -12 7
-23 5 -25z m513 36 c0 -5 -7 -10 -16 -10 -8 0 -12 5 -9 10 3 6 10 10 16 10 5
0 9 -4 9 -10z m-212 -35 l23 -24 -21 -11 c-17 -9 -21 -9 -18 2 1 7 -3 23 -10
36 -17 29 -3 28 26 -3z m-397 -3 c-7 -2 -18 1 -23 6 -8 8 -4 9 13 5 13 -4 18
-8 10 -11z m354 -2 c3 -5 1 -10 -4 -10 -6 0 -11 5 -11 10 0 6 2 10 4 10 3 0 8
-4 11 -10z m-298 -16 c9 -8 22 -13 29 -10 8 3 14 1 14 -4 0 -6 -6 -10 -12 -10
-9 0 -8 -4 2 -10 13 -8 12 -10 -2 -10 -10 0 -18 4 -18 10 0 5 -8 7 -17 4 -15
-5 -15 -4 -3 5 12 8 12 11 -3 17 -9 3 -17 10 -17 15 0 13 9 11 27 -7z m336
-49 c-3 -9 -8 -14 -10 -11 -3 3 -2 9 2 15 9 16 15 13 8 -4z m257 1 c0 -3 -4
-8 -10 -11 -5 -3 -10 -1 -10 4 0 6 5 11 10 11 6 0 10 -2 10 -4z m1175 -16 c3
-6 -1 -7 -9 -4 -18 7 -21 14 -7 14 6 0 13 -4 16 -10z m-1815 -10 c0 -5 -4 -10
-10 -10 -5 0 -10 5 -10 10 0 6 5 10 10 10 6 0 10 -4 10 -10z m-13 -42 c-3 -8
-6 -5 -6 6 -1 11 2 17 5 13 3 -3 4 -12 1 -19z m113 18 c0 -3 -4 -8 -10 -11 -5
-3 -10 -1 -10 4 0 6 5 11 10 11 6 0 10 -2 10 -4z m810 -6 c0 -5 -5 -10 -11
-10 -5 0 -7 5 -4 10 3 6 8 10 11 10 2 0 4 -4 4 -10z m-750 -23 c-14 -8 -27
-12 -30 -10 -7 6 23 23 40 23 8 0 4 -6 -10 -13z m140 -17 c0 -15 -5 -12 -26
11 -19 22 -19 22 4 10 12 -6 22 -16 22 -21z m410 10 c0 -5 -2 -10 -4 -10 -3 0
-8 5 -11 10 -3 6 -1 10 4 10 6 0 11 -4 11 -10z m335 -10 c-3 -5 -13 -10 -21
-10 -8 0 -14 5 -14 10 0 6 9 10 21 10 11 0 17 -4 14 -10z m-155 -14 c0 -2 -7
-7 -16 -10 -8 -3 -12 -2 -9 4 6 10 25 14 25 6z m30 -11 c7 -9 8 -15 2 -15 -5
0 -12 7 -16 15 -3 8 -4 15 -2 15 2 0 9 -7 16 -15z m-750 -5 c0 -5 -4 -10 -10
-10 -5 0 -10 5 -10 10 0 6 5 10 10 10 6 0 10 -4 10 -10z m570 -4 c0 -11 -19
-15 -25 -6 -3 5 1 10 9 10 9 0 16 -2 16 -4z m75 -26 c-4 -11 -2 -20 4 -20 6 0
11 -4 11 -10 0 -13 -37 -13 -45 1 -4 5 1 19 11 30 22 24 27 24 19 -1z m955 10
c0 -5 -5 -10 -11 -10 -5 0 -7 5 -4 10 3 6 8 10 11 10 2 0 4 -4 4 -10z m-892
-28 c2 -7 -2 -10 -12 -6 -9 3 -16 11 -16 16 0 13 23 5 28 -10z m342 2 c0 -8
-4 -12 -10 -9 -5 3 -10 10 -10 16 0 5 5 9 10 9 6 0 10 -7 10 -16z m-360 -34
c0 -5 -5 -10 -11 -10 -5 0 -7 5 -4 10 3 6 8 10 11 10 2 0 4 -4 4 -10z m130 -9
c0 -5 -7 -12 -16 -15 -14 -5 -15 -4 -4 9 14 17 20 19 20 6z m-330 -21 c0 -5
-4 -10 -10 -10 -5 0 -10 5 -10 10 0 6 5 10 10 10 6 0 10 -4 10 -10z m400 6 c0
-11 -19 -15 -25 -6 -3 5 1 10 9 10 9 0 16 -2 16 -4z m-595 -27 c-3 -4 -12 -6
-20 -2 -8 3 -15 -1 -15 -8 0 -7 -3 -9 -6 -6 -11 11 16 36 32 30 7 -3 12 -9 9
-14z m205 -9 c0 -5 -4 -10 -10 -10 -5 0 -10 5 -10 10 0 6 5 10 10 10 6 0 10
-4 10 -10z m680 -10 c0 -5 -5 -10 -11 -10 -5 0 -7 5 -4 10 3 6 8 10 11 10 2 0
4 -4 4 -10z m350 -10 c0 -5 -4 -10 -10 -10 -5 0 -10 5 -10 10 0 6 5 10 10 10
6 0 10 -4 10 -10z m-543 -52 c19 -21 8 -44 -11 -25 -8 6 -12 15 -9 20 2 4 -3
7 -11 7 -9 0 -16 6 -16 14 0 18 24 27 29 12 2 -6 10 -19 18 -28z m33 32 c0 -5
-5 -10 -11 -10 -5 0 -7 5 -4 10 3 6 8 10 11 10 2 0 4 -4 4 -10z m890 6 c0 -3
-4 -8 -10 -11 -5 -3 -10 -1 -10 4 0 6 5 11 10 11 6 0 10 -2 10 -4z m-990 -27
c0 -6 -4 -7 -10 -4 -5 3 -10 11 -10 16 0 6 5 7 10 4 6 -3 10 -11 10 -16z
m-350 -42 c12 3 20 0 20 -6 0 -7 -4 -10 -9 -6 -6 3 -19 -4 -29 -15 -18 -19
-20 -19 -26 -4 -3 9 -1 23 6 31 7 9 14 11 16 5 1 -5 12 -8 22 -5z m-60 -1 c0
-3 -4 -8 -10 -11 -5 -3 -10 -1 -10 4 0 6 5 11 10 11 6 0 10 -2 10 -4z m985
-36 c3 -5 1 -10 -4 -10 -6 0 -11 5 -11 10 0 6 2 10 4 10 3 0 8 -4 11 -10z
m-1004 -63 c-1 -12 -15 -9 -19 4 -3 6 1 10 8 8 6 -3 11 -8 11 -12z m247 -40
c2 -9 -2 -17 -8 -17 -7 0 -10 6 -7 14 3 8 2 17 -4 20 -5 2 -4 3 3 2 7 -1 14
-10 16 -19z m-53 -87 c-3 -5 -12 -10 -18 -10 -7 0 -6 4 3 10 19 12 23 12 15 0z"/>
<path d="M3010 1892 c0 -15 11 -21 27 -15 12 5 12 7 1 14 -17 11 -28 11 -28 1z"/>
<path d="M3177 1794 c7 -3 9 -12 6 -20 -3 -9 0 -14 8 -12 8 2 13 -3 11 -11 -5
-24 8 -50 24 -44 7 3 14 11 14 19 0 8 5 14 12 14 6 0 9 3 6 6 -4 3 -15 1 -26
-5 -17 -9 -19 -7 -14 14 2 15 0 25 -7 25 -7 0 -9 5 -6 10 3 6 -4 10 -17 9 -13
0 -18 -3 -11 -5z"/>
<path d="M3340 1789 c0 -5 5 -7 10 -4 6 3 10 8 10 11 0 2 -4 4 -10 4 -5 0 -10
-5 -10 -11z"/>
<path d="M3390 1759 c0 -5 5 -7 10 -4 6 3 10 8 10 11 0 2 -4 4 -10 4 -5 0 -10
-5 -10 -11z"/>
<path d="M3280 1715 c0 -8 -4 -15 -10 -15 -5 0 -7 -6 -4 -14 4 -11 12 -12 35
-4 16 5 29 14 29 20 0 6 -7 8 -15 4 -9 -3 -15 0 -15 9 0 8 -4 15 -10 15 -5 0
-10 -7 -10 -15z"/>
<path d="M3506 1655 c-10 -8 -15 -18 -11 -24 8 -14 35 -14 35 0 0 5 -6 7 -12
4 -7 -4 -5 0 5 8 23 19 8 30 -17 12z"/>
<path d="M3535 1600 c-3 -5 -1 -10 4 -10 6 0 11 5 11 10 0 6 -2 10 -4 10 -3 0
-8 -4 -11 -10z"/>
<path d="M3560 1534 c0 -8 5 -12 10 -9 6 4 8 11 5 16 -9 14 -15 11 -15 -7z"/>
<path d="M4000 1536 c0 -2 7 -7 16 -10 8 -3 12 -2 9 4 -6 10 -25 14 -25 6z"/>
<path d="M3943 1490 c-32 -13 -29 -17 7 -12 17 2 30 8 30 13 0 11 -8 11 -37
-1z"/>
<path d="M3696 1443 c-6 -14 -5 -15 5 -6 7 7 10 15 7 18 -3 3 -9 -2 -12 -12z"/>
<path d="M4049 1420 c-1 -3 -1 -22 -1 -42 1 -21 -3 -38 -8 -38 -6 0 -10 6 -10
13 0 8 -4 7 -10 -3 -5 -8 -10 -10 -10 -5 0 6 -5 2 -11 -8 -7 -12 -6 -25 3 -45
13 -26 36 -30 30 -4 -4 16 3 15 21 -3 13 -13 14 -10 10 25 -6 45 9 72 35 64 9
-3 6 2 -8 11 -14 9 -17 14 -8 11 10 -3 20 -1 23 5 4 5 1 8 -7 7 -7 -2 -12 2
-11 7 2 11 -36 16 -38 5z m1 -100 c0 -5 -4 -10 -10 -10 -5 0 -10 5 -10 10 0 6
5 10 10 10 6 0 10 -4 10 -10z"/>
<path d="M3673 1408 c1 -7 -10 -13 -25 -13 -15 -1 -31 -5 -35 -10 -4 -4 0 -5
10 -2 9 4 17 2 17 -4 0 -6 14 -2 30 8 32 19 39 33 15 33 -8 0 -14 -5 -12 -12z"/>
<path d="M3708 1402 c-4 -13 -16 -26 -27 -29 -26 -7 -7 -30 23 -28 12 1 23 -1
26 -5 11 -14 36 27 29 46 -7 17 -8 17 -8 2 -1 -10 -5 -18 -11 -18 -5 0 -6 7
-3 17 4 10 2 14 -5 10 -6 -4 -12 1 -14 10 -3 15 -5 13 -10 -5z m12 -43 c0 -6
-4 -7 -10 -4 -5 3 -10 11 -10 16 0 6 5 7 10 4 6 -3 10 -11 10 -16z"/>
<path d="M4020 1394 c0 -8 5 -12 10 -9 6 3 10 10 10 16 0 5 -4 9 -10 9 -5 0
-10 -7 -10 -16z"/>
<path d="M4070 1311 c0 -6 5 -13 10 -16 6 -4 8 -11 5 -16 -3 -5 1 -6 11 -2 15
5 15 7 0 15 -9 5 -14 13 -11 19 4 5 1 9 -4 9 -6 0 -11 -4 -11 -9z"/>
<path d="M3841 1288 c-7 -11 -10 -22 -7 -25 3 -3 8 2 12 11 3 9 10 13 15 10 5
-3 9 -1 9 5 0 20 -16 19 -29 -1z"/>
<path d="M3915 1280 c4 -6 11 -8 16 -5 14 9 11 15 -7 15 -8 0 -12 -5 -9 -10z"/>
<path d="M3880 1270 c-9 -6 -10 -10 -3 -10 6 0 15 5 18 10 8 12 4 12 -15 0z"/>
<path d="M3565 1260 c-3 -6 1 -7 9 -4 18 7 21 14 7 14 -6 0 -13 -4 -16 -10z"/>
<path d="M3965 1200 c-3 -5 -1 -10 5 -10 6 0 8 -5 4 -12 -4 -7 -3 -8 4 -4 6 4
9 13 5 21 -6 18 -10 19 -18 5z"/>
<path d="M3891 1004 c0 -11 3 -14 6 -6 3 7 2 16 -1 19 -3 4 -6 -2 -5 -13z"/>
<path d="M3370 1401 c-8 -6 -19 -7 -25 -4 -6 4 -6 2 1 -6 11 -12 44 -5 44 10
0 11 -1 11 -20 0z"/>
<path d="M6125 1440 c-3 -5 -1 -10 4 -10 6 0 11 5 11 10 0 6 -2 10 -4 10 -3 0
-8 -4 -11 -10z"/>
<path d="M5760 1368 c-12 -22 -12 -22 6 -6 10 10 15 20 12 24 -4 3 -12 -5 -18
-18z"/>
<path d="M5882 1367 c-12 -13 -22 -28 -22 -34 0 -17 26 -23 40 -10 10 9 11 9
6 0 -4 -7 -5 -13 -2 -13 3 0 10 9 16 20 8 15 7 25 -3 40 -14 20 -14 19 -35 -3z
m23 -7 c3 -5 1 -10 -4 -10 -6 0 -11 5 -11 10 0 6 2 10 4 10 3 0 8 -4 11 -10z"/>
<path d="M5820 1373 c0 -6 8 -17 18 -24 16 -13 16 -13 2 6 -8 11 -16 22 -17
24 -2 2 -3 0 -3 -6z"/>
<path d="M5993 1315 c0 -8 4 -12 9 -9 5 3 6 10 3 15 -9 13 -12 11 -12 -6z"/>
<path d="M5877 1286 c-3 -8 -1 -17 6 -20 9 -3 8 -8 -3 -15 -8 -6 -10 -11 -5
-11 18 0 31 15 30 34 0 24 -20 32 -28 12z"/>
<path d="M5838 1273 c7 -3 16 -2 19 1 4 3 -2 6 -13 5 -11 0 -14 -3 -6 -6z"/>
<path d="M6240 1235 c0 -8 2 -15 4 -15 2 0 6 7 10 15 3 8 1 15 -4 15 -6 0 -10
-7 -10 -15z"/>
<path d="M6316 1233 c-4 -5 -12 -9 -17 -9 -22 -3 -23 -5 -9 -14 17 -11 37 -13
27 -3 -4 3 -2 12 4 20 12 14 8 18 -5 6z"/>
<path d="M6351 1206 c-10 -12 -8 -13 8 -9 12 3 21 9 21 14 0 14 -16 11 -29 -5z"/>
<path d="M6273 1168 c3 -9 -1 -19 -9 -22 -18 -7 -9 -26 12 -26 16 0 18 28 3
50 -9 13 -10 13 -6 -2z"/>
<path d="M6395 1100 c3 -5 8 -10 11 -10 2 0 4 5 4 10 0 6 -5 10 -11 10 -5 0
-7 -4 -4 -10z"/>
<path d="M7172 1095 c4 -4 3 -14 -3 -22 -9 -10 -8 -13 5 -13 19 0 22 26 4 36
-7 4 -10 4 -6 -1z"/>
<path d="M6770 815 c-7 -8 -8 -15 -2 -15 5 0 15 7 22 15 7 8 8 15 2 15 -5 0
-15 -7 -22 -15z"/>
<path d="M7193 875 c-3 -9 -3 -18 -1 -21 3 -3 8 4 11 16 6 23 -1 27 -10 5z"/>
<path d="M7135 850 c3 -5 8 -10 11 -10 2 0 4 5 4 10 0 6 -5 10 -11 10 -5 0 -7
-4 -4 -10z"/>
<path d="M7240 766 c0 -2 7 -7 16 -10 8 -3 12 -2 9 4 -6 10 -25 14 -25 6z"/>
<path d="M4380 1479 c0 -5 5 -7 10 -4 6 3 10 8 10 11 0 2 -4 4 -10 4 -5 0 -10
-5 -10 -11z"/>
<path d="M4401 1424 c0 -11 3 -14 6 -6 3 7 2 16 -1 19 -3 4 -6 -2 -5 -13z"/>
<path d="M4570 1319 c0 -5 5 -7 10 -4 6 3 10 8 10 11 0 2 -4 4 -10 4 -5 0 -10
-5 -10 -11z"/>
<path d="M4580 1290 c0 -13 11 -13 30 0 12 8 11 10 -7 10 -13 0 -23 -4 -23
-10z"/>
<path d="M4980 1269 c0 -5 5 -7 10 -4 6 3 10 8 10 11 0 2 -4 4 -10 4 -5 0 -10
-5 -10 -11z"/>
<path d="M4430 1196 c0 -8 4 -17 9 -20 5 -4 7 3 4 14 -6 23 -13 26 -13 6z"/>
<path d="M4530 1150 c0 -5 5 -10 11 -10 5 0 7 5 4 10 -3 6 -8 10 -11 10 -2 0
-4 -4 -4 -10z"/>
<path d="M5480 1129 c0 -5 -4 -8 -9 -5 -5 3 -12 -1 -15 -9 -3 -10 1 -18 12
-22 9 -4 23 -13 30 -20 7 -7 19 -13 25 -13 8 0 7 3 -2 9 -7 5 -10 14 -7 20 4
6 0 11 -9 11 -12 0 -15 6 -10 20 4 11 2 20 -4 20 -6 0 -11 -5 -11 -11z"/>
<path d="M5547 1127 c2 -4 0 -13 -6 -20 -7 -10 -5 -13 10 -14 13 -1 19 3 16
11 -3 8 -1 18 4 23 5 5 1 9 -10 9 -11 0 -17 -4 -14 -9z"/>
<path d="M4525 1120 c3 -5 10 -10 16 -10 5 0 9 5 9 10 0 6 -7 10 -16 10 -8 0
-12 -4 -9 -10z"/>
<path d="M5586 1123 c-11 -11 -6 -24 6 -17 7 5 9 2 5 -9 -4 -11 -2 -14 9 -10
7 3 14 11 14 18 0 14 -25 27 -34 18z"/>
<path d="M4995 1050 c-3 -6 1 -7 9 -4 18 7 21 14 7 14 -6 0 -13 -4 -16 -10z"/>
<path d="M4923 1003 c-15 -5 -17 -23 -4 -23 5 0 11 7 15 15 3 8 4 15 3 14 -1
0 -8 -3 -14 -6z"/>
<path d="M5940 975 c0 -8 5 -15 10 -15 6 0 10 7 10 15 0 8 -4 15 -10 15 -5 0
-10 -7 -10 -15z"/>
<path d="M5710 960 c-13 -8 -13 -11 2 -26 16 -16 16 -18 0 -30 -16 -12 -15
-13 6 -14 12 0 22 -6 22 -12 0 -9 3 -9 9 1 6 9 6 22 0 32 -5 10 -9 27 -9 38 0
23 -7 26 -30 11z"/>
<path d="M5920 950 c0 -5 5 -10 11 -10 5 0 7 5 4 10 -3 6 -8 10 -11 10 -2 0
-4 -4 -4 -10z"/>
<path d="M5957 930 c-4 -16 0 -20 21 -19 19 1 21 3 9 6 -11 3 -16 11 -13 19 3
8 2 14 -3 14 -5 0 -11 -9 -14 -20z"/>
<path d="M6071 914 c0 -11 3 -14 6 -6 3 7 2 16 -1 19 -3 4 -6 -2 -5 -13z"/>
<path d="M6250 907 c0 -7 5 -18 12 -25 9 -9 9 -12 -2 -12 -11 -1 -10 -3 3 -11
9 -6 15 -14 12 -20 -4 -5 -2 -9 3 -9 20 0 21 40 1 50 -10 6 -16 17 -13 25 4 8
1 15 -5 15 -6 0 -11 -6 -11 -13z"/>
<path d="M6215 890 c-3 -5 -1 -10 4 -10 6 0 11 5 11 10 0 6 -2 10 -4 10 -3 0
-8 -4 -11 -10z"/>
<path d="M6193 825 c-16 -11 -22 -12 -26 -2 -2 6 -7 9 -11 6 -3 -3 1 -14 9
-25 14 -18 16 -18 29 -1 10 14 15 15 19 5 3 -7 6 -3 6 10 1 26 1 26 -26 7z"/>
<path d="M6740 579 c0 -5 10 -9 21 -9 18 0 19 -2 9 -15 -7 -9 -8 -15 -2 -15 8
0 22 22 22 35 0 1 -11 5 -25 7 -14 3 -25 1 -25 -3z"/>
<path d="M6713 537 c2 -20 19 -25 26 -6 2 6 -1 9 -7 5 -6 -3 -13 0 -16 6 -3 7
-5 5 -3 -5z"/>
<path d="M6794 539 c-3 -6 -1 -16 5 -22 8 -8 11 -5 11 11 0 24 -5 28 -16 11z"/>
<path d="M6833 535 c-19 -21 -16 -24 12 -12 14 7 25 15 25 20 0 12 -24 7 -37
-8z"/>
<path d="M6645 520 c-3 -6 1 -7 9 -4 18 7 21 14 7 14 -6 0 -13 -4 -16 -10z"/>
<path d="M7380 353 c0 -5 5 -15 10 -23 9 -13 11 -13 20 0 15 22 12 30 -10 30
-11 0 -20 -3 -20 -7z"/>
<path d="M7250 330 c0 -6 7 -10 15 -10 8 0 15 2 15 4 0 2 -7 6 -15 10 -8 3
-15 1 -15 -4z"/>
<path d="M7450 120 c0 -11 4 -20 9 -20 5 0 7 9 4 20 -3 11 -7 20 -9 20 -2 0
-4 -9 -4 -20z"/>
<path d="M7490 89 c-22 -6 -20 -7 13 -8 38 -1 47 3 25 11 -7 3 -24 1 -38 -3z"/>
<path d="M7600 10 c-13 -8 -12 -10 3 -10 9 0 17 5 17 10 0 12 -1 12 -20 0z"/>
</g>
</svg>
